STARTFONT 2.1
COMMENT
COMMENT Converted from OpenType font "JF-Dot-jiskan24h-2000.ttf" by "otf2bdf 3.0".
COMMENT
FONT -FreeType-JF Dot jiskan24h 2000-Medium-R-Normal--17-120-100-100-P-243-ISO10646-1
SIZE 12 100 100
FONTBOUNDINGBOX 24 24 0 -3
STARTPROPERTIES 19
FOUNDRY "FreeType"
FAMILY_NAME "JF Dot jiskan24h 2000"
WEIGHT_NAME "Medium"
SLANT "R"
SETWIDTH_NAME "Normal"
ADD_STYLE_NAME ""
PIXEL_SIZE 17
POINT_SIZE 120
RESOLUTION_X 100
RESOLUTION_Y 100
SPACING "P"
AVERAGE_WIDTH 243
CHARSET_REGISTRY "ISO10646"
CHARSET_ENCODING "1"
FONT_ASCENT 20
FONT_DESCENT 3
COPYRIGHT "[JÒ‡W åÔ724] Copyright (c) Keitarou Hiraki, Font Silo. 1990-2015"
_OTF_FONTFILE "JF-Dot-jiskan24h-2000.ttf"
_OTF_PSNAME "JF-Dot-jiskan24h-2000"
ENDPROPERTIES
CHARS 11082
STARTCHAR 0020
ENCODING 32
SWIDTH 720 0
DWIDTH 12 0
BBX 12 24 0 -3
BITMAP
0000
0000
0000
0000
0000
0000
0000
0000
0000
0000
0000
0000
0000
0000
0000
0000
0000
0000
0000
0000
0000
0000
0000
0000
ENDCHAR
STARTCHAR 0021
ENCODING 33
SWIDTH 720 0
DWIDTH 12 0
BBX 12 24 0 -3
BITMAP
0000
0000
0600
0600
0600
0600
0600
0600
0600
0600
0600
0600
0600
0600
0600
0000
0000
0000
0600
0F00
0600
0000
0000
0000
ENDCHAR
STARTCHAR 0022
ENCODING 34
SWIDTH 720 0
DWIDTH 12 0
BBX 12 24 0 -3
BITMAP
0000
1080
39C0
39C0
18C0
1080
2100
4200
0000
0000
0000
0000
0000
0000
0000
0000
0000
0000
0000
0000
0000
0000
0000
0000
ENDCHAR
STARTCHAR 0023
ENCODING 35
SWIDTH 720 0
DWIDTH 12 0
BBX 12 24 0 -3
BITMAP
0000
0000
0000
1980
1980
1980
1980
19E0
1FE0
7F80
7980
1980
1980
19E0
1FE0
7F80
7980
1980
1980
1980
1980
0000
0000
0000
ENDCHAR
STARTCHAR 0024
ENCODING 36
SWIDTH 720 0
DWIDTH 12 0
BBX 12 24 0 -3
BITMAP
0000
0400
0400
0400
1F80
34C0
64C0
6400
6400
3400
3E00
0F80
05C0
0460
0460
0460
0460
64C0
7580
1E00
0400
0400
0400
0000
ENDCHAR
STARTCHAR 0025
ENCODING 37
SWIDTH 720 0
DWIDTH 12 0
BBX 12 24 0 -3
BITMAP
0000
0000
0000
0000
3860
64C0
64C0
4D80
4D80
3B00
0300
0600
0600
0C00
0DC0
1B20
1B20
3260
3260
61C0
0000
0000
0000
0000
ENDCHAR
STARTCHAR 0026
ENCODING 38
SWIDTH 720 0
DWIDTH 12 0
BBX 12 24 0 -3
BITMAP
0000
0000
0000
1C00
2200
6300
6300
6300
3300
3600
1C00
19E0
3840
6C40
4C40
C680
C680
C300
C300
6D90
38E0
0000
0000
0000
ENDCHAR
STARTCHAR 0027
ENCODING 39
SWIDTH 720 0
DWIDTH 12 0
BBX 12 24 0 -3
BITMAP
0000
0400
0E00
0E00
0600
0400
0800
1000
0000
0000
0000
0000
0000
0000
0000
0000
0000
0000
0000
0000
0000
0000
0000
0000
ENDCHAR
STARTCHAR 0028
ENCODING 40
SWIDTH 720 0
DWIDTH 12 0
BBX 12 24 0 -3
BITMAP
0000
0040
0080
0100
0300
0200
0600
0600
0600
0C00
0C00
0C00
0C00
0C00
0400
0600
0600
0200
0300
0100
0080
0040
0000
0000
ENDCHAR
STARTCHAR 0029
ENCODING 41
SWIDTH 720 0
DWIDTH 12 0
BBX 12 24 0 -3
BITMAP
0000
2000
1000
0800
0C00
0400
0600
0600
0600
0300
0300
0300
0300
0300
0200
0600
0600
0400
0C00
0800
1000
2000
0000
0000
ENDCHAR
STARTCHAR 002A
ENCODING 42
SWIDTH 720 0
DWIDTH 12 0
BBX 12 24 0 -3
BITMAP
0000
0000
0000
0000
0000
0600
0600
0600
6660
76E0
36C0
0F00
0F00
36C0
76E0
6660
0600
0600
0600
0000
0000
0000
0000
0000
ENDCHAR
STARTCHAR 002B
ENCODING 43
SWIDTH 720 0
DWIDTH 12 0
BBX 12 24 0 -3
BITMAP
0000
0000
0000
0000
0000
0000
0000
0600
0600
0600
0600
7FE0
7FE0
0600
0600
0600
0600
0000
0000
0000
0000
0000
0000
0000
ENDCHAR
STARTCHAR 002C
ENCODING 44
SWIDTH 720 0
DWIDTH 12 0
BBX 12 24 0 -3
BITMAP
0000
0000
0000
0000
0000
0000
0000
0000
0000
0000
0000
0000
0000
0000
0000
0000
0800
1C00
1C00
0C00
0800
1000
2000
0000
ENDCHAR
STARTCHAR 002D
ENCODING 45
SWIDTH 720 0
DWIDTH 12 0
BBX 12 24 0 -3
BITMAP
0000
0000
0000
0000
0000
0000
0000
0000
0000
0000
0000
3FC0
3FC0
0000
0000
0000
0000
0000
0000
0000
0000
0000
0000
0000
ENDCHAR
STARTCHAR 002E
ENCODING 46
SWIDTH 720 0
DWIDTH 12 0
BBX 12 24 0 -3
BITMAP
0000
0000
0000
0000
0000
0000
0000
0000
0000
0000
0000
0000
0000
0000
0000
0000
0000
1000
3800
3800
1000
0000
0000
0000
ENDCHAR
STARTCHAR 002F
ENCODING 47
SWIDTH 720 0
DWIDTH 12 0
BBX 12 24 0 -3
BITMAP
0000
0020
0020
0040
0040
0080
0080
0100
0100
0100
0200
0200
0400
0400
0800
0800
1000
1000
1000
2000
2000
4000
4000
0000
ENDCHAR
STARTCHAR 0030
ENCODING 48
SWIDTH 720 0
DWIDTH 12 0
BBX 12 24 0 -3
BITMAP
0000
0000
0000
0F00
30C0
2040
6060
6060
6060
6060
6060
6060
6060
6060
6060
6060
6060
6060
2040
30C0
0F00
0000
0000
0000
ENDCHAR
STARTCHAR 0031
ENCODING 49
SWIDTH 720 0
DWIDTH 12 0
BBX 12 24 0 -3
BITMAP
0000
0000
0000
0200
0600
0E00
3E00
0600
0600
0600
0600
0600
0600
0600
0600
0600
0600
0600
0600
0600
1F80
0000
0000
0000
ENDCHAR
STARTCHAR 0032
ENCODING 50
SWIDTH 720 0
DWIDTH 12 0
BBX 12 24 0 -3
BITMAP
0000
0000
0000
0F00
30C0
2040
6060
6060
0060
00C0
00C0
0180
0700
0C00
1800
1000
2000
2020
4020
7FE0
7FE0
0000
0000
0000
ENDCHAR
STARTCHAR 0033
ENCODING 51
SWIDTH 720 0
DWIDTH 12 0
BBX 12 24 0 -3
BITMAP
0000
0000
0000
0F00
30C0
2040
6060
6060
0060
0040
0080
1F00
00C0
0060
0060
0060
6060
6060
6040
30C0
1F00
0000
0000
0000
ENDCHAR
STARTCHAR 0034
ENCODING 52
SWIDTH 720 0
DWIDTH 12 0
BBX 12 24 0 -3
BITMAP
0000
0000
0000
0380
0380
0580
0580
0980
0980
0980
1180
1180
2180
2180
4180
4180
7FE0
0180
0180
0180
03C0
0000
0000
0000
ENDCHAR
STARTCHAR 0035
ENCODING 53
SWIDTH 720 0
DWIDTH 12 0
BBX 12 24 0 -3
BITMAP
0000
0000
0000
3FC0
3FC0
2000
2000
2000
2000
2F00
30C0
2040
0060
0060
0060
6060
6060
6060
2040
30C0
0F00
0000
0000
0000
ENDCHAR
STARTCHAR 0036
ENCODING 54
SWIDTH 720 0
DWIDTH 12 0
BBX 12 24 0 -3
BITMAP
0000
0000
0000
0F00
30C0
2060
6060
6000
6000
6000
6F00
70C0
6040
6060
6060
6060
6060
6060
2040
30C0
0F00
0000
0000
0000
ENDCHAR
STARTCHAR 0037
ENCODING 55
SWIDTH 720 0
DWIDTH 12 0
BBX 12 24 0 -3
BITMAP
0000
0000
0000
7FE0
7FE0
4040
4040
0080
0080
0100
0100
0300
0200
0200
0600
0600
0400
0C00
0C00
0C00
0C00
0000
0000
0000
ENDCHAR
STARTCHAR 0038
ENCODING 56
SWIDTH 720 0
DWIDTH 12 0
BBX 12 24 0 -3
BITMAP
0000
0000
0000
0F00
30C0
2040
6060
6060
6060
2040
30C0
1F80
1080
2040
6060
6060
6060
6060
2040
30C0
0F00
0000
0000
0000
ENDCHAR
STARTCHAR 0039
ENCODING 57
SWIDTH 720 0
DWIDTH 12 0
BBX 12 24 0 -3
BITMAP
0000
0000
0000
0F00
30C0
2040
6060
6060
6060
6060
6060
2060
30E0
0F60
0060
0060
0060
6060
6040
30C0
0F00
0000
0000
0000
ENDCHAR
STARTCHAR 003A
ENCODING 58
SWIDTH 720 0
DWIDTH 12 0
BBX 12 24 0 -3
BITMAP
0000
0000
0000
0000
0000
0400
0E00
0E00
0400
0000
0000
0000
0000
0000
0000
0400
0E00
0E00
0400
0000
0000
0000
0000
0000
ENDCHAR
STARTCHAR 003B
ENCODING 59
SWIDTH 720 0
DWIDTH 12 0
BBX 12 24 0 -3
BITMAP
0000
0000
0000
0000
0000
0400
0E00
0E00
0400
0000
0000
0000
0000
0000
0400
0E00
0E00
0600
0400
0800
1000
0000
0000
0000
ENDCHAR
STARTCHAR 003C
ENCODING 60
SWIDTH 720 0
DWIDTH 12 0
BBX 12 24 0 -3
BITMAP
0000
0000
0000
0040
00C0
0180
0300
0600
0C00
1800
3000
6000
6000
3000
1800
0C00
0600
0300
0180
00C0
0040
0000
0000
0000
ENDCHAR
STARTCHAR 003D
ENCODING 61
SWIDTH 720 0
DWIDTH 12 0
BBX 12 24 0 -3
BITMAP
0000
0000
0000
0000
0000
0000
0000
0000
7FE0
7FE0
0000
0000
0000
0000
7FE0
7FE0
0000
0000
0000
0000
0000
0000
0000
0000
ENDCHAR
STARTCHAR 003E
ENCODING 62
SWIDTH 720 0
DWIDTH 12 0
BBX 12 24 0 -3
BITMAP
0000
0000
0000
4000
6000
3000
1800
0C00
0600
0300
0180
00C0
00C0
0180
0300
0600
0C00
1800
3000
6000
4000
0000
0000
0000
ENDCHAR
STARTCHAR 003F
ENCODING 63
SWIDTH 720 0
DWIDTH 12 0
BBX 12 24 0 -3
BITMAP
0000
0000
0000
0F00
30C0
2040
6060
6060
0060
0060
00C0
01C0
0700
0400
0400
0000
0000
0400
0E00
0E00
0400
0000
0000
0000
ENDCHAR
STARTCHAR 0040
ENCODING 64
SWIDTH 720 0
DWIDTH 12 0
BBX 12 24 0 -3
BITMAP
0000
0000
0000
0E00
3180
60C0
60C0
C360
CF60
DB60
DB60
DB60
DB60
DB60
DB60
CBC0
CE00
6020
6040
3180
0F00
0000
0000
0000
ENDCHAR
STARTCHAR 0041
ENCODING 65
SWIDTH 720 0
DWIDTH 12 0
BBX 12 24 0 -3
BITMAP
0000
0000
0000
0600
0600
0600
0600
0B00
0B00
0B00
0B00
1180
1180
1180
1F80
1180
20C0
20C0
20C0
20C0
79E0
0000
0000
0000
ENDCHAR
STARTCHAR 0042
ENCODING 66
SWIDTH 720 0
DWIDTH 12 0
BBX 12 24 0 -3
BITMAP
0000
0000
0000
7F00
3080
30C0
30C0
30C0
30C0
3180
3F00
3080
30C0
3060
3060
3060
3060
3060
3040
30C0
7F00
0000
0000
0000
ENDCHAR
STARTCHAR 0043
ENCODING 67
SWIDTH 720 0
DWIDTH 12 0
BBX 12 24 0 -3
BITMAP
0000
0000
0000
0720
18E0
3060
3020
6020
6000
6000
6000
6000
6000
6000
6000
6020
6020
3040
3040
1980
0700
0000
0000
0000
ENDCHAR
STARTCHAR 0044
ENCODING 68
SWIDTH 720 0
DWIDTH 12 0
BBX 12 24 0 -3
BITMAP
0000
0000
0000
FE00
6180
60C0
60C0
6060
6060
6060
6060
6060
6060
6060
6060
6060
6060
60C0
60C0
6180
FE00
0000
0000
0000
ENDCHAR
STARTCHAR 0045
ENCODING 69
SWIDTH 720 0
DWIDTH 12 0
BBX 12 24 0 -3
BITMAP
0000
0000
0000
7FC0
3040
3040
3020
3000
3080
3080
3F80
3080
3080
3000
3000
3000
3000
3020
3040
3040
7FC0
0000
0000
0000
ENDCHAR
STARTCHAR 0046
ENCODING 70
SWIDTH 720 0
DWIDTH 12 0
BBX 12 24 0 -3
BITMAP
0000
0000
0000
7FC0
3040
3040
3020
3000
3080
3080
3F80
3080
3080
3000
3000
3000
3000
3000
3000
3000
7C00
0000
0000
0000
ENDCHAR
STARTCHAR 0047
ENCODING 71
SWIDTH 720 0
DWIDTH 12 0
BBX 12 24 0 -3
BITMAP
0000
0000
0000
0F20
18E0
3060
3020
6020
6000
6000
6000
67F0
6060
6060
6060
6060
6060
3060
30E0
1B20
0E20
0000
0000
0000
ENDCHAR
STARTCHAR 0048
ENCODING 72
SWIDTH 720 0
DWIDTH 12 0
BBX 12 24 0 -3
BITMAP
0000
0000
0000
F0F0
6060
6060
6060
6060
6060
6060
7FE0
6060
6060
6060
6060
6060
6060
6060
6060
6060
F0F0
0000
0000
0000
ENDCHAR
STARTCHAR 0049
ENCODING 73
SWIDTH 720 0
DWIDTH 12 0
BBX 12 24 0 -3
BITMAP
0000
0000
0000
1F80
0600
0600
0600
0600
0600
0600
0600
0600
0600
0600
0600
0600
0600
0600
0600
0600
1F80
0000
0000
0000
ENDCHAR
STARTCHAR 004A
ENCODING 74
SWIDTH 720 0
DWIDTH 12 0
BBX 12 24 0 -3
BITMAP
0000
0000
0000
07C0
0180
0180
0180
0180
0180
0180
0180
0180
0180
0180
0180
0180
0180
0180
3180
7180
6180
2300
1E00
0000
ENDCHAR
STARTCHAR 004B
ENCODING 75
SWIDTH 720 0
DWIDTH 12 0
BBX 12 24 0 -3
BITMAP
0000
0000
0000
F0E0
6040
6080
6080
6100
6200
6200
6400
6E00
7600
6300
6300
6300
6180
6180
60C0
60C0
F1E0
0000
0000
0000
ENDCHAR
STARTCHAR 004C
ENCODING 76
SWIDTH 720 0
DWIDTH 12 0
BBX 12 24 0 -3
BITMAP
0000
0000
0000
7C00
3000
3000
3000
3000
3000
3000
3000
3000
3000
3000
3000
3000
3000
3020
3040
3040
7FC0
0000
0000
0000
ENDCHAR
STARTCHAR 004D
ENCODING 77
SWIDTH 720 0
DWIDTH 12 0
BBX 12 24 0 -3
BITMAP
0000
0000
0000
C070
6060
60E0
60E0
70E0
7160
7160
5960
5A60
5A60
5A60
4C60
4C60
4C60
4460
4060
4060
E0F0
0000
0000
0000
ENDCHAR
STARTCHAR 004E
ENCODING 78
SWIDTH 720 0
DWIDTH 12 0
BBX 12 24 0 -3
BITMAP
0000
0000
0000
E070
6020
7020
5020
5820
5820
4C20
4C20
4620
4620
4320
4320
41A0
41A0
40A0
40E0
4060
E060
0000
0000
0000
ENDCHAR
STARTCHAR 004F
ENCODING 79
SWIDTH 720 0
DWIDTH 12 0
BBX 12 24 0 -3
BITMAP
0000
0000
0000
0F00
1080
30C0
2040
6060
6060
6060
6060
6060
6060
6060
6060
6060
6060
2040
30C0
1080
0F00
0000
0000
0000
ENDCHAR
STARTCHAR 0050
ENCODING 80
SWIDTH 720 0
DWIDTH 12 0
BBX 12 24 0 -3
BITMAP
0000
0000
0000
7F00
30C0
3040
3060
3060
3060
3060
3040
30C0
3F00
3000
3000
3000
3000
3000
3000
3000
7800
0000
0000
0000
ENDCHAR
STARTCHAR 0051
ENCODING 81
SWIDTH 720 0
DWIDTH 12 0
BBX 12 24 0 -3
BITMAP
0000
0000
0000
0F00
1080
30C0
2040
6060
6060
6060
6060
6060
6060
6060
6060
6060
6060
2E40
32C0
1180
0F00
00E0
0060
0000
ENDCHAR
STARTCHAR 0052
ENCODING 82
SWIDTH 720 0
DWIDTH 12 0
BBX 12 24 0 -3
BITMAP
0000
0000
0000
FF00
6180
60C0
60C0
60C0
60C0
6180
7E00
6300
6180
6180
6180
60C0
60C0
60C0
60C0
60C0
F1E0
0000
0000
0000
ENDCHAR
STARTCHAR 0053
ENCODING 83
SWIDTH 720 0
DWIDTH 12 0
BBX 12 24 0 -3
BITMAP
0000
0000
0000
0E40
3140
20C0
6040
6040
6000
3800
1E00
0780
01C0
00C0
0060
0060
4060
4060
60C0
7180
4E00
0000
0000
0000
ENDCHAR
STARTCHAR 0054
ENCODING 84
SWIDTH 720 0
DWIDTH 12 0
BBX 12 24 0 -3
BITMAP
0000
0000
0000
7FE0
4620
4620
8610
0600
0600
0600
0600
0600
0600
0600
0600
0600
0600
0600
0600
0600
0F00
0000
0000
0000
ENDCHAR
STARTCHAR 0055
ENCODING 85
SWIDTH 720 0
DWIDTH 12 0
BBX 12 24 0 -3
BITMAP
0000
0000
0000
F070
6020
6020
6020
6020
6020
6020
6020
6020
6020
6020
6020
6020
6020
6020
3040
38C0
0F00
0000
0000
0000
ENDCHAR
STARTCHAR 0056
ENCODING 86
SWIDTH 720 0
DWIDTH 12 0
BBX 12 24 0 -3
BITMAP
0000
0000
0000
F0E0
6040
6040
6040
3080
3080
3080
3080
1900
1900
1900
0A00
0E00
0E00
0E00
0400
0400
0400
0000
0000
0000
ENDCHAR
STARTCHAR 0057
ENCODING 87
SWIDTH 720 0
DWIDTH 12 0
BBX 12 24 0 -3
BITMAP
0000
0000
0000
F770
6620
6620
6620
6620
6620
6340
3340
3340
3340
3340
3740
1980
1980
1980
1980
1980
1980
0000
0000
0000
ENDCHAR
STARTCHAR 0058
ENCODING 88
SWIDTH 720 0
DWIDTH 12 0
BBX 12 24 0 -3
BITMAP
0000
0000
0000
F0E0
6040
6080
3080
3100
1900
1A00
0E00
0C00
0600
0E00
0B00
1300
1180
2180
20C0
40C0
E1E0
0000
0000
0000
ENDCHAR
STARTCHAR 0059
ENCODING 89
SWIDTH 720 0
DWIDTH 12 0
BBX 12 24 0 -3
BITMAP
0000
0000
0000
F070
6020
3020
3040
3040
1880
1880
0D00
0D00
0600
0600
0600
0600
0600
0600
0600
0600
0F00
0000
0000
0000
ENDCHAR
STARTCHAR 005A
ENCODING 90
SWIDTH 720 0
DWIDTH 12 0
BBX 12 24 0 -3
BITMAP
0000
0000
0000
3FE0
2060
40C0
00C0
0180
0180
0300
0300
0600
0600
0C00
0C00
1800
1800
3010
3020
6020
7FE0
0000
0000
0000
ENDCHAR
STARTCHAR 005B
ENCODING 91
SWIDTH 720 0
DWIDTH 12 0
BBX 12 24 0 -3
BITMAP
0000
1FE0
1800
1800
1800
1800
1800
1800
1800
1800
1800
1800
1800
1800
1800
1800
1800
1800
1800
1800
1800
1FE0
0000
0000
ENDCHAR
STARTCHAR 005C
ENCODING 92
SWIDTH 720 0
DWIDTH 12 0
BBX 12 24 0 -3
BITMAP
0000
0000
0000
F070
6020
3040
3040
1880
1880
0D00
7FE0
0600
0600
0600
7FE0
0600
0600
0600
0600
0600
0F00
0000
0000
0000
ENDCHAR
STARTCHAR 005D
ENCODING 93
SWIDTH 720 0
DWIDTH 12 0
BBX 12 24 0 -3
BITMAP
0000
7F80
0180
0180
0180
0180
0180
0180
0180
0180
0180
0180
0180
0180
0180
0180
0180
0180
0180
0180
0180
7F80
0000
0000
ENDCHAR
STARTCHAR 005E
ENCODING 94
SWIDTH 720 0
DWIDTH 12 0
BBX 12 24 0 -3
BITMAP
0400
0E00
1B00
3180
4040
8020
0000
0000
0000
0000
0000
0000
0000
0000
0000
0000
0000
0000
0000
0000
0000
0000
0000
0000
ENDCHAR
STARTCHAR 005F
ENCODING 95
SWIDTH 720 0
DWIDTH 12 0
BBX 12 24 0 -3
BITMAP
0000
0000
0000
0000
0000
0000
0000
0000
0000
0000
0000
0000
0000
0000
0000
0000
0000
0000
0000
0000
0000
0000
7FE0
0000
ENDCHAR
STARTCHAR 0060
ENCODING 96
SWIDTH 720 0
DWIDTH 12 0
BBX 12 24 0 -3
BITMAP
0000
0200
0700
0700
0600
0200
0100
0080
0000
0000
0000
0000
0000
0000
0000
0000
0000
0000
0000
0000
0000
0000
0000
0000
ENDCHAR
STARTCHAR 0061
ENCODING 97
SWIDTH 720 0
DWIDTH 12 0
BBX 12 24 0 -3
BITMAP
0000
0000
0000
0000
0000
0000
0000
0000
0000
0F80
38C0
30C0
00C0
00C0
0FC0
30C0
60C0
60C0
61C0
66D0
3860
0000
0000
0000
ENDCHAR
STARTCHAR 0062
ENCODING 98
SWIDTH 720 0
DWIDTH 12 0
BBX 12 24 0 -3
BITMAP
0000
2000
E000
6000
6000
6000
6000
6000
6000
6700
78C0
7060
6060
6060
6060
6060
6060
6060
7040
68C0
4700
0000
0000
0000
ENDCHAR
STARTCHAR 0063
ENCODING 99
SWIDTH 720 0
DWIDTH 12 0
BBX 12 24 0 -3
BITMAP
0000
0000
0000
0000
0000
0000
0000
0000
0000
0F00
31C0
20C0
6000
6000
6000
6000
6000
6020
3040
3980
0F00
0000
0000
0000
ENDCHAR
STARTCHAR 0064
ENCODING 100
SWIDTH 720 0
DWIDTH 12 0
BBX 12 24 0 -3
BITMAP
0000
0040
01C0
00C0
00C0
00C0
00C0
00C0
00C0
0EC0
31C0
20C0
60C0
60C0
60C0
60C0
60C0
60C0
20C0
31C0
0EE0
0000
0000
0000
ENDCHAR
STARTCHAR 0065
ENCODING 101
SWIDTH 720 0
DWIDTH 12 0
BBX 12 24 0 -3
BITMAP
0000
0000
0000
0000
0000
0000
0000
0000
0000
0F00
30C0
2040
6060
6060
7FE0
6000
6000
6020
3040
3980
0F00
0000
0000
0000
ENDCHAR
STARTCHAR 0066
ENCODING 102
SWIDTH 720 0
DWIDTH 12 0
BBX 12 24 0 -3
BITMAP
0000
0780
08C0
18C0
1800
1800
1800
1800
1800
7F80
1800
1800
1800
1800
1800
1800
1800
1800
1800
1800
3C00
0000
0000
0000
ENDCHAR
STARTCHAR 0067
ENCODING 103
SWIDTH 720 0
DWIDTH 12 0
BBX 12 24 0 -3
BITMAP
0000
0000
0000
0000
0000
0000
0000
0000
0060
0EE0
3180
60C0
60C0
60C0
3180
2E00
6000
3F80
2FC0
6060
6060
30C0
1F00
0000
ENDCHAR
STARTCHAR 0068
ENCODING 104
SWIDTH 720 0
DWIDTH 12 0
BBX 12 24 0 -3
BITMAP
0000
2000
E000
6000
6000
6000
6000
6000
6000
6F00
7180
6080
60C0
60C0
60C0
60C0
60C0
60C0
60C0
60C0
F1E0
0000
0000
0000
ENDCHAR
STARTCHAR 0069
ENCODING 105
SWIDTH 720 0
DWIDTH 12 0
BBX 12 24 0 -3
BITMAP
0000
0000
0000
0600
0600
0000
0000
0000
0000
0200
0E00
0600
0600
0600
0600
0600
0600
0600
0600
0600
0F00
0000
0000
0000
ENDCHAR
STARTCHAR 006A
ENCODING 106
SWIDTH 720 0
DWIDTH 12 0
BBX 12 24 0 -3
BITMAP
0000
0000
0000
0180
0180
0000
0000
0000
0000
0080
0380
0180
0180
0180
0180
0180
0180
0180
0180
6180
6180
6180
2300
1C00
ENDCHAR
STARTCHAR 006B
ENCODING 107
SWIDTH 720 0
DWIDTH 12 0
BBX 12 24 0 -3
BITMAP
0000
2000
E000
6000
6000
6000
6000
6000
6000
61C0
6080
6100
6200
6400
6C00
7600
6300
6300
6180
60C0
F1E0
0000
0000
0000
ENDCHAR
STARTCHAR 006C
ENCODING 108
SWIDTH 720 0
DWIDTH 12 0
BBX 12 24 0 -3
BITMAP
0000
0200
0E00
0600
0600
0600
0600
0600
0600
0600
0600
0600
0600
0600
0600
0600
0600
0600
0600
0600
0F00
0000
0000
0000
ENDCHAR
STARTCHAR 006D
ENCODING 109
SWIDTH 720 0
DWIDTH 12 0
BBX 12 24 0 -3
BITMAP
0000
0000
0000
0000
0000
0000
0000
0000
0000
2CC0
FFE0
6660
6660
6660
6660
6660
6660
6660
6660
6660
F770
0000
0000
0000
ENDCHAR
STARTCHAR 006E
ENCODING 110
SWIDTH 720 0
DWIDTH 12 0
BBX 12 24 0 -3
BITMAP
0000
0000
0000
0000
0000
0000
0000
0000
0000
2F00
F180
6080
60C0
60C0
60C0
60C0
60C0
60C0
60C0
60C0
F1E0
0000
0000
0000
ENDCHAR
STARTCHAR 006F
ENCODING 111
SWIDTH 720 0
DWIDTH 12 0
BBX 12 24 0 -3
BITMAP
0000
0000
0000
0000
0000
0000
0000
0000
0000
0F00
30C0
2040
6060
6060
6060
6060
6060
6060
2040
30C0
0F00
0000
0000
0000
ENDCHAR
STARTCHAR 0070
ENCODING 112
SWIDTH 720 0
DWIDTH 12 0
BBX 12 24 0 -3
BITMAP
0000
0000
0000
0000
0000
0000
0000
0000
0000
2700
E9C0
70C0
6060
6060
6060
6060
6060
6060
70C0
69C0
6700
6000
F000
0000
ENDCHAR
STARTCHAR 0071
ENCODING 113
SWIDTH 720 0
DWIDTH 12 0
BBX 12 24 0 -3
BITMAP
0000
0000
0000
0000
0000
0000
0000
0000
0000
0E40
39C0
30C0
60C0
60C0
60C0
60C0
60C0
60C0
30C0
39C0
0EC0
00C0
00E0
0000
ENDCHAR
STARTCHAR 0072
ENCODING 114
SWIDTH 720 0
DWIDTH 12 0
BBX 12 24 0 -3
BITMAP
0000
0000
0000
0000
0000
0000
0000
0000
0000
08C0
39E0
1A60
1C00
1800
1800
1800
1800
1800
1800
1800
3C00
0000
0000
0000
ENDCHAR
STARTCHAR 0073
ENCODING 115
SWIDTH 720 0
DWIDTH 12 0
BBX 12 24 0 -3
BITMAP
0000
0000
0000
0000
0000
0000
0000
0000
0000
0F00
11C0
30C0
3000
3800
1F00
07C0
00E0
0060
3060
3840
0F80
0000
0000
0000
ENDCHAR
STARTCHAR 0074
ENCODING 116
SWIDTH 720 0
DWIDTH 12 0
BBX 12 24 0 -3
BITMAP
0000
0000
0000
0400
0C00
0C00
0C00
0C00
0C00
3FC0
0C00
0C00
0C00
0C00
0C00
0C00
0C00
0C20
0C20
0CC0
0780
0000
0000
0000
ENDCHAR
STARTCHAR 0075
ENCODING 117
SWIDTH 720 0
DWIDTH 12 0
BBX 12 24 0 -3
BITMAP
0000
0000
0000
0000
0000
0000
0000
0000
0000
2040
E1C0
60C0
60C0
60C0
60C0
60C0
60C0
60C0
61C0
32C0
1CE0
0000
0000
0000
ENDCHAR
STARTCHAR 0076
ENCODING 118
SWIDTH 720 0
DWIDTH 12 0
BBX 12 24 0 -3
BITMAP
0000
0000
0000
0000
0000
0000
0000
0000
0000
F0E0
6040
6040
3080
3080
3080
1900
1900
0E00
0E00
0400
0400
0000
0000
0000
ENDCHAR
STARTCHAR 0077
ENCODING 119
SWIDTH 720 0
DWIDTH 12 0
BBX 12 24 0 -3
BITMAP
0000
0000
0000
0000
0000
0000
0000
0000
0000
EEE0
6640
6640
6640
6B40
6B40
6B40
3180
3180
3180
3180
3180
0000
0000
0000
ENDCHAR
STARTCHAR 0078
ENCODING 120
SWIDTH 720 0
DWIDTH 12 0
BBX 12 24 0 -3
BITMAP
0000
0000
0000
0000
0000
0000
0000
0000
0000
78E0
3040
1880
1900
0D00
0600
0600
0B00
0980
1180
20C0
71E0
0000
0000
0000
ENDCHAR
STARTCHAR 0079
ENCODING 121
SWIDTH 720 0
DWIDTH 12 0
BBX 12 24 0 -3
BITMAP
0000
0000
0000
0000
0000
0000
0000
0000
0000
F0E0
6040
3040
3080
1880
1900
0D00
0E00
0600
0400
0400
0800
C800
D000
6000
ENDCHAR
STARTCHAR 007A
ENCODING 122
SWIDTH 720 0
DWIDTH 12 0
BBX 12 24 0 -3
BITMAP
0000
0000
0000
0000
0000
0000
0000
0000
0000
3FE0
20C0
4180
0300
0300
0600
0C00
0C00
1820
3040
3040
7FC0
0000
0000
0000
ENDCHAR
STARTCHAR 007B
ENCODING 123
SWIDTH 720 0
DWIDTH 12 0
BBX 12 24 0 -3
BITMAP
0000
01E0
0200
0200
0600
0600
0600
0600
0600
0C00
0800
7000
0800
0C00
0600
0600
0600
0600
0600
0200
0200
01E0
0000
0000
ENDCHAR
STARTCHAR 007C
ENCODING 124
SWIDTH 720 0
DWIDTH 12 0
BBX 12 24 0 -3
BITMAP
0000
0600
0600
0600
0600
0600
0600
0600
0600
0600
0600
0600
0600
0600
0600
0600
0600
0600
0600
0600
0600
0600
0600
0000
ENDCHAR
STARTCHAR 007D
ENCODING 125
SWIDTH 720 0
DWIDTH 12 0
BBX 12 24 0 -3
BITMAP
0000
7800
0400
0400
0600
0600
0600
0600
0600
0300
0100
00E0
0100
0300
0600
0600
0600
0600
0600
0400
0400
7800
0000
0000
ENDCHAR
STARTCHAR 007E
ENCODING 126
SWIDTH 720 0
DWIDTH 12 0
BBX 12 24 0 -3
BITMAP
0000
0000
7FE0
0000
0000
0000
0000
0000
0000
0000
0000
0000
0000
0000
0000
0000
0000
0000
0000
0000
0000
0000
0000
0000
ENDCHAR
STARTCHAR 00A0
ENCODING 160
SWIDTH 1440 0
DWIDTH 24 0
BBX 24 24 0 -3
BITMAP
000000
000000
000000
000000
000000
000000
000000
000000
32E338
3294A4
2A9424
2AE338
2690A0
2694A0
22E320
000000
000000
000000
000000
000000
000000
000000
000000
000000
ENDCHAR
STARTCHAR 00A1
ENCODING 161
SWIDTH 1440 0
DWIDTH 24 0
BBX 24 24 0 -3
BITMAP
000000
000000
003800
003800
003800
000000
000000
001000
001000
001000
001000
001000
003800
003800
003800
003800
003800
003800
003800
003800
003800
000000
000000
000000
ENDCHAR
STARTCHAR 00A4
ENCODING 164
SWIDTH 1440 0
DWIDTH 24 0
BBX 24 24 0 -3
BITMAP
000000
000000
000000
000000
080010
040020
023C40
01C380
010080
010080
020040
020040
020040
020040
010080
010080
01C380
023C40
040020
080010
000000
000000
000000
000000
ENDCHAR
STARTCHAR 00A6
ENCODING 166
SWIDTH 1440 0
DWIDTH 24 0
BBX 24 24 0 -3
BITMAP
000000
000000
001000
001000
001000
001000
001000
001000
001000
001000
000000
000000
000000
000000
001000
001000
001000
001000
001000
001000
001000
001000
000000
000000
ENDCHAR
STARTCHAR 00A7
ENCODING 167
SWIDTH 1440 0
DWIDTH 24 0
BBX 24 24 0 -3
BITMAP
000000
000000
007E00
018180
0300C0
0300C0
018000
00E000
003C00
00CF00
010380
0300C0
0300C0
01C080
00F300
003C00
000700
000180
0300C0
0300C0
018180
007E00
000000
000000
ENDCHAR
STARTCHAR 00A8
ENCODING 168
SWIDTH 1440 0
DWIDTH 24 0
BBX 24 24 0 -3
BITMAP
006600
006600
000000
000000
000000
000000
000000
000000
000000
000000
000000
000000
000000
000000
000000
000000
000000
000000
000000
000000
000000
000000
000000
000000
ENDCHAR
STARTCHAR 00A9
ENCODING 169
SWIDTH 1440 0
DWIDTH 24 0
BBX 24 24 0 -3
BITMAP
000000
007E00
018180
060060
080010
103C08
10C348
2181C4
2300C4
430042
460002
460002
460002
460002
430002
230044
218084
10C308
103C08
080010
060060
018180
007E00
000000
ENDCHAR
STARTCHAR 00AA
ENCODING 170
SWIDTH 1440 0
DWIDTH 24 0
BBX 24 24 0 -3
BITMAP
000000
000000
000000
000000
1F0000
218000
0F8000
198000
318000
33E000
1CC000
000000
000000
000000
000000
000000
000000
000000
000000
000000
000000
000000
000000
000000
ENDCHAR
STARTCHAR 00AB
ENCODING 171
SWIDTH 1440 0
DWIDTH 24 0
BBX 24 24 0 -3
BITMAP
000000
000000
000084
000108
000108
000318
000210
000630
000630
000C60
000C60
0018C0
000C60
000C60
000630
000630
000210
000318
000108
000108
000084
000000
000000
000000
ENDCHAR
STARTCHAR 00AD
ENCODING 173
SWIDTH 1440 0
DWIDTH 24 0
BBX 24 24 0 -3
BITMAP
000000
000000
200004
4E4512
514512
9044A1
8E7C41
814441
514442
4E4442
200004
000000
007E00
000000
000000
000000
000000
000000
000000
000000
000000
000000
000000
000000
ENDCHAR
STARTCHAR 00AE
ENCODING 174
SWIDTH 1440 0
DWIDTH 24 0
BBX 24 24 0 -3
BITMAP
000000
007E00
018180
060060
080010
17FE08
118308
218184
218184
418182
418302
418602
41F802
418C02
418602
218204
218304
118188
17E1E8
080010
060060
018180
007E00
000000
ENDCHAR
STARTCHAR 00AF
ENCODING 175
SWIDTH 1440 0
DWIDTH 24 0
BBX 24 24 0 -3
BITMAP
000000
00FF00
000000
000000
000000
000000
000000
000000
000000
000000
000000
000000
000000
000000
000000
000000
000000
000000
000000
000000
000000
000000
000000
000000
ENDCHAR
STARTCHAR 00B0
ENCODING 176
SWIDTH 1440 0
DWIDTH 24 0
BBX 24 24 0 -3
BITMAP
000000
000000
060000
090000
108000
108000
090000
060000
000000
000000
000000
000000
000000
000000
000000
000000
000000
000000
000000
000000
000000
000000
000000
000000
ENDCHAR
STARTCHAR 00B1
ENCODING 177
SWIDTH 1440 0
DWIDTH 24 0
BBX 24 24 0 -3
BITMAP
000000
000000
000000
001000
001000
001000
001000
001000
001000
001000
1FFFF8
001000
001000
001000
001000
001000
001000
001000
000000
000000
1FFFF8
000000
000000
000000
ENDCHAR
STARTCHAR 00B2
ENCODING 178
SWIDTH 1440 0
DWIDTH 24 0
BBX 24 24 0 -3
BITMAP
000000
0F0000
198000
308000
108000
018000
030000
060000
0C4000
188000
3F8000
000000
000000
000000
000000
000000
000000
000000
000000
000000
000000
000000
000000
000000
ENDCHAR
STARTCHAR 00B3
ENCODING 179
SWIDTH 1440 0
DWIDTH 24 0
BBX 24 24 0 -3
BITMAP
000000
0F0000
198000
108000
018000
0F0000
018000
30C000
30C000
198000
0F0000
000000
000000
000000
000000
000000
000000
000000
000000
000000
000000
000000
000000
000000
ENDCHAR
STARTCHAR 00B4
ENCODING 180
SWIDTH 1440 0
DWIDTH 24 0
BBX 24 24 0 -3
BITMAP
000C00
007E00
000000
000000
000000
000000
000000
000000
000000
000000
000000
000000
000000
000000
000000
000000
000000
000000
000000
000000
000000
000000
000000
000000
ENDCHAR
STARTCHAR 00B6
ENCODING 182
SWIDTH 1440 0
DWIDTH 24 0
BBX 24 24 0 -3
BITMAP
000000
00FF80
03F180
03F180
07F180
07F180
07F180
07F180
03F180
03F180
00F180
003180
003180
003180
003180
003180
003180
003180
003180
003180
003180
003180
003180
003180
ENDCHAR
STARTCHAR 00B7
ENCODING 183
SWIDTH 1440 0
DWIDTH 24 0
BBX 24 24 0 -3
BITMAP
000000
000000
000000
000000
000000
000000
000000
000000
000000
000000
000000
003800
003800
003800
000000
000000
000000
000000
000000
000000
000000
000000
000000
000000
ENDCHAR
STARTCHAR 00B8
ENCODING 184
SWIDTH 1440 0
DWIDTH 24 0
BBX 24 24 0 -3
BITMAP
000000
000000
000000
000000
000000
000000
000000
000000
000000
000000
000000
000000
000000
000000
000000
000000
000000
000000
000800
001800
001C00
000600
000E00
007C00
ENDCHAR
STARTCHAR 00B9
ENCODING 185
SWIDTH 1440 0
DWIDTH 24 0
BBX 24 24 0 -3
BITMAP
000000
020000
060000
1E0000
060000
060000
060000
060000
060000
060000
1F8000
000000
000000
000000
000000
000000
000000
000000
000000
000000
000000
000000
000000
000000
ENDCHAR
STARTCHAR 00BA
ENCODING 186
SWIDTH 1440 0
DWIDTH 24 0
BBX 24 24 0 -3
BITMAP
000000
000000
000000
000000
0F0000
198000
30C000
30C000
30C000
198000
0F0000
000000
000000
000000
000000
000000
000000
000000
000000
000000
000000
000000
000000
000000
ENDCHAR
STARTCHAR 00BB
ENCODING 187
SWIDTH 1440 0
DWIDTH 24 0
BBX 24 24 0 -3
BITMAP
000000
000000
210000
108000
108000
18C000
084000
0C6000
0C6000
063000
063000
031800
063000
063000
0C6000
0C6000
084000
18C000
108000
108000
210000
000000
000000
000000
ENDCHAR
STARTCHAR 00BC
ENCODING 188
SWIDTH 1440 0
DWIDTH 24 0
BBX 24 24 0 -3
BITMAP
000000
000800
001800
007800
001800
001800
001800
001800
001800
001800
007E00
000000
0FFFF0
000000
001C00
002C00
002C00
004C00
004C00
008C00
00FF00
000C00
000C00
001E00
ENDCHAR
STARTCHAR 00BD
ENCODING 189
SWIDTH 1440 0
DWIDTH 24 0
BBX 24 24 0 -3
BITMAP
000000
000800
001800
007800
001800
001800
001800
001800
001800
001800
007E00
000000
0FFFF0
000000
003C00
006600
00C200
004200
000600
000C00
001800
003100
006200
00FE00
ENDCHAR
STARTCHAR 00BE
ENCODING 190
SWIDTH 1440 0
DWIDTH 24 0
BBX 24 24 0 -3
BITMAP
000000
003C00
006600
004200
000600
003C00
000600
00C300
00C300
006600
003C00
000000
0FFFF0
000000
001C00
002C00
002C00
004C00
004C00
008C00
00FF00
000C00
000C00
001E00
ENDCHAR
STARTCHAR 00BF
ENCODING 191
SWIDTH 1440 0
DWIDTH 24 0
BBX 24 24 0 -3
BITMAP
000000
000000
003800
003800
003800
000000
000000
001000
001000
002000
006000
00C000
018000
030000
030000
060300
060380
060180
030180
018300
007C00
000000
000000
000000
ENDCHAR
STARTCHAR 00C0
ENCODING 192
SWIDTH 1440 0
DWIDTH 24 0
BBX 24 24 0 -3
BITMAP
007800
001C00
000600
000100
001000
001800
003800
002C00
002C00
004600
004600
008300
008300
010180
01FF80
0200C0
0200C0
040060
040060
0C0070
3F01FC
000000
000000
000000
ENDCHAR
STARTCHAR 00C1
ENCODING 193
SWIDTH 1440 0
DWIDTH 24 0
BBX 24 24 0 -3
BITMAP
001E00
003800
006000
008000
001000
001800
003800
002C00
002C00
004600
004600
008300
008300
010180
01FF80
0200C0
0200C0
040060
040060
0C0070
3F01FC
000000
000000
000000
ENDCHAR
STARTCHAR 00C2
ENCODING 194
SWIDTH 1440 0
DWIDTH 24 0
BBX 24 24 0 -3
BITMAP
001000
003800
006C00
008200
001000
001800
003800
002C00
002C00
004600
004600
008300
008300
010180
01FF80
0200C0
0200C0
040060
040060
0C0070
3F01FC
000000
000000
000000
ENDCHAR
STARTCHAR 00C3
ENCODING 195
SWIDTH 1440 0
DWIDTH 24 0
BBX 24 24 0 -3
BITMAP
007080
009900
010E00
000000
001000
001800
003800
002C00
002C00
004600
004600
008300
008300
010180
01FF80
0200C0
0200C0
040060
040060
0C0070
3F01FC
000000
000000
000000
ENDCHAR
STARTCHAR 00C4
ENCODING 196
SWIDTH 1440 0
DWIDTH 24 0
BBX 24 24 0 -3
BITMAP
000000
006600
006600
000000
001000
001800
003800
002C00
002C00
004600
004600
008300
008300
010180
01FF80
0200C0
0200C0
040060
040060
0C0070
3F01FC
000000
000000
000000
ENDCHAR
STARTCHAR 00C5
ENCODING 197
SWIDTH 1440 0
DWIDTH 24 0
BBX 24 24 0 -3
BITMAP
001800
002400
002400
001800
000000
001800
003800
002C00
002C00
004600
004600
008300
008300
010180
01FF80
0200C0
0200C0
040060
040060
0C0070
3F01FC
000000
000000
000000
ENDCHAR
STARTCHAR 00C6
ENCODING 198
SWIDTH 1440 0
DWIDTH 24 0
BBX 24 24 0 -3
BITMAP
000000
000000
003FFC
001C0C
001C04
002C00
002C00
004C00
004C08
008C08
008C18
010FF8
010C18
020C08
03FC08
040C00
040C00
080C00
080C02
100C06
7C3FFE
000000
000000
000000
ENDCHAR
STARTCHAR 00C7
ENCODING 199
SWIDTH 1440 0
DWIDTH 24 0
BBX 24 24 0 -3
BITMAP
000000
000000
003C00
00C320
0300E0
060060
0C0020
0C0020
180000
180000
180000
180000
180000
180000
0C0000
0C0010
060020
030040
00C180
003E00
001000
003C00
000E00
007C00
ENDCHAR
STARTCHAR 00C8
ENCODING 200
SWIDTH 1440 0
DWIDTH 24 0
BBX 24 24 0 -3
BITMAP
007800
001C00
000600
000100
1FFFC0
0600C0
060040
060020
060020
060200
060200
060600
07FE00
060600
060200
060200
060010
060010
060020
060060
1FFFE0
000000
000000
000000
ENDCHAR
STARTCHAR 00C9
ENCODING 201
SWIDTH 1440 0
DWIDTH 24 0
BBX 24 24 0 -3
BITMAP
001E00
003800
006000
008000
1FFFC0
0600C0
060040
060020
060020
060200
060200
060600
07FE00
060600
060200
060200
060010
060010
060020
060060
1FFFE0
000000
000000
000000
ENDCHAR
STARTCHAR 00CA
ENCODING 202
SWIDTH 1440 0
DWIDTH 24 0
BBX 24 24 0 -3
BITMAP
001000
003800
006C00
008200
1FFFC0
0600C0
060040
060020
060020
060200
060200
060600
07FE00
060600
060200
060200
060010
060010
060020
060060
1FFFE0
000000
000000
000000
ENDCHAR
STARTCHAR 00CB
ENCODING 203
SWIDTH 1440 0
DWIDTH 24 0
BBX 24 24 0 -3
BITMAP
000000
006600
006600
000000
1FFFC0
0600C0
060040
060020
060020
060200
060200
060600
07FE00
060600
060200
060200
060010
060010
060020
060060
1FFFE0
000000
000000
000000
ENDCHAR
STARTCHAR 00CC
ENCODING 204
SWIDTH 1440 0
DWIDTH 24 0
BBX 24 24 0 -3
BITMAP
007800
001C00
000600
000100
000000
00FF00
001800
001800
001800
001800
001800
001800
001800
001800
001800
001800
001800
001800
001800
001800
00FF00
000000
000000
000000
ENDCHAR
STARTCHAR 00CD
ENCODING 205
SWIDTH 1440 0
DWIDTH 24 0
BBX 24 24 0 -3
BITMAP
001E00
003800
006000
008000
000000
00FF00
001800
001800
001800
001800
001800
001800
001800
001800
001800
001800
001800
001800
001800
001800
00FF00
000000
000000
000000
ENDCHAR
STARTCHAR 00CE
ENCODING 206
SWIDTH 1440 0
DWIDTH 24 0
BBX 24 24 0 -3
BITMAP
001000
003800
006C00
008200
000000
00FF00
001800
001800
001800
001800
001800
001800
001800
001800
001800
001800
001800
001800
001800
001800
00FF00
000000
000000
000000
ENDCHAR
STARTCHAR 00CF
ENCODING 207
SWIDTH 1440 0
DWIDTH 24 0
BBX 24 24 0 -3
BITMAP
000000
006600
006600
000000
00FF00
001800
001800
001800
001800
001800
001800
001800
001800
001800
001800
001800
001800
001800
001800
001800
00FF00
000000
000000
000000
ENDCHAR
STARTCHAR 00D0
ENCODING 208
SWIDTH 1440 0
DWIDTH 24 0
BBX 24 24 0 -3
BITMAP
000000
000000
1FF800
060600
060180
0600C0
060060
060060
060030
060030
060030
3FF030
060030
060030
060030
060060
060060
0600C0
060180
060600
1FF800
000000
000000
000000
ENDCHAR
STARTCHAR 00D1
ENCODING 209
SWIDTH 1440 0
DWIDTH 24 0
BBX 24 24 0 -3
BITMAP
007080
009900
010E00
000000
1E00F8
070020
078020
05C020
04C020
046020
047020
043820
041C20
040C20
040620
040720
0403A0
0401E0
0400E0
040060
1F0020
000000
000000
000000
ENDCHAR
STARTCHAR 00D2
ENCODING 210
SWIDTH 1440 0
DWIDTH 24 0
BBX 24 24 0 -3
BITMAP
007800
001C00
000600
000100
007E00
018180
0300C0
060060
0C0030
0C0030
180018
180018
180018
180018
180018
0C0030
0C0030
060060
0300C0
018180
007E00
000000
000000
000000
ENDCHAR
STARTCHAR 00D3
ENCODING 211
SWIDTH 1440 0
DWIDTH 24 0
BBX 24 24 0 -3
BITMAP
001E00
003800
006000
008000
007E00
018180
0300C0
060060
0C0030
0C0030
180018
180018
180018
180018
180018
0C0030
0C0030
060060
0300C0
018180
007E00
000000
000000
000000
ENDCHAR
STARTCHAR 00D4
ENCODING 212
SWIDTH 1440 0
DWIDTH 24 0
BBX 24 24 0 -3
BITMAP
001000
003800
006C00
008200
007E00
018180
0300C0
060060
0C0030
0C0030
180018
180018
180018
180018
180018
0C0030
0C0030
060060
0300C0
018180
007E00
000000
000000
000000
ENDCHAR
STARTCHAR 00D5
ENCODING 213
SWIDTH 1440 0
DWIDTH 24 0
BBX 24 24 0 -3
BITMAP
007080
009900
010E00
000000
007E00
018180
0300C0
060060
0C0030
0C0030
180018
180018
180018
180018
180018
0C0030
0C0030
060060
0300C0
018180
007E00
000000
000000
000000
ENDCHAR
STARTCHAR 00D6
ENCODING 214
SWIDTH 1440 0
DWIDTH 24 0
BBX 24 24 0 -3
BITMAP
000000
006600
006600
000000
007E00
018180
0300C0
060060
0C0030
0C0030
180018
180018
180018
180018
180018
0C0030
0C0030
060060
0300C0
018180
007E00
000000
000000
000000
ENDCHAR
STARTCHAR 00D7
ENCODING 215
SWIDTH 1440 0
DWIDTH 24 0
BBX 24 24 0 -3
BITMAP
000000
000000
000000
000000
080010
040020
020040
010080
008100
004200
002400
001800
001800
002400
004200
008100
010080
020040
040020
080010
000000
000000
000000
000000
ENDCHAR
STARTCHAR 00D8
ENCODING 216
SWIDTH 1440 0
DWIDTH 24 0
BBX 24 24 0 -3
BITMAP
000000
000000
007E04
018188
0300D0
060060
0C0070
0C00B0
180118
180218
180418
180818
181018
182018
184018
0C8030
0D0030
060060
0700C0
098180
107E00
000000
000000
000000
ENDCHAR
STARTCHAR 00D9
ENCODING 217
SWIDTH 1440 0
DWIDTH 24 0
BBX 24 24 0 -3
BITMAP
007800
001C00
000200
000100
1F80F8
060020
060020
060020
060020
060020
060020
060020
060020
060020
060020
060020
060020
030040
030040
01C180
007E00
000000
000000
000000
ENDCHAR
STARTCHAR 00DA
ENCODING 218
SWIDTH 1440 0
DWIDTH 24 0
BBX 24 24 0 -3
BITMAP
000F00
001C00
003000
004000
1F80F8
060020
060020
060020
060020
060020
060020
060020
060020
060020
060020
060020
060020
030040
030040
01C180
007E00
000000
000000
000000
ENDCHAR
STARTCHAR 00DB
ENCODING 219
SWIDTH 1440 0
DWIDTH 24 0
BBX 24 24 0 -3
BITMAP
000800
001C00
003600
004100
1F80F8
060020
060020
060020
060020
060020
060020
060020
060020
060020
060020
060020
060020
030040
030040
01C180
007E00
000000
000000
000000
ENDCHAR
STARTCHAR 00DC
ENCODING 220
SWIDTH 1440 0
DWIDTH 24 0
BBX 24 24 0 -3
BITMAP
000000
006600
006600
000000
1F80F8
060020
060020
060020
060020
060020
060020
060020
060020
060020
060020
060020
060020
030040
030040
01C180
007E00
000000
000000
000000
ENDCHAR
STARTCHAR 00DD
ENCODING 221
SWIDTH 1440 0
DWIDTH 24 0
BBX 24 24 0 -3
BITMAP
000F00
001C00
003000
004000
3F80FC
0E0030
060020
030040
018080
00C100
006200
003400
001800
001800
001800
001800
001800
001800
001800
001800
007E00
000000
000000
000000
ENDCHAR
STARTCHAR 00DE
ENCODING 222
SWIDTH 1440 0
DWIDTH 24 0
BBX 24 24 0 -3
BITMAP
000000
000000
07E000
018000
018000
018000
01FE00
018180
0180C0
018060
018060
018060
018060
0180C0
018180
01FE00
018000
018000
018000
018000
07E000
000000
000000
000000
ENDCHAR
STARTCHAR 00DF
ENCODING 223
SWIDTH 1440 0
DWIDTH 24 0
BBX 24 24 0 -3
BITMAP
000000
000000
001C00
006300
00C180
0180C0
0180C0
0180C0
018180
018300
019E00
018180
0180C0
018060
018060
018060
018060
018060
01B0E0
01B1C0
079F80
000000
000000
000000
ENDCHAR
STARTCHAR 00E0
ENCODING 224
SWIDTH 1440 0
DWIDTH 24 0
BBX 24 24 0 -3
BITMAP
000000
000000
000000
00F000
003800
000C00
000200
000000
00FC00
038300
030180
000180
000180
001F80
00E180
030180
060180
060180
060190
030790
00F8E0
000000
000000
000000
ENDCHAR
STARTCHAR 00E1
ENCODING 225
SWIDTH 1440 0
DWIDTH 24 0
BBX 24 24 0 -3
BITMAP
000000
000000
000000
003C00
007000
00C000
010000
000000
00FC00
038300
030180
000180
000180
001F80
00E180
030180
060180
060180
060190
030790
00F8E0
000000
000000
000000
ENDCHAR
STARTCHAR 00E2
ENCODING 226
SWIDTH 1440 0
DWIDTH 24 0
BBX 24 24 0 -3
BITMAP
000000
000000
000000
001000
003800
006C00
008200
000000
00FC00
038300
030180
000180
000180
001F80
00E180
030180
060180
060180
060190
030790
00F8E0
000000
000000
000000
ENDCHAR
STARTCHAR 00E3
ENCODING 227
SWIDTH 1440 0
DWIDTH 24 0
BBX 24 24 0 -3
BITMAP
000000
000000
000000
00E100
013200
021C00
000000
000000
00FC00
038300
030180
000180
000180
001F80
00E180
030180
060180
060180
060190
030790
00F8E0
000000
000000
000000
ENDCHAR
STARTCHAR 00E4
ENCODING 228
SWIDTH 1440 0
DWIDTH 24 0
BBX 24 24 0 -3
BITMAP
000000
000000
000000
000000
00CC00
00CC00
000000
000000
00FC00
038300
030180
000180
000180
001F80
00E180
030180
060180
060180
060190
030790
00F8E0
000000
000000
000000
ENDCHAR
STARTCHAR 00E5
ENCODING 229
SWIDTH 1440 0
DWIDTH 24 0
BBX 24 24 0 -3
BITMAP
000000
000000
000000
003000
004800
004800
003000
000000
00FC00
038300
030180
000180
000180
001F80
00E180
030180
060180
060180
060190
030790
00F8E0
000000
000000
000000
ENDCHAR
STARTCHAR 00E6
ENCODING 230
SWIDTH 1440 0
DWIDTH 24 0
BBX 24 24 0 -3
BITMAP
000000
000000
000000
000000
000000
000000
000000
000000
07C1C0
1C3630
181C18
001818
00180C
01FFFC
061800
181800
301800
301800
301C04
186618
0781E0
000000
000000
000000
ENDCHAR
STARTCHAR 00E7
ENCODING 231
SWIDTH 1440 0
DWIDTH 24 0
BBX 24 24 0 -3
BITMAP
000000
000000
000000
000000
000000
000000
000000
000000
003E00
00C180
0180C0
0180C0
030000
030000
030000
030000
018000
018040
00C180
003E00
001000
003C00
000E00
007C00
ENDCHAR
STARTCHAR 00E8
ENCODING 232
SWIDTH 1440 0
DWIDTH 24 0
BBX 24 24 0 -3
BITMAP
000000
000000
000000
007800
001C00
000600
000100
000000
003C00
00C300
018180
030180
0300C0
07FFC0
060000
060000
030000
030000
018040
00C180
003E00
000000
000000
000000
ENDCHAR
STARTCHAR 00E9
ENCODING 233
SWIDTH 1440 0
DWIDTH 24 0
BBX 24 24 0 -3
BITMAP
000000
000000
000000
001E00
003800
006000
008000
000000
003C00
00C300
018180
030180
0300C0
07FFC0
060000
060000
030000
030000
018040
00C180
003E00
000000
000000
000000
ENDCHAR
STARTCHAR 00EA
ENCODING 234
SWIDTH 1440 0
DWIDTH 24 0
BBX 24 24 0 -3
BITMAP
000000
000000
000000
001000
003800
006C00
008200
000000
003C00
00C300
018180
030180
0300C0
07FFC0
060000
060000
030000
030000
018040
00C180
003E00
000000
000000
000000
ENDCHAR
STARTCHAR 00EB
ENCODING 235
SWIDTH 1440 0
DWIDTH 24 0
BBX 24 24 0 -3
BITMAP
000000
000000
000000
000000
006600
006600
000000
000000
003C00
00C300
018180
030180
0300C0
07FFC0
060000
060000
030000
030000
018040
00C180
003E00
000000
000000
000000
ENDCHAR
STARTCHAR 00EC
ENCODING 236
SWIDTH 1440 0
DWIDTH 24 0
BBX 24 24 0 -3
BITMAP
000000
000000
000000
00F000
003800
000C00
000200
000000
00F800
001800
001800
001800
001800
001800
001800
001800
001800
001800
001800
001800
00FF00
000000
000000
000000
ENDCHAR
STARTCHAR 00ED
ENCODING 237
SWIDTH 1440 0
DWIDTH 24 0
BBX 24 24 0 -3
BITMAP
000000
000000
000000
001E00
003800
006000
008000
000000
00F800
001800
001800
001800
001800
001800
001800
001800
001800
001800
001800
001800
00FF00
000000
000000
000000
ENDCHAR
STARTCHAR 00EE
ENCODING 238
SWIDTH 1440 0
DWIDTH 24 0
BBX 24 24 0 -3
BITMAP
000000
000000
000000
001000
003800
006C00
008200
000000
00F800
001800
001800
001800
001800
001800
001800
001800
001800
001800
001800
001800
00FF00
000000
000000
000000
ENDCHAR
STARTCHAR 00EF
ENCODING 239
SWIDTH 1440 0
DWIDTH 24 0
BBX 24 24 0 -3
BITMAP
000000
000000
000000
000000
006600
006600
000000
000000
00F800
001800
001800
001800
001800
001800
001800
001800
001800
001800
001800
001800
00FF00
000000
000000
000000
ENDCHAR
STARTCHAR 00F0
ENCODING 240
SWIDTH 1440 0
DWIDTH 24 0
BBX 24 24 0 -3
BITMAP
000000
000000
007180
000E00
001A00
006300
000180
000180
0038C0
00C6C0
0183C0
0181C0
0301C0
0300C0
0300C0
0300C0
0300C0
018180
018180
00C300
003C00
000000
000000
000000
ENDCHAR
STARTCHAR 00F1
ENCODING 241
SWIDTH 1440 0
DWIDTH 24 0
BBX 24 24 0 -3
BITMAP
000000
000000
000000
007080
009900
010E00
000000
000000
019E00
07E180
0180C0
0180C0
0180C0
0180C0
0180C0
0180C0
0180C0
0180C0
0180C0
0180C0
07E3F0
000000
000000
000000
ENDCHAR
STARTCHAR 00F2
ENCODING 242
SWIDTH 1440 0
DWIDTH 24 0
BBX 24 24 0 -3
BITMAP
000000
000000
000000
007800
001C00
000600
000100
000000
003C00
00C300
018180
0300C0
0300C0
060060
060060
060060
0300C0
0300C0
018180
00C300
003C00
000000
000000
000000
ENDCHAR
STARTCHAR 00F3
ENCODING 243
SWIDTH 1440 0
DWIDTH 24 0
BBX 24 24 0 -3
BITMAP
000000
000000
000000
001E00
003800
006000
008000
000000
003C00
00C300
018180
0300C0
0300C0
060060
060060
060060
0300C0
0300C0
018180
00C300
003C00
000000
000000
000000
ENDCHAR
STARTCHAR 00F4
ENCODING 244
SWIDTH 1440 0
DWIDTH 24 0
BBX 24 24 0 -3
BITMAP
000000
000000
000000
001000
003800
006C00
008200
000000
003C00
00C300
018180
0300C0
0300C0
060060
060060
060060
0300C0
0300C0
018180
00C300
003C00
000000
000000
000000
ENDCHAR
STARTCHAR 00F5
ENCODING 245
SWIDTH 1440 0
DWIDTH 24 0
BBX 24 24 0 -3
BITMAP
000000
000000
000000
007080
009900
010E00
000000
000000
003C00
00C300
018180
0300C0
0300C0
060060
060060
060060
0300C0
0300C0
018180
00C300
003C00
000000
000000
000000
ENDCHAR
STARTCHAR 00F6
ENCODING 246
SWIDTH 1440 0
DWIDTH 24 0
BBX 24 24 0 -3
BITMAP
000000
000000
000000
000000
006600
006600
000000
000000
003C00
00C300
018180
0300C0
0300C0
060060
060060
060060
0300C0
0300C0
018180
00C300
003C00
000000
000000
000000
ENDCHAR
STARTCHAR 00F7
ENCODING 247
SWIDTH 1440 0
DWIDTH 24 0
BBX 24 24 0 -3
BITMAP
000000
000000
000000
000000
003800
003800
003800
000000
000000
000000
000000
1FFFF8
000000
000000
000000
000000
003800
003800
003800
000000
000000
000000
000000
000000
ENDCHAR
STARTCHAR 00F8
ENCODING 248
SWIDTH 1440 0
DWIDTH 24 0
BBX 24 24 0 -3
BITMAP
000000
000000
000000
000000
000000
000000
000000
000000
003C20
00C340
018180
0301C0
0302C0
060460
060860
061060
0320C0
0340C0
018180
02C300
043C00
000000
000000
000000
ENDCHAR
STARTCHAR 00F9
ENCODING 249
SWIDTH 1440 0
DWIDTH 24 0
BBX 24 24 0 -3
BITMAP
000000
000000
000000
01E000
007000
001800
000400
000000
030180
0F0780
030180
030180
030180
030180
030180
030180
030180
030180
030180
018780
0079E0
000000
000000
000000
ENDCHAR
STARTCHAR 00FA
ENCODING 250
SWIDTH 1440 0
DWIDTH 24 0
BBX 24 24 0 -3
BITMAP
000000
000000
000000
001E00
003800
006000
008000
000000
030180
0F0780
030180
030180
030180
030180
030180
030180
030180
030180
030180
018780
0079E0
000000
000000
000000
ENDCHAR
STARTCHAR 00FB
ENCODING 251
SWIDTH 1440 0
DWIDTH 24 0
BBX 24 24 0 -3
BITMAP
000000
000000
000000
001000
003800
006C00
008200
000000
030180
0F0780
030180
030180
030180
030180
030180
030180
030180
030180
030180
018780
0079E0
000000
000000
000000
ENDCHAR
STARTCHAR 00FC
ENCODING 252
SWIDTH 1440 0
DWIDTH 24 0
BBX 24 24 0 -3
BITMAP
000000
000000
000000
000000
00CC00
00CC00
000000
000000
030180
0F0780
030180
030180
030180
030180
030180
030180
030180
030180
030180
018780
0079E0
000000
000000
000000
ENDCHAR
STARTCHAR 00FD
ENCODING 253
SWIDTH 1440 0
DWIDTH 24 0
BBX 24 24 0 -3
BITMAP
000000
000000
000000
000780
000E00
001800
002000
000000
07E1F0
018040
018080
00C080
00C100
006100
006200
003200
003400
001C00
000800
001000
001000
0C2000
0C4000
078000
ENDCHAR
STARTCHAR 00FE
ENCODING 254
SWIDTH 1440 0
DWIDTH 24 0
BBX 24 24 0 -3
BITMAP
000000
000000
030000
0F0000
030000
030000
030000
030000
031E00
036180
0380C0
0300C0
030060
030060
030060
0300C0
0300C0
03C180
033E00
030000
030000
030000
030000
0FC000
ENDCHAR
STARTCHAR 00FF
ENCODING 255
SWIDTH 1440 0
DWIDTH 24 0
BBX 24 24 0 -3
BITMAP
000000
000000
000000
000000
003300
003300
000000
000000
07E1F0
018040
018080
00C080
00C100
006100
006200
003200
003400
001C00
000800
001000
001000
0C2000
0C4000
078000
ENDCHAR
STARTCHAR 0100
ENCODING 256
SWIDTH 1440 0
DWIDTH 24 0
BBX 24 24 0 -3
BITMAP
000000
00FF00
000000
000000
001000
001800
003800
002C00
002C00
004600
004600
008300
008300
010180
01FF80
0200C0
0200C0
040060
040060
0C0070
3F01FC
000000
000000
000000
ENDCHAR
STARTCHAR 0101
ENCODING 257
SWIDTH 1440 0
DWIDTH 24 0
BBX 24 24 0 -3
BITMAP
000000
000000
000000
000000
000000
01FF00
000000
000000
00FC00
038300
030180
000180
000180
001F80
00E180
030180
060180
060180
060190
030790
00F8E0
000000
000000
000000
ENDCHAR
STARTCHAR 0102
ENCODING 258
SWIDTH 1440 0
DWIDTH 24 0
BBX 24 24 0 -3
BITMAP
00C300
007E00
003C00
000000
001000
001800
003800
002C00
002C00
004600
004600
008300
008300
010180
01FF80
0200C0
0200C0
040060
040060
0C0070
3F01FC
000000
000000
000000
ENDCHAR
STARTCHAR 0103
ENCODING 259
SWIDTH 1440 0
DWIDTH 24 0
BBX 24 24 0 -3
BITMAP
000000
000000
000000
000000
018600
00FC00
007800
000000
00FC00
038300
030180
000180
000180
001F80
00E180
030180
060180
060180
060190
030790
00F8E0
000000
000000
000000
ENDCHAR
STARTCHAR 0104
ENCODING 260
SWIDTH 1440 0
DWIDTH 24 0
BBX 24 24 0 -3
BITMAP
000000
000000
001000
001800
003800
002C00
002C00
004600
004600
004600
008300
008300
010180
010180
01FF80
0200C0
0200C0
040060
040060
0C0070
3F01FC
000018
000032
00001C
ENDCHAR
STARTCHAR 0105
ENCODING 261
SWIDTH 1440 0
DWIDTH 24 0
BBX 24 24 0 -3
BITMAP
000000
000000
000000
000000
000000
000000
000000
000000
00FC00
038300
030180
000180
000180
001F80
00E180
030180
060180
060180
060190
030790
00F8E0
0001C0
000190
0000E0
ENDCHAR
STARTCHAR 0106
ENCODING 262
SWIDTH 1440 0
DWIDTH 24 0
BBX 24 24 0 -3
BITMAP
001E00
003800
006000
008000
003C00
00C320
0300E0
060060
0C0020
0C0020
180000
180000
180000
180000
180000
0C0000
0C0010
060020
030040
00C180
003E00
000000
000000
000000
ENDCHAR
STARTCHAR 0107
ENCODING 263
SWIDTH 1440 0
DWIDTH 24 0
BBX 24 24 0 -3
BITMAP
000000
000000
000000
000000
001E00
003800
006000
008000
003E00
00C180
0180C0
0300C0
030000
060000
060000
060000
030000
030000
018040
00C180
003E00
000000
000000
000000
ENDCHAR
STARTCHAR 0108
ENCODING 264
SWIDTH 1440 0
DWIDTH 24 0
BBX 24 24 0 -3
BITMAP
001000
003800
006C00
008200
003C00
00C320
0300E0
060060
0C0020
0C0020
180000
180000
180000
180000
180000
0C0000
0C0010
060020
030040
00C180
003E00
000000
000000
000000
ENDCHAR
STARTCHAR 0109
ENCODING 265
SWIDTH 1440 0
DWIDTH 24 0
BBX 24 24 0 -3
BITMAP
000000
000000
000000
001000
003800
006C00
008200
000000
003E00
00C180
0180C0
0300C0
030000
060000
060000
060000
030000
030000
018040
00C180
003E00
000000
000000
000000
ENDCHAR
STARTCHAR 010C
ENCODING 268
SWIDTH 1440 0
DWIDTH 24 0
BBX 24 24 0 -3
BITMAP
008200
006C00
003800
001000
003C00
00C320
0300E0
060060
0C0020
0C0020
180000
180000
180000
180000
180000
0C0000
0C0010
060020
030040
00C180
003E00
000000
000000
000000
ENDCHAR
STARTCHAR 010D
ENCODING 269
SWIDTH 1440 0
DWIDTH 24 0
BBX 24 24 0 -3
BITMAP
000000
000000
000000
000000
008200
006C00
003800
001000
003E00
00C180
0180C0
0300C0
030000
060000
060000
060000
030000
030000
018040
00C180
003E00
000000
000000
000000
ENDCHAR
STARTCHAR 010E
ENCODING 270
SWIDTH 1440 0
DWIDTH 24 0
BBX 24 24 0 -3
BITMAP
010400
00D800
007000
002000
1FF800
060600
060180
0600C0
060060
060060
060030
060030
060030
060030
060030
060060
060060
0600C0
060180
060600
1FF800
000000
000000
000000
ENDCHAR
STARTCHAR 010F
ENCODING 271
SWIDTH 1440 0
DWIDTH 24 0
BBX 24 24 0 -3
BITMAP
008200
006C00
0038C0
0013C0
0000C0
0000C0
0000C0
0000C0
0078C0
0186C0
0301C0
0300C0
0600C0
0600C0
0600C0
0600C0
0600C0
0300C0
0300C0
0183C0
007CF0
000000
000000
000000
ENDCHAR
STARTCHAR 0111
ENCODING 273
SWIDTH 1440 0
DWIDTH 24 0
BBX 24 24 0 -3
BITMAP
000000
000000
0000C0
0003C0
0000C0
0000C0
001FF8
0000C0
0078C0
0186C0
0301C0
0300C0
0600C0
0600C0
0600C0
0600C0
0600C0
0300C0
0300C0
0183C0
007CF0
000000
000000
000000
ENDCHAR
STARTCHAR 0112
ENCODING 274
SWIDTH 1440 0
DWIDTH 24 0
BBX 24 24 0 -3
BITMAP
000000
01FF00
000000
000000
1FFFC0
0600C0
060040
060020
060020
060200
060200
060600
07FE00
060600
060200
060200
060010
060010
060020
060060
1FFFE0
000000
000000
000000
ENDCHAR
STARTCHAR 0113
ENCODING 275
SWIDTH 1440 0
DWIDTH 24 0
BBX 24 24 0 -3
BITMAP
000000
000000
000000
000000
000000
00FF00
000000
000000
003C00
00C300
018180
030180
0300C0
07FFC0
060000
060000
030000
030000
018040
00C180
003E00
000000
000000
000000
ENDCHAR
STARTCHAR 0118
ENCODING 280
SWIDTH 1440 0
DWIDTH 24 0
BBX 24 24 0 -3
BITMAP
000000
000000
1FFFC0
0600C0
060040
060020
060020
060000
060200
060200
060600
07FE00
060600
060200
060200
060000
060010
060010
060020
060060
1FFFE0
000180
000310
0001E0
ENDCHAR
STARTCHAR 0119
ENCODING 281
SWIDTH 1440 0
DWIDTH 24 0
BBX 24 24 0 -3
BITMAP
000000
000000
000000
000000
000000
000000
000000
000000
003C00
00C300
018180
030180
0300C0
07FFC0
060000
060000
030000
030000
018040
00C180
003E00
000C00
001880
000F00
ENDCHAR
STARTCHAR 011A
ENCODING 282
SWIDTH 1440 0
DWIDTH 24 0
BBX 24 24 0 -3
BITMAP
008200
006C00
003800
001000
1FFFC0
0600C0
060040
060020
060020
060200
060200
060600
07FE00
060600
060200
060200
060010
060010
060020
060060
1FFFE0
000000
000000
000000
ENDCHAR
STARTCHAR 011B
ENCODING 283
SWIDTH 1440 0
DWIDTH 24 0
BBX 24 24 0 -3
BITMAP
000000
000000
000000
000000
008200
006C00
003800
001000
003C00
00C300
018180
030180
0300C0
07FFC0
060000
060000
030000
030000
018040
00C180
003E00
000000
000000
000000
ENDCHAR
STARTCHAR 011C
ENCODING 284
SWIDTH 1440 0
DWIDTH 24 0
BBX 24 24 0 -3
BITMAP
001000
003800
006C00
008200
003C00
00C320
0300E0
060060
0C0020
0C0020
180000
180000
1803FC
180060
180060
0C0060
0C0060
060060
0300E0
00C320
003C20
000000
000000
000000
ENDCHAR
STARTCHAR 011D
ENCODING 285
SWIDTH 1440 0
DWIDTH 24 0
BBX 24 24 0 -3
BITMAP
000000
000000
000000
001000
003800
006C00
008200
000060
007CF0
018330
030180
030180
030180
018300
007C00
008000
018000
00FF00
013FC0
0200E0
060060
060060
0300C0
00FF00
ENDCHAR
STARTCHAR 0124
ENCODING 292
SWIDTH 1440 0
DWIDTH 24 0
BBX 24 24 0 -3
BITMAP
001000
003800
006C00
008200
000000
1F81F8
060060
060060
060060
060060
060060
060060
07FFE0
060060
060060
060060
060060
060060
060060
060060
1F81F8
000000
000000
000000
ENDCHAR
STARTCHAR 0125
ENCODING 293
SWIDTH 1440 0
DWIDTH 24 0
BBX 24 24 0 -3
BITMAP
001000
003800
006C00
008200
030000
0F0000
030000
030000
031E00
036180
0380C0
0300C0
0300C0
0300C0
0300C0
0300C0
0300C0
0300C0
0300C0
0300C0
0FC3F0
000000
000000
000000
ENDCHAR
STARTCHAR 0127
ENCODING 295
SWIDTH 1440 0
DWIDTH 24 0
BBX 24 24 0 -3
BITMAP
000000
000000
030000
0F0000
030000
030000
1FFC00
030000
030000
031E00
036180
0380C0
0300C0
0300C0
0300C0
0300C0
0300C0
0300C0
0300C0
0300C0
0FC3F0
000000
000000
000000
ENDCHAR
STARTCHAR 012A
ENCODING 298
SWIDTH 1440 0
DWIDTH 24 0
BBX 24 24 0 -3
BITMAP
000000
00FF00
000000
000000
00FF00
001800
001800
001800
001800
001800
001800
001800
001800
001800
001800
001800
001800
001800
001800
001800
00FF00
000000
000000
000000
ENDCHAR
STARTCHAR 012B
ENCODING 299
SWIDTH 1440 0
DWIDTH 24 0
BBX 24 24 0 -3
BITMAP
000000
000000
000000
000000
000000
01FF00
000000
000000
00F800
001800
001800
001800
001800
001800
001800
001800
001800
001800
001800
001800
00FF00
000000
000000
000000
ENDCHAR
STARTCHAR 0134
ENCODING 308
SWIDTH 1440 0
DWIDTH 24 0
BBX 24 24 0 -3
BITMAP
000200
000700
000D80
001040
000000
001FE0
000300
000300
000300
000300
000300
000300
000300
000300
000300
030300
070300
060600
060600
030C00
00F000
000000
000000
000000
ENDCHAR
STARTCHAR 0135
ENCODING 309
SWIDTH 1440 0
DWIDTH 24 0
BBX 24 24 0 -3
BITMAP
000000
000000
000000
000400
000E00
001B00
002080
000000
001E00
000600
000600
000600
000600
000600
000600
000600
000600
000600
000600
000600
000C00
060C00
061800
03E000
ENDCHAR
STARTCHAR 0139
ENCODING 313
SWIDTH 1440 0
DWIDTH 24 0
BBX 24 24 0 -3
BITMAP
000F00
001C00
003000
004000
0FC000
030000
030000
030000
030000
030000
030000
030000
030000
030000
030000
030000
030008
030008
030010
030030
0FFFF0
000000
000000
000000
ENDCHAR
STARTCHAR 013A
ENCODING 314
SWIDTH 1440 0
DWIDTH 24 0
BBX 24 24 0 -3
BITMAP
001E00
003800
006000
008000
001800
007800
001800
001800
001800
001800
001800
001800
001800
001800
001800
001800
001800
001800
001800
001800
007E00
000000
000000
000000
ENDCHAR
STARTCHAR 013D
ENCODING 317
SWIDTH 1440 0
DWIDTH 24 0
BBX 24 24 0 -3
BITMAP
008200
006C00
003800
001000
0FC000
030000
030000
030000
030000
030000
030000
030000
030000
030000
030000
030000
030008
030008
030010
030030
0FFFF0
000000
000000
000000
ENDCHAR
STARTCHAR 013E
ENCODING 318
SWIDTH 1440 0
DWIDTH 24 0
BBX 24 24 0 -3
BITMAP
008200
006C00
003800
001000
000000
007800
001800
001800
001800
001800
001800
001800
001800
001800
001800
001800
001800
001800
001800
001800
007E00
000000
000000
000000
ENDCHAR
STARTCHAR 0141
ENCODING 321
SWIDTH 1440 0
DWIDTH 24 0
BBX 24 24 0 -3
BITMAP
000000
000000
0FC000
030000
030000
030000
030000
030000
030C00
033000
03C000
030000
0F0000
330000
030000
030000
030008
030008
030010
030030
0FFFF0
000000
000000
000000
ENDCHAR
STARTCHAR 0142
ENCODING 322
SWIDTH 1440 0
DWIDTH 24 0
BBX 24 24 0 -3
BITMAP
000000
000000
001800
007800
001800
001800
001800
001800
001800
001980
001E00
007800
019800
001800
001800
001800
001800
001800
001800
001800
007E00
000000
000000
000000
ENDCHAR
STARTCHAR 0143
ENCODING 323
SWIDTH 1440 0
DWIDTH 24 0
BBX 24 24 0 -3
BITMAP
001E00
003800
006000
008000
1E00F8
070020
078020
05C020
04C020
046020
047020
043820
041C20
040C20
040620
040720
0403A0
0401E0
0400E0
040060
1F0020
000000
000000
000000
ENDCHAR
STARTCHAR 0144
ENCODING 324
SWIDTH 1440 0
DWIDTH 24 0
BBX 24 24 0 -3
BITMAP
000000
000000
000000
000000
000F00
001C00
003000
004000
019E00
07E180
0180C0
0180C0
0180C0
0180C0
0180C0
0180C0
0180C0
0180C0
0180C0
0180C0
07E3F0
000000
000000
000000
ENDCHAR
STARTCHAR 0147
ENCODING 327
SWIDTH 1440 0
DWIDTH 24 0
BBX 24 24 0 -3
BITMAP
008200
006C00
003800
001000
1E00F8
070020
078020
05C020
04C020
046020
047020
043820
041C20
040C20
040620
040720
0403A0
0401E0
0400E0
040060
1F0020
000000
000000
000000
ENDCHAR
STARTCHAR 0148
ENCODING 328
SWIDTH 1440 0
DWIDTH 24 0
BBX 24 24 0 -3
BITMAP
000000
000000
000000
000000
004100
003600
001C00
000800
019E00
07E180
0180C0
0180C0
0180C0
0180C0
0180C0
0180C0
0180C0
0180C0
0180C0
0180C0
07E3F0
000000
000000
000000
ENDCHAR
STARTCHAR 014B
ENCODING 331
SWIDTH 1440 0
DWIDTH 24 0
BBX 24 24 0 -3
BITMAP
000000
000000
000000
000000
000000
000000
000000
000000
019E00
07E180
0180C0
0180C0
0180C0
0180C0
0180C0
0180C0
0180C0
0180C0
0180C0
0180C0
07E0C0
0000C0
001980
000F00
ENDCHAR
STARTCHAR 014C
ENCODING 332
SWIDTH 1440 0
DWIDTH 24 0
BBX 24 24 0 -3
BITMAP
000000
00FF00
000000
000000
007E00
018180
0300C0
060060
0C0030
0C0030
180018
180018
180018
180018
180018
0C0030
0C0030
060060
0300C0
018180
007E00
000000
000000
000000
ENDCHAR
STARTCHAR 014D
ENCODING 333
SWIDTH 1440 0
DWIDTH 24 0
BBX 24 24 0 -3
BITMAP
000000
000000
000000
000000
000000
00FF00
000000
000000
003C00
00C300
018180
0300C0
0300C0
060060
060060
060060
0300C0
0300C0
018180
00C300
003C00
000000
000000
000000
ENDCHAR
STARTCHAR 0150
ENCODING 336
SWIDTH 1440 0
DWIDTH 24 0
BBX 24 24 0 -3
BITMAP
0079E0
00E380
018600
020800
007E00
018180
0300C0
060060
0C0030
0C0030
180018
180018
180018
180018
180018
0C0030
0C0030
060060
0300C0
018180
007E00
000000
000000
000000
ENDCHAR
STARTCHAR 0151
ENCODING 337
SWIDTH 1440 0
DWIDTH 24 0
BBX 24 24 0 -3
BITMAP
000000
000000
000000
000000
0079E0
00E380
018600
020800
003C00
00C300
018180
0300C0
0300C0
060060
060060
060060
0300C0
0300C0
018180
00C300
003C00
000000
000000
000000
ENDCHAR
STARTCHAR 0152
ENCODING 338
SWIDTH 1440 0
DWIDTH 24 0
BBX 24 24 0 -3
BITMAP
000000
000000
01FFFC
061C0C
0C0C04
180C00
300C00
300C00
600C08
600C08
600C18
600FF8
600C18
600C08
600C08
300C00
300C00
180C00
0C0C02
061C06
01FFFE
000000
000000
000000
ENDCHAR
STARTCHAR 0153
ENCODING 339
SWIDTH 1440 0
DWIDTH 24 0
BBX 24 24 0 -3
BITMAP
000000
000000
000000
000000
000000
000000
000000
000000
0381C0
0C6630
183C18
183818
30180C
301FFC
301800
301800
301800
183800
183C04
0C6618
0381E0
000000
000000
000000
ENDCHAR
STARTCHAR 0154
ENCODING 340
SWIDTH 1440 0
DWIDTH 24 0
BBX 24 24 0 -3
BITMAP
001E00
003800
006000
008000
1FFE00
060180
0600C0
060060
060060
060060
0600C0
060300
07FC00
060200
060100
060180
060180
060180
060184
0601C8
1F80F0
000000
000000
000000
ENDCHAR
STARTCHAR 0155
ENCODING 341
SWIDTH 1440 0
DWIDTH 24 0
BBX 24 24 0 -3
BITMAP
000000
000000
000000
000F00
001C00
003000
004000
000000
00C1C0
03C7E0
00CC60
00D000
00E000
00C000
00C000
00C000
00C000
00C000
00C000
00C000
03F000
000000
000000
000000
ENDCHAR
STARTCHAR 0158
ENCODING 344
SWIDTH 1440 0
DWIDTH 24 0
BBX 24 24 0 -3
BITMAP
010400
00D800
007000
002000
1FFE00
060180
0600C0
060060
060060
060060
0600C0
060300
07FC00
060200
060100
060180
060180
060180
060184
0601C8
1F80F0
000000
000000
000000
ENDCHAR
STARTCHAR 0159
ENCODING 345
SWIDTH 1440 0
DWIDTH 24 0
BBX 24 24 0 -3
BITMAP
000000
000000
000000
000000
008200
006C00
003800
001000
00C1C0
03C7E0
00CC60
00D000
00E000
00C000
00C000
00C000
00C000
00C000
00C000
00C000
03F000
000000
000000
000000
ENDCHAR
STARTCHAR 015A
ENCODING 346
SWIDTH 1440 0
DWIDTH 24 0
BBX 24 24 0 -3
BITMAP
001E00
003800
006000
008000
007C20
0183E0
0300E0
060060
060020
070020
03C000
00F800
003F00
0007C0
0000E0
040070
040030
060030
070060
07C0C0
043F00
000000
000000
000000
ENDCHAR
STARTCHAR 015B
ENCODING 347
SWIDTH 1440 0
DWIDTH 24 0
BBX 24 24 0 -3
BITMAP
000000
000000
000000
000000
001E00
003800
006000
008000
007C80
018380
030180
030080
038000
01F800
007F00
000780
0001C0
0200C0
0300C0
038180
027E00
000000
000000
000000
ENDCHAR
STARTCHAR 015C
ENCODING 348
SWIDTH 1440 0
DWIDTH 24 0
BBX 24 24 0 -3
BITMAP
001000
003800
006C00
008200
007C20
0183E0
0300E0
060060
060020
070020
03C000
00F800
003F00
0007C0
0000E0
040070
040030
060030
070060
07C0C0
043F00
000000
000000
000000
ENDCHAR
STARTCHAR 015D
ENCODING 349
SWIDTH 1440 0
DWIDTH 24 0
BBX 24 24 0 -3
BITMAP
000000
000000
000000
001000
003800
006C00
008200
000000
007C80
018380
030180
030080
038000
01F800
007F00
000780
0001C0
0200C0
0300C0
038180
027E00
000000
000000
000000
ENDCHAR
STARTCHAR 015E
ENCODING 350
SWIDTH 1440 0
DWIDTH 24 0
BBX 24 24 0 -3
BITMAP
000000
000000
007C20
0183E0
0300E0
060060
060020
060020
070000
03C000
00F800
003F00
0007C0
0000E0
040070
040030
060030
070060
07C0C0
043F00
001000
003C00
000E00
007C00
ENDCHAR
STARTCHAR 015F
ENCODING 351
SWIDTH 1440 0
DWIDTH 24 0
BBX 24 24 0 -3
BITMAP
000000
000000
000000
000000
000000
000000
000000
000000
007C80
018380
030180
030080
038000
01FC00
007F80
0003C0
0200C0
0300C0
038180
027E00
001000
003C00
000E00
007C00
ENDCHAR
STARTCHAR 0160
ENCODING 352
SWIDTH 1440 0
DWIDTH 24 0
BBX 24 24 0 -3
BITMAP
008200
006C00
003800
001000
007C20
0183E0
0300E0
060060
060020
070020
03C000
00F800
003F00
0007C0
0000E0
040070
040030
060030
070060
07C0C0
043F00
000000
000000
000000
ENDCHAR
STARTCHAR 0161
ENCODING 353
SWIDTH 1440 0
DWIDTH 24 0
BBX 24 24 0 -3
BITMAP
000000
000000
000000
008200
006C00
003800
001000
000000
007C80
018380
030180
030080
038000
01F800
007F00
000780
0001C0
0200C0
0300C0
038180
027E00
000000
000000
000000
ENDCHAR
STARTCHAR 0162
ENCODING 354
SWIDTH 1440 0
DWIDTH 24 0
BBX 24 24 0 -3
BITMAP
000000
000000
1FFFF8
181818
101808
201804
201804
001800
001800
001800
001800
001800
001800
001800
001800
001800
001800
001800
001800
007E00
001000
003C00
000E00
007C00
ENDCHAR
STARTCHAR 0163
ENCODING 355
SWIDTH 1440 0
DWIDTH 24 0
BBX 24 24 0 -3
BITMAP
000000
000000
006000
006000
006000
006000
006000
006000
07FF00
006000
006000
006000
006000
006000
006000
006000
006040
006040
003080
001F00
000800
001E00
000700
003E00
ENDCHAR
STARTCHAR 0164
ENCODING 356
SWIDTH 1440 0
DWIDTH 24 0
BBX 24 24 0 -3
BITMAP
008200
006C00
003800
001000
1FFFF8
181818
101808
201804
201804
001800
001800
001800
001800
001800
001800
001800
001800
001800
001800
001800
007E00
000000
000000
000000
ENDCHAR
STARTCHAR 0165
ENCODING 357
SWIDTH 1440 0
DWIDTH 24 0
BBX 24 24 0 -3
BITMAP
010400
00D800
007000
002000
006000
006000
006000
006000
07FF00
006000
006000
006000
006000
006000
006000
006000
006000
006040
006040
003080
000F00
000000
000000
000000
ENDCHAR
STARTCHAR 016A
ENCODING 362
SWIDTH 1440 0
DWIDTH 24 0
BBX 24 24 0 -3
BITMAP
000000
00FF00
000000
000000
1F80F8
060020
060020
060020
060020
060020
060020
060020
060020
060020
060020
060020
060020
030040
030040
01C180
007E00
000000
000000
000000
ENDCHAR
STARTCHAR 016B
ENCODING 363
SWIDTH 1440 0
DWIDTH 24 0
BBX 24 24 0 -3
BITMAP
000000
000000
000000
000000
000000
00FF00
000000
000000
030180
0F0780
030180
030180
030180
030180
030180
030180
030180
030180
030180
018780
0079E0
000000
000000
000000
ENDCHAR
STARTCHAR 016C
ENCODING 364
SWIDTH 1440 0
DWIDTH 24 0
BBX 24 24 0 -3
BITMAP
00C300
007E00
003C00
000000
1F80F8
060020
060020
060020
060020
060020
060020
060020
060020
060020
060020
060020
060020
030040
030040
01C180
007E00
000000
000000
000000
ENDCHAR
STARTCHAR 016D
ENCODING 365
SWIDTH 1440 0
DWIDTH 24 0
BBX 24 24 0 -3
BITMAP
000000
000000
000000
000000
018600
00FC00
007800
000000
030180
0F0780
030180
030180
030180
030180
030180
030180
030180
030180
030180
018780
0079E0
000000
000000
000000
ENDCHAR
STARTCHAR 016E
ENCODING 366
SWIDTH 1440 0
DWIDTH 24 0
BBX 24 24 0 -3
BITMAP
001800
002400
002400
001800
1F80F8
060020
060020
060020
060020
060020
060020
060020
060020
060020
060020
060020
060020
030040
030040
01C180
007E00
000000
000000
000000
ENDCHAR
STARTCHAR 016F
ENCODING 367
SWIDTH 1440 0
DWIDTH 24 0
BBX 24 24 0 -3
BITMAP
000000
000000
000000
003000
004800
004800
003000
000000
030180
0F0780
030180
030180
030180
030180
030180
030180
030180
030180
030180
018780
0079E0
000000
000000
000000
ENDCHAR
STARTCHAR 0170
ENCODING 368
SWIDTH 1440 0
DWIDTH 24 0
BBX 24 24 0 -3
BITMAP
0079E0
00E380
018600
020800
1F80F8
060020
060020
060020
060020
060020
060020
060020
060020
060020
060020
060020
060020
030040
030040
01C180
007E00
000000
000000
000000
ENDCHAR
STARTCHAR 0171
ENCODING 369
SWIDTH 1440 0
DWIDTH 24 0
BBX 24 24 0 -3
BITMAP
000000
000000
000000
0079E0
00E380
018600
020800
000000
030180
0F0780
030180
030180
030180
030180
030180
030180
030180
030180
030180
018780
0079E0
000000
000000
000000
ENDCHAR
STARTCHAR 0179
ENCODING 377
SWIDTH 1440 0
DWIDTH 24 0
BBX 24 24 0 -3
BITMAP
001E00
003800
006000
008000
07FFF0
0600E0
0401C0
080380
080700
000600
000C00
001C00
003800
007000
006000
00C000
01C010
038010
070020
0E0060
1FFFE0
000000
000000
000000
ENDCHAR
STARTCHAR 017A
ENCODING 378
SWIDTH 1440 0
DWIDTH 24 0
BBX 24 24 0 -3
BITMAP
000000
000000
000000
000000
001E00
003800
006000
008000
03FFC0
030380
020700
040600
000E00
001C00
003800
007000
006000
00E020
01C040
0380C0
07FFC0
000000
000000
000000
ENDCHAR
STARTCHAR 017B
ENCODING 379
SWIDTH 1440 0
DWIDTH 24 0
BBX 24 24 0 -3
BITMAP
000000
001800
001800
000000
07FFF0
0600E0
0401C0
080380
080700
000600
000C00
001C00
003800
007000
006000
00C000
01C010
038010
070020
0E0060
1FFFE0
000000
000000
000000
ENDCHAR
STARTCHAR 017C
ENCODING 380
SWIDTH 1440 0
DWIDTH 24 0
BBX 24 24 0 -3
BITMAP
000000
000000
000000
000000
001800
001800
000000
000000
03FFC0
030380
020700
040600
000E00
001C00
003800
007000
006000
00E020
01C040
0380C0
07FFC0
000000
000000
000000
ENDCHAR
STARTCHAR 017D
ENCODING 381
SWIDTH 1440 0
DWIDTH 24 0
BBX 24 24 0 -3
BITMAP
008200
006C00
003800
001000
07FFF0
0600E0
0401C0
080380
080700
000600
000C00
001C00
003800
007000
006000
00C000
01C010
038010
070020
0E0060
1FFFE0
000000
000000
000000
ENDCHAR
STARTCHAR 017E
ENCODING 382
SWIDTH 1440 0
DWIDTH 24 0
BBX 24 24 0 -3
BITMAP
000000
000000
000000
000000
008200
006C00
003800
001000
03FFC0
030380
020700
040600
000E00
001C00
003800
007000
006000
00E020
01C040
0380C0
07FFC0
000000
000000
000000
ENDCHAR
STARTCHAR 0193
ENCODING 403
SWIDTH 1440 0
DWIDTH 24 0
BBX 24 24 0 -3
BITMAP
00003C
000066
0000C6
0078C0
0186C0
0601C0
0C00C0
180040
180040
300000
300000
300000
3007F8
3000C0
3000C0
1800C0
1800C0
0C00C0
0601C0
018640
007840
000000
000000
000000
ENDCHAR
STARTCHAR 01C2
ENCODING 450
SWIDTH 1440 0
DWIDTH 24 0
BBX 24 24 0 -3
BITMAP
000000
000000
001800
001800
001800
001800
001800
001800
01FF80
001800
001800
001800
001800
001800
01FF80
001800
001800
001800
001800
001800
001800
000000
000000
000000
ENDCHAR
STARTCHAR 01CD
ENCODING 461
SWIDTH 1440 0
DWIDTH 24 0
BBX 24 24 0 -3
BITMAP
008200
006C00
003800
001000
000000
001800
003800
002C00
002C00
004600
004600
008300
008300
010180
01FF80
0200C0
0200C0
040060
040060
0C0070
3F01FC
000000
000000
000000
ENDCHAR
STARTCHAR 01CE
ENCODING 462
SWIDTH 1440 0
DWIDTH 24 0
BBX 24 24 0 -3
BITMAP
000000
000000
000000
008200
006C00
003800
001000
000000
00FC00
038300
030180
000180
000180
001F80
00E180
030180
060180
060180
060190
030790
00F8E0
000000
000000
000000
ENDCHAR
STARTCHAR 01D0
ENCODING 464
SWIDTH 1440 0
DWIDTH 24 0
BBX 24 24 0 -3
BITMAP
000000
000000
000000
008200
006C00
003800
001000
000000
00F800
001800
001800
001800
001800
001800
001800
001800
001800
001800
001800
001800
00FF00
000000
000000
000000
ENDCHAR
STARTCHAR 01D1
ENCODING 465
SWIDTH 1440 0
DWIDTH 24 0
BBX 24 24 0 -3
BITMAP
008200
006C00
003800
001000
007E00
018180
0300C0
060060
0C0030
0C0030
180018
180018
180018
180018
180018
0C0030
0C0030
060060
0300C0
018180
007E00
000000
000000
000000
ENDCHAR
STARTCHAR 01D2
ENCODING 466
SWIDTH 1440 0
DWIDTH 24 0
BBX 24 24 0 -3
BITMAP
000000
000000
000000
000000
008200
006C00
003800
001000
003C00
00C300
018180
0300C0
0300C0
060060
060060
060060
0300C0
0300C0
018180
00C300
003C00
000000
000000
000000
ENDCHAR
STARTCHAR 01D4
ENCODING 468
SWIDTH 1440 0
DWIDTH 24 0
BBX 24 24 0 -3
BITMAP
000000
000000
000000
000000
008200
006C00
003800
001000
030180
0F0780
030180
030180
030180
030180
030180
030180
030180
030180
030180
018780
0079E0
000000
000000
000000
ENDCHAR
STARTCHAR 01D6
ENCODING 470
SWIDTH 1440 0
DWIDTH 24 0
BBX 24 24 0 -3
BITMAP
000000
000000
00FF00
000000
000000
006600
006600
000000
030180
0F0780
030180
030180
030180
030180
030180
030180
030180
030180
030180
018780
0079E0
000000
000000
000000
ENDCHAR
STARTCHAR 01D8
ENCODING 472
SWIDTH 1440 0
DWIDTH 24 0
BBX 24 24 0 -3
BITMAP
000000
001E00
003800
006000
008000
006600
006600
000000
030180
0F0780
030180
030180
030180
030180
030180
030180
030180
030180
030180
018780
0079E0
000000
000000
000000
ENDCHAR
STARTCHAR 01DA
ENCODING 474
SWIDTH 1440 0
DWIDTH 24 0
BBX 24 24 0 -3
BITMAP
000000
008200
006C00
003800
001000
006600
006600
000000
030180
0F0780
030180
030180
030180
030180
030180
030180
030180
030180
030180
018780
0079E0
000000
000000
000000
ENDCHAR
STARTCHAR 01DC
ENCODING 476
SWIDTH 1440 0
DWIDTH 24 0
BBX 24 24 0 -3
BITMAP
000000
007800
001C00
000600
000100
006600
006600
000000
030180
0F0780
030180
030180
030180
030180
030180
030180
030180
030180
030180
018780
0079E0
000000
000000
000000
ENDCHAR
STARTCHAR 01F8
ENCODING 504
SWIDTH 1440 0
DWIDTH 24 0
BBX 24 24 0 -3
BITMAP
007800
001C00
000600
000100
1E00F8
070020
078020
05C020
04C020
046020
047020
043820
041C20
040C20
040620
040720
0403A0
0401E0
0400E0
040060
1F0020
000000
000000
000000
ENDCHAR
STARTCHAR 01F9
ENCODING 505
SWIDTH 1440 0
DWIDTH 24 0
BBX 24 24 0 -3
BITMAP
000000
000000
000000
007800
001C00
000600
000100
000000
019E00
07E180
0180C0
0180C0
0180C0
0180C0
0180C0
0180C0
0180C0
0180C0
0180C0
0180C0
07E3F0
000000
000000
000000
ENDCHAR
STARTCHAR 01FD
ENCODING 509
SWIDTH 1440 0
DWIDTH 24 0
BBX 24 24 0 -3
BITMAP
000000
000000
000000
001E00
003800
006000
008000
000000
07C1C0
1C3630
181C18
001818
00180C
01FFFC
061800
181800
301800
301800
301C04
186618
0781E0
000000
000000
000000
ENDCHAR
STARTCHAR 0250
ENCODING 592
SWIDTH 1440 0
DWIDTH 24 0
BBX 24 24 0 -3
BITMAP
000000
000000
000000
000000
000000
000000
000000
000000
071F00
09E0C0
098060
018060
018060
0180C0
018700
01F800
018000
018000
0180C0
00C1C0
003F00
000000
000000
000000
ENDCHAR
STARTCHAR 0251
ENCODING 593
SWIDTH 1440 0
DWIDTH 24 0
BBX 24 24 0 -3
BITMAP
000000
000000
000000
000000
000000
000000
000000
000000
007C80
018380
030180
030180
060180
060180
060180
060180
060180
030180
030190
018390
007CE0
000000
000000
000000
ENDCHAR
STARTCHAR 0252
ENCODING 594
SWIDTH 1440 0
DWIDTH 24 0
BBX 24 24 0 -3
BITMAP
000000
000000
000000
000000
000000
000000
000000
000000
073E00
09C180
0980C0
0180C0
018060
018060
018060
018060
018060
0180C0
0180C0
01C180
013E00
000000
000000
000000
ENDCHAR
STARTCHAR 0253
ENCODING 595
SWIDTH 1440 0
DWIDTH 24 0
BBX 24 24 0 -3
BITMAP
000000
000000
007800
00C600
018300
018300
030000
030000
031E00
036180
0380C0
0300C0
030060
030060
030060
030060
030060
0300C0
0300C0
03C180
023E00
000000
000000
000000
ENDCHAR
STARTCHAR 0254
ENCODING 596
SWIDTH 1440 0
DWIDTH 24 0
BBX 24 24 0 -3
BITMAP
000000
000000
000000
000000
000000
000000
000000
000000
003C00
00C300
010180
0000C0
0000C0
000060
000060
000060
0000C0
0180C0
018180
00C300
003C00
000000
000000
000000
ENDCHAR
STARTCHAR 0255
ENCODING 597
SWIDTH 1440 0
DWIDTH 24 0
BBX 24 24 0 -3
BITMAP
000000
000000
000000
000000
000000
000000
000000
000000
003E00
00C180
0180C0
0300C0
030000
060000
060000
060000
030380
030440
018840
00D180
003E00
002000
004000
008000
ENDCHAR
STARTCHAR 0256
ENCODING 598
SWIDTH 1440 0
DWIDTH 24 0
BBX 24 24 0 -3
BITMAP
000000
000000
0000C0
0003C0
0000C0
0000C0
0000C0
0000C0
0078C0
0186C0
0301C0
0300C0
0600C0
0600C0
0600C0
0600C0
0600C0
0300C0
0300C0
0183C0
007CC0
0000C6
000066
00003C
ENDCHAR
STARTCHAR 0257
ENCODING 599
SWIDTH 1440 0
DWIDTH 24 0
BBX 24 24 0 -3
BITMAP
000000
000000
000078
0000CC
00018C
000180
000180
000180
00F180
030D80
060380
060180
0C0180
0C0180
0C0180
0C0180
0C0180
060180
060180
030780
00F9E0
000000
000000
000000
ENDCHAR
STARTCHAR 0258
ENCODING 600
SWIDTH 1440 0
DWIDTH 24 0
BBX 24 24 0 -3
BITMAP
000000
000000
000000
000000
000000
000000
000000
000000
003C00
00C300
018180
0180C0
0300C0
03FFE0
000060
000060
0000C0
0000C0
020180
018300
007C00
000000
000000
000000
ENDCHAR
STARTCHAR 0259
ENCODING 601
SWIDTH 1440 0
DWIDTH 24 0
BBX 24 24 0 -3
BITMAP
000000
000000
000000
000000
000000
000000
000000
000000
007C00
018300
020180
0000C0
0000C0
000060
000060
03FFE0
0300C0
0180C0
018180
00C300
003C00
000000
000000
000000
ENDCHAR
STARTCHAR 025A
ENCODING 602
SWIDTH 1440 0
DWIDTH 24 0
BBX 24 24 0 -3
BITMAP
000000
000000
000000
000000
000000
000000
000000
000000
03E000
0C1800
100C00
000C40
0007C0
003E40
01C668
1E0630
180600
0C0C00
0C0C00
061800
01E000
000000
000000
000000
ENDCHAR
STARTCHAR 025C
ENCODING 604
SWIDTH 1440 0
DWIDTH 24 0
BBX 24 24 0 -3
BITMAP
000000
000000
000000
000000
000000
000000
000000
000000
007C00
01C700
018180
010180
000180
000300
003C00
000300
000180
010180
018180
01C300
007C00
000000
000000
000000
ENDCHAR
STARTCHAR 025E
ENCODING 606
SWIDTH 1440 0
DWIDTH 24 0
BBX 24 24 0 -3
BITMAP
000000
000000
000000
000000
000000
000000
000000
000000
007C00
00C700
018180
018180
030180
030300
033C00
030300
030180
018180
018180
00C300
007C00
000000
000000
000000
ENDCHAR
STARTCHAR 025F
ENCODING 607
SWIDTH 1440 0
DWIDTH 24 0
BBX 24 24 0 -3
BITMAP
000000
000000
000000
000000
000000
000000
000000
000000
001F80
000600
000600
000600
000600
000600
000600
000600
000600
007FE0
000600
000600
000C00
060C00
061800
03E000
ENDCHAR
STARTCHAR 0260
ENCODING 608
SWIDTH 1440 0
DWIDTH 24 0
BBX 24 24 0 -3
BITMAP
000000
000000
000000
000000
000000
000078
0000CC
00018C
00F980
030780
060180
060180
0C0180
0C0180
0C0180
060180
060180
030780
00F980
000180
060300
060300
030600
00F800
ENDCHAR
STARTCHAR 0261
ENCODING 609
SWIDTH 1440 0
DWIDTH 24 0
BBX 24 24 0 -3
BITMAP
000000
000000
000000
000000
000000
000000
000000
000000
007C40
0183C0
0300C0
0300C0
0600C0
0600C0
0600C0
0300C0
0300C0
0183C0
007CC0
0000C0
030180
030180
018300
007C00
ENDCHAR
STARTCHAR 0264
ENCODING 612
SWIDTH 1440 0
DWIDTH 24 0
BBX 24 24 0 -3
BITMAP
000000
000000
000000
000000
000000
000000
000000
000000
07E3E0
018080
00C100
00C100
006200
003200
003400
001C00
001C00
001C00
002600
002600
001C00
000000
000000
000000
ENDCHAR
STARTCHAR 0265
ENCODING 613
SWIDTH 1440 0
DWIDTH 24 0
BBX 24 24 0 -3
BITMAP
000000
000000
0FC3F0
0300C0
0300C0
0300C0
0300C0
0300C0
0300C0
0300C0
0300C0
0300C0
0301C0
0186C0
0078C0
0000C0
0000C0
0000C0
0000C0
0000F0
0000C0
000000
000000
000000
ENDCHAR
STARTCHAR 0266
ENCODING 614
SWIDTH 1440 0
DWIDTH 24 0
BBX 24 24 0 -3
BITMAP
000000
000000
007800
00C600
018300
018300
030000
030000
031E00
036180
0380C0
0300C0
0300C0
0300C0
0300C0
0300C0
0300C0
0300C0
0300C0
0300C0
0FC3F0
000000
000000
000000
ENDCHAR
STARTCHAR 0267
ENCODING 615
SWIDTH 1440 0
DWIDTH 24 0
BBX 24 24 0 -3
BITMAP
000000
000000
007800
00C600
018300
018300
030000
030000
031E00
036180
0380C0
0300C0
0300C0
0300C0
0300C0
0300C0
0300C0
0300C0
0300C0
0300C0
0FC0C0
0018C0
001980
000F00
ENDCHAR
STARTCHAR 0268
ENCODING 616
SWIDTH 1440 0
DWIDTH 24 0
BBX 24 24 0 -3
BITMAP
000000
000000
003800
003800
003800
000000
000000
000000
00F800
001800
001800
001800
001800
01FF80
001800
001800
001800
001800
001800
001800
00FF00
000000
000000
000000
ENDCHAR
STARTCHAR 026C
ENCODING 620
SWIDTH 1440 0
DWIDTH 24 0
BBX 24 24 0 -3
BITMAP
000000
000000
001800
007800
001800
001800
001800
001800
001800
00D800
013800
011800
019800
00FF80
001800
001800
001800
001800
001800
001800
007E00
000000
000000
000000
ENDCHAR
STARTCHAR 026D
ENCODING 621
SWIDTH 1440 0
DWIDTH 24 0
BBX 24 24 0 -3
BITMAP
000000
000000
001800
007800
001800
001800
001800
001800
001800
001800
001800
001800
001800
001800
001800
001800
001800
001800
001800
001800
001800
0018C0
000CC0
000780
ENDCHAR
STARTCHAR 026E
ENCODING 622
SWIDTH 1440 0
DWIDTH 24 0
BBX 24 24 0 -3
BITMAP
000000
000000
018000
078000
018000
018000
018000
018000
01FFC0
018180
018300
018600
018C00
019800
01BE00
018180
0180C0
018060
018060
07E060
000060
00C0C0
006180
001E00
ENDCHAR
STARTCHAR 026F
ENCODING 623
SWIDTH 1440 0
DWIDTH 24 0
BBX 24 24 0 -3
BITMAP
000000
000000
000000
000000
000000
000000
000000
000000
3E3C7C
0C1830
0C1830
0C1830
0C1830
0C1830
0C1830
0C1830
0C1830
0C1830
0C1830
0468FC
038730
000000
000000
000000
ENDCHAR
STARTCHAR 0270
ENCODING 624
SWIDTH 1440 0
DWIDTH 24 0
BBX 24 24 0 -3
BITMAP
000000
000000
000000
000000
000000
000000
000000
000000
3E3C7C
0C1830
0C1830
0C1830
0C1830
0C1830
0C1830
0C1830
0C1830
0C1830
0C1830
0468F0
038730
000030
00003C
000030
ENDCHAR
STARTCHAR 0271
ENCODING 625
SWIDTH 1440 0
DWIDTH 24 0
BBX 24 24 0 -3
BITMAP
000000
000000
000000
000000
000000
000000
000000
000000
0670E0
1F8B10
060C18
060C18
060C18
060C18
060C18
060C18
060C18
060C18
060C18
060C18
1F1E18
000018
000330
0001E0
ENDCHAR
STARTCHAR 0272
ENCODING 626
SWIDTH 1440 0
DWIDTH 24 0
BBX 24 24 0 -3
BITMAP
000000
000000
000000
000000
000000
000000
000000
000000
019E00
07E180
0180C0
0180C0
0180C0
0180C0
0180C0
0180C0
0180C0
0180C0
0180C0
0180C0
0183F0
318000
330000
1E0000
ENDCHAR
STARTCHAR 0273
ENCODING 627
SWIDTH 1440 0
DWIDTH 24 0
BBX 24 24 0 -3
BITMAP
000000
000000
000000
000000
000000
000000
000000
000000
019E00
07E180
0180C0
0180C0
0180C0
0180C0
0180C0
0180C0
0180C0
0180C0
0180C0
0180C0
07E0C0
0000C6
000066
00003C
ENDCHAR
STARTCHAR 0275
ENCODING 629
SWIDTH 1440 0
DWIDTH 24 0
BBX 24 24 0 -3
BITMAP
000000
000000
000000
000000
000000
000000
000000
000000
003C00
00C300
018180
0300C0
0300C0
07FFE0
060060
060060
0300C0
0300C0
018180
00C300
003C00
000000
000000
000000
ENDCHAR
STARTCHAR 0279
ENCODING 633
SWIDTH 1440 0
DWIDTH 24 0
BBX 24 24 0 -3
BITMAP
000000
000000
000000
000000
000000
000000
000000
000000
000FC0
000300
000300
000300
000300
000300
000300
000300
000700
000B00
063300
07E3C0
038300
000000
000000
000000
ENDCHAR
STARTCHAR 027A
ENCODING 634
SWIDTH 1440 0
DWIDTH 24 0
BBX 24 24 0 -3
BITMAP
000000
000000
000300
000F00
000300
000300
000300
000300
000300
000300
000300
000300
000300
000300
000300
000300
000700
000B00
063300
07E3C0
038300
000000
000000
000000
ENDCHAR
STARTCHAR 027B
ENCODING 635
SWIDTH 1440 0
DWIDTH 24 0
BBX 24 24 0 -3
BITMAP
000000
000000
000000
000000
000000
000000
000000
000000
000FC0
000300
000300
000300
000300
000300
000300
000300
000700
000B00
063300
07E300
038300
000318
000198
0000F0
ENDCHAR
STARTCHAR 027D
ENCODING 637
SWIDTH 1440 0
DWIDTH 24 0
BBX 24 24 0 -3
BITMAP
000000
000000
000000
000000
000000
000000
000000
000000
00C1C0
03C7E0
00CC60
00D000
00E000
00C000
00C000
00C000
00C000
00C000
00C000
00C000
00C000
00C600
006600
003C00
ENDCHAR
STARTCHAR 027E
ENCODING 638
SWIDTH 1440 0
DWIDTH 24 0
BBX 24 24 0 -3
BITMAP
000000
000000
000000
000000
000000
000000
000000
000000
000F00
001980
003180
003000
003000
003000
003000
003000
003000
003000
003000
003000
01FE00
000000
000000
000000
ENDCHAR
STARTCHAR 0281
ENCODING 641
SWIDTH 1440 0
DWIDTH 24 0
BBX 24 24 0 -3
BITMAP
000000
000000
000000
000000
000000
000000
000000
000000
03F3C0
00C300
00C600
00C600
00CC00
00CC00
00FE00
00C180
00C0C0
00C0C0
00C0C0
00C180
03FE00
000000
000000
000000
ENDCHAR
STARTCHAR 0282
ENCODING 642
SWIDTH 1440 0
DWIDTH 24 0
BBX 24 24 0 -3
BITMAP
000000
000000
000000
000000
000000
000000
000000
000000
007C80
018380
030180
030080
038000
01F800
007F00
000780
0001C0
0200C0
0300C0
038180
027E00
020000
036000
01C000
ENDCHAR
STARTCHAR 0283
ENCODING 643
SWIDTH 1440 0
DWIDTH 24 0
BBX 24 24 0 -3
BITMAP
000780
000CC0
0018C0
001800
001800
001800
001800
001800
001800
001800
001800
001800
001800
001800
001800
001800
001800
001800
001800
001800
001800
031800
033000
01E000
ENDCHAR
STARTCHAR 0284
ENCODING 644
SWIDTH 1440 0
DWIDTH 24 0
BBX 24 24 0 -3
BITMAP
000000
000000
000000
000000
000000
0001E0
000330
000630
000600
000600
000600
000600
000600
000600
000600
000600
000600
007FE0
000600
000600
000C00
060C00
061800
03E000
ENDCHAR
STARTCHAR 0288
ENCODING 648
SWIDTH 1440 0
DWIDTH 24 0
BBX 24 24 0 -3
BITMAP
000000
000000
006000
006000
006000
006000
006000
006000
07FF00
006000
006000
006000
006000
006000
006000
006000
006000
006000
006000
006000
006000
006300
003300
001E00
ENDCHAR
STARTCHAR 0289
ENCODING 649
SWIDTH 1440 0
DWIDTH 24 0
BBX 24 24 0 -3
BITMAP
000000
000000
000000
000000
000000
000000
000000
000000
030180
0F0780
030180
030180
030180
1FFFF0
030180
030180
030180
030180
030180
018780
0079E0
000000
000000
000000
ENDCHAR
STARTCHAR 028A
ENCODING 650
SWIDTH 1440 0
DWIDTH 24 0
BBX 24 24 0 -3
BITMAP
000000
000000
000000
000000
000000
000000
000000
000000
07C3E0
00C300
008100
018180
018180
0300C0
0300C0
0300C0
0300C0
0300C0
018180
00C300
003C00
000000
000000
000000
ENDCHAR
STARTCHAR 028B
ENCODING 651
SWIDTH 1440 0
DWIDTH 24 0
BBX 24 24 0 -3
BITMAP
000000
000000
000000
000000
000000
000000
000000
000000
018180
0781C0
0180C0
018040
018040
018040
018040
018040
0180C0
018080
018180
00C300
007E00
000000
000000
000000
ENDCHAR
STARTCHAR 028C
ENCODING 652
SWIDTH 1440 0
DWIDTH 24 0
BBX 24 24 0 -3
BITMAP
000000
000000
000000
000000
000000
000000
000000
000000
001000
001800
003800
002C00
004C00
004600
008600
008300
010300
010180
020180
0200C0
0F83F0
000000
000000
000000
ENDCHAR
STARTCHAR 028D
ENCODING 653
SWIDTH 1440 0
DWIDTH 24 0
BBX 24 24 0 -3
BITMAP
000000
000000
000000
000000
000000
000000
000000
000000
010080
010080
0381C0
028140
02C260
04C260
046260
046430
083430
083430
081818
181818
7E7E7E
000000
000000
000000
ENDCHAR
STARTCHAR 028E
ENCODING 654
SWIDTH 1440 0
DWIDTH 24 0
BBX 24 24 0 -3
BITMAP
000000
000000
000000
000000
000000
0001E0
000230
000430
000800
000800
001000
003800
002C00
004C00
004600
008600
008300
010300
010180
020180
0F87E0
000000
000000
000000
ENDCHAR
STARTCHAR 0290
ENCODING 656
SWIDTH 1440 0
DWIDTH 24 0
BBX 24 24 0 -3
BITMAP
000000
000000
000000
000000
000000
000000
000000
000000
03FFC0
030380
020700
040600
000E00
001C00
003800
007000
006000
00E020
01C040
0380C0
07FFC0
00004C
00006C
000038
ENDCHAR
STARTCHAR 0291
ENCODING 657
SWIDTH 1440 0
DWIDTH 24 0
BBX 24 24 0 -3
BITMAP
000000
000000
000000
000000
000000
000000
000000
000000
03FFC0
030380
020700
040600
000E00
001C00
003800
007000
0060E0
00E110
01C210
038410
07FFE0
000800
001000
002000
ENDCHAR
STARTCHAR 0292
ENCODING 658
SWIDTH 1440 0
DWIDTH 24 0
BBX 24 24 0 -3
BITMAP
000000
000000
000000
000000
000000
000000
000000
000000
01FF80
018300
010600
000C00
001800
003000
007C00
000300
000180
0000C0
0000C0
0300C0
0300C0
018180
00C300
003C00
ENDCHAR
STARTCHAR 0294
ENCODING 660
SWIDTH 1440 0
DWIDTH 24 0
BBX 24 24 0 -3
BITMAP
000000
000000
003E00
006300
00C180
00C0C0
0000C0
0000C0
0000C0
000180
000180
000300
001C00
001800
001800
001800
001800
001800
001800
001800
007E00
000000
000000
000000
ENDCHAR
STARTCHAR 0295
ENCODING 661
SWIDTH 1440 0
DWIDTH 24 0
BBX 24 24 0 -3
BITMAP
000000
000000
007C00
00C600
018300
030300
030000
030000
030000
018000
018000
00C000
003800
001800
001800
001800
001800
001800
001800
001800
007E00
000000
000000
000000
ENDCHAR
STARTCHAR 0298
ENCODING 664
SWIDTH 1440 0
DWIDTH 24 0
BBX 24 24 0 -3
BITMAP
000000
000000
000000
000000
000000
000000
000000
000000
007C00
018300
020080
020080
040040
043840
043840
043840
040040
020080
020080
018300
007C00
000000
000000
000000
ENDCHAR
STARTCHAR 029D
ENCODING 669
SWIDTH 1440 0
DWIDTH 24 0
BBX 24 24 0 -3
BITMAP
000000
000000
000E00
000E00
000E00
000000
000000
000000
001E00
000600
000600
000600
000600
000600
000600
000600
000600
00FE00
030780
060660
060C10
060C00
031800
00E000
ENDCHAR
STARTCHAR 02A1
ENCODING 673
SWIDTH 1440 0
DWIDTH 24 0
BBX 24 24 0 -3
BITMAP
000000
000000
003E00
006300
00C180
00C0C0
0000C0
0000C0
0000C0
000180
000180
000300
001C00
001800
001800
01FF80
001800
001800
001800
001800
007E00
000000
000000
000000
ENDCHAR
STARTCHAR 02A2
ENCODING 674
SWIDTH 1440 0
DWIDTH 24 0
BBX 24 24 0 -3
BITMAP
000000
000000
007C00
00C600
018300
030300
030000
030000
030000
018000
018000
00C000
003800
001800
001800
01FF80
001800
001800
001800
001800
007E00
000000
000000
000000
ENDCHAR
STARTCHAR 02C7
ENCODING 711
SWIDTH 1440 0
DWIDTH 24 0
BBX 24 24 0 -3
BITMAP
008200
006C00
003800
001000
000000
000000
000000
000000
000000
000000
000000
000000
000000
000000
000000
000000
000000
000000
000000
000000
000000
000000
000000
000000
ENDCHAR
STARTCHAR 02C8
ENCODING 712
SWIDTH 1440 0
DWIDTH 24 0
BBX 24 24 0 -3
BITMAP
001800
001800
001800
001800
001800
001800
001800
000000
000000
000000
000000
000000
000000
000000
000000
000000
000000
000000
000000
000000
000000
000000
000000
000000
ENDCHAR
STARTCHAR 02CC
ENCODING 716
SWIDTH 1440 0
DWIDTH 24 0
BBX 24 24 0 -3
BITMAP
000000
000000
000000
000000
000000
000000
000000
000000
000000
000000
000000
000000
000000
000000
000000
000000
000000
000000
000000
001800
001800
001800
001800
001800
ENDCHAR
STARTCHAR 02D0
ENCODING 720
SWIDTH 1440 0
DWIDTH 24 0
BBX 24 24 0 -3
BITMAP
000000
000000
000000
000000
000000
000000
000000
000000
007C00
003800
003800
001000
001000
000000
000000
000000
001000
001000
003800
003800
007C00
000000
000000
000000
ENDCHAR
STARTCHAR 02D1
ENCODING 721
SWIDTH 1440 0
DWIDTH 24 0
BBX 24 24 0 -3
BITMAP
000000
000000
000000
000000
000000
000000
000000
000000
007C00
003800
003800
001000
001000
000000
000000
000000
000000
000000
000000
000000
000000
000000
000000
000000
ENDCHAR
STARTCHAR 02D8
ENCODING 728
SWIDTH 1440 0
DWIDTH 24 0
BBX 24 24 0 -3
BITMAP
00C300
007E00
003C00
000000
000000
000000
000000
000000
000000
000000
000000
000000
000000
000000
000000
000000
000000
000000
000000
000000
000000
000000
000000
000000
ENDCHAR
STARTCHAR 02D9
ENCODING 729
SWIDTH 1440 0
DWIDTH 24 0
BBX 24 24 0 -3
BITMAP
000000
001800
001800
000000
000000
000000
000000
000000
000000
000000
000000
000000
000000
000000
000000
000000
000000
000000
000000
000000
000000
000000
000000
000000
ENDCHAR
STARTCHAR 02DB
ENCODING 731
SWIDTH 1440 0
DWIDTH 24 0
BBX 24 24 0 -3
BITMAP
000000
000000
000000
000000
000000
000000
000000
000000
000000
000000
000000
000000
000000
000000
000000
000000
000000
000000
000000
001800
003000
006000
007200
003C00
ENDCHAR
STARTCHAR 02DD
ENCODING 733
SWIDTH 1440 0
DWIDTH 24 0
BBX 24 24 0 -3
BITMAP
0079E0
00E380
018600
020800
000000
000000
000000
000000
000000
000000
000000
000000
000000
000000
000000
000000
000000
000000
000000
000000
000000
000000
000000
000000
ENDCHAR
STARTCHAR 02DE
ENCODING 734
SWIDTH 1440 0
DWIDTH 24 0
BBX 24 24 0 -3
BITMAP
000000
000000
000000
000000
000000
000000
000000
000000
000000
000000
001000
003000
00D000
001000
001900
001E00
000C00
000000
000000
000000
000000
000000
000000
000000
ENDCHAR
STARTCHAR 02E5
ENCODING 741
SWIDTH 1440 0
DWIDTH 24 0
BBX 24 24 0 -3
BITMAP
000000
00FF00
000100
000100
000100
000100
000100
000100
000100
000100
000100
000100
000100
000100
000100
000100
000100
000100
000100
000100
000100
000100
000000
000000
ENDCHAR
STARTCHAR 02E6
ENCODING 742
SWIDTH 1440 0
DWIDTH 24 0
BBX 24 24 0 -3
BITMAP
000000
000100
000100
000100
000100
000100
00FF00
000100
000100
000100
000100
000100
000100
000100
000100
000100
000100
000100
000100
000100
000100
000100
000000
000000
ENDCHAR
STARTCHAR 02E7
ENCODING 743
SWIDTH 1440 0
DWIDTH 24 0
BBX 24 24 0 -3
BITMAP
000000
000100
000100
000100
000100
000100
000100
000100
000100
000100
000100
00FF00
000100
000100
000100
000100
000100
000100
000100
000100
000100
000100
000000
000000
ENDCHAR
STARTCHAR 02E8
ENCODING 744
SWIDTH 1440 0
DWIDTH 24 0
BBX 24 24 0 -3
BITMAP
000000
000100
000100
000100
000100
000100
000100
000100
000100
000100
000100
000100
000100
000100
000100
000100
00FF00
000100
000100
000100
000100
000100
000000
000000
ENDCHAR
STARTCHAR 02E9
ENCODING 745
SWIDTH 1440 0
DWIDTH 24 0
BBX 24 24 0 -3
BITMAP
000000
000100
000100
000100
000100
000100
000100
000100
000100
000100
000100
000100
000100
000100
000100
000100
000100
000100
000100
000100
000100
00FF00
000000
000000
ENDCHAR
STARTCHAR 0300
ENCODING 768
SWIDTH 1440 0
DWIDTH 24 0
BBX 24 24 0 -3
BITMAP
007800
001C00
000600
000100
000000
000000
000000
000000
000000
000000
000000
000000
000000
000000
000000
000000
000000
000000
000000
000000
000000
000000
000000
000000
ENDCHAR
STARTCHAR 0301
ENCODING 769
SWIDTH 1440 0
DWIDTH 24 0
BBX 24 24 0 -3
BITMAP
001E00
003800
006000
008000
000000
000000
000000
000000
000000
000000
000000
000000
000000
000000
000000
000000
000000
000000
000000
000000
000000
000000
000000
000000
ENDCHAR
STARTCHAR 0302
ENCODING 770
SWIDTH 1440 0
DWIDTH 24 0
BBX 24 24 0 -3
BITMAP
001000
003800
006C00
008200
000000
000000
000000
000000
000000
000000
000000
000000
000000
000000
000000
000000
000000
000000
000000
000000
000000
000000
000000
000000
ENDCHAR
STARTCHAR 0303
ENCODING 771
SWIDTH 1440 0
DWIDTH 24 0
BBX 24 24 0 -3
BITMAP
007080
009900
010E00
000000
000000
000000
000000
000000
000000
000000
000000
000000
000000
000000
000000
000000
000000
000000
000000
000000
000000
000000
000000
000000
ENDCHAR
STARTCHAR 0304
ENCODING 772
SWIDTH 1440 0
DWIDTH 24 0
BBX 24 24 0 -3
BITMAP
000000
00FF00
000000
000000
000000
000000
000000
000000
000000
000000
000000
000000
000000
000000
000000
000000
000000
000000
000000
000000
000000
000000
000000
000000
ENDCHAR
STARTCHAR 0306
ENCODING 774
SWIDTH 1440 0
DWIDTH 24 0
BBX 24 24 0 -3
BITMAP
00C300
007E00
003C00
000000
000000
000000
000000
000000
000000
000000
000000
000000
000000
000000
000000
000000
000000
000000
000000
000000
000000
000000
000000
000000
ENDCHAR
STARTCHAR 0308
ENCODING 776
SWIDTH 1440 0
DWIDTH 24 0
BBX 24 24 0 -3
BITMAP
000000
006600
006600
000000
000000
000000
000000
000000
000000
000000
000000
000000
000000
000000
000000
000000
000000
000000
000000
000000
000000
000000
000000
000000
ENDCHAR
STARTCHAR 030B
ENCODING 779
SWIDTH 1440 0
DWIDTH 24 0
BBX 24 24 0 -3
BITMAP
0079E0
00E380
018600
020800
000000
000000
000000
000000
000000
000000
000000
000000
000000
000000
000000
000000
000000
000000
000000
000000
000000
000000
000000
000000
ENDCHAR
STARTCHAR 030C
ENCODING 780
SWIDTH 1440 0
DWIDTH 24 0
BBX 24 24 0 -3
BITMAP
008200
006C00
003800
001000
000000
000000
000000
000000
000000
000000
000000
000000
000000
000000
000000
000000
000000
000000
000000
000000
000000
000000
000000
000000
ENDCHAR
STARTCHAR 030F
ENCODING 783
SWIDTH 1440 0
DWIDTH 24 0
BBX 24 24 0 -3
BITMAP
079E00
01C700
006180
001040
000000
000000
000000
000000
000000
000000
000000
000000
000000
000000
000000
000000
000000
000000
000000
000000
000000
000000
000000
000000
ENDCHAR
STARTCHAR 0318
ENCODING 792
SWIDTH 1440 0
DWIDTH 24 0
BBX 24 24 0 -3
BITMAP
000000
000000
000000
000000
000000
000000
000000
000000
000000
000000
000000
000000
000000
000000
000000
000000
000000
000000
000000
000200
000200
007E00
000200
000200
ENDCHAR
STARTCHAR 0319
ENCODING 793
SWIDTH 1440 0
DWIDTH 24 0
BBX 24 24 0 -3
BITMAP
000000
000000
000000
000000
000000
000000
000000
000000
000000
000000
000000
000000
000000
000000
000000
000000
000000
000000
000000
004000
004000
007E00
004000
004000
ENDCHAR
STARTCHAR 031A
ENCODING 794
SWIDTH 1440 0
DWIDTH 24 0
BBX 24 24 0 -3
BITMAP
000000
000FC0
000040
000040
000040
000040
000000
000000
000000
000000
000000
000000
000000
000000
000000
000000
000000
000000
000000
000000
000000
000000
000000
000000
ENDCHAR
STARTCHAR 031C
ENCODING 796
SWIDTH 1440 0
DWIDTH 24 0
BBX 24 24 0 -3
BITMAP
000000
000000
000000
000000
000000
000000
000000
000000
000000
000000
000000
000000
000000
000000
000000
000000
000000
000000
000000
000000
001800
002000
002000
001800
ENDCHAR
STARTCHAR 031D
ENCODING 797
SWIDTH 1440 0
DWIDTH 24 0
BBX 24 24 0 -3
BITMAP
000000
000000
000000
000000
000000
000000
000000
000000
000000
000000
000000
000000
000000
000000
000000
000000
000000
000000
000000
000000
001000
001000
001000
00FE00
ENDCHAR
STARTCHAR 031E
ENCODING 798
SWIDTH 1440 0
DWIDTH 24 0
BBX 24 24 0 -3
BITMAP
000000
000000
000000
000000
000000
000000
000000
000000
000000
000000
000000
000000
000000
000000
000000
000000
000000
000000
000000
000000
00FE00
001000
001000
001000
ENDCHAR
STARTCHAR 031F
ENCODING 799
SWIDTH 1440 0
DWIDTH 24 0
BBX 24 24 0 -3
BITMAP
000000
000000
000000
000000
000000
000000
000000
000000
000000
000000
000000
000000
000000
000000
000000
000000
000000
000000
000000
001000
001000
007C00
001000
001000
ENDCHAR
STARTCHAR 0320
ENCODING 800
SWIDTH 1440 0
DWIDTH 24 0
BBX 24 24 0 -3
BITMAP
000000
000000
000000
000000
000000
000000
000000
000000
000000
000000
000000
000000
000000
000000
000000
000000
000000
000000
000000
000000
000000
007E00
000000
000000
ENDCHAR
STARTCHAR 0324
ENCODING 804
SWIDTH 1440 0
DWIDTH 24 0
BBX 24 24 0 -3
BITMAP
000000
000000
000000
000000
000000
000000
000000
000000
000000
000000
000000
000000
000000
000000
000000
000000
000000
000000
000000
000000
000000
000000
006600
006600
ENDCHAR
STARTCHAR 0325
ENCODING 805
SWIDTH 1440 0
DWIDTH 24 0
BBX 24 24 0 -3
BITMAP
000000
000000
000000
000000
000000
000000
000000
000000
000000
000000
000000
000000
000000
000000
000000
000000
000000
000000
000000
000000
001800
002400
002400
001800
ENDCHAR
STARTCHAR 0329
ENCODING 809
SWIDTH 1440 0
DWIDTH 24 0
BBX 24 24 0 -3
BITMAP
000000
000000
000000
000000
000000
000000
000000
000000
000000
000000
000000
000000
000000
000000
000000
000000
000000
000000
000000
000000
001800
001800
001800
001800
ENDCHAR
STARTCHAR 032A
ENCODING 810
SWIDTH 1440 0
DWIDTH 24 0
BBX 24 24 0 -3
BITMAP
000000
000000
000000
000000
000000
000000
000000
000000
000000
000000
000000
000000
000000
000000
000000
000000
000000
000000
000000
000000
00FF00
008100
008100
008100
ENDCHAR
STARTCHAR 032C
ENCODING 812
SWIDTH 1440 0
DWIDTH 24 0
BBX 24 24 0 -3
BITMAP
000000
000000
000000
000000
000000
000000
000000
000000
000000
000000
000000
000000
000000
000000
000000
000000
000000
000000
000000
000000
008200
006C00
003800
001000
ENDCHAR
STARTCHAR 032F
ENCODING 815
SWIDTH 1440 0
DWIDTH 24 0
BBX 24 24 0 -3
BITMAP
000000
000000
000000
000000
000000
000000
000000
000000
000000
000000
000000
000000
000000
000000
000000
000000
000000
000000
000000
000000
000000
003C00
007E00
00C300
ENDCHAR
STARTCHAR 0330
ENCODING 816
SWIDTH 1440 0
DWIDTH 24 0
BBX 24 24 0 -3
BITMAP
000000
000000
000000
000000
000000
000000
000000
000000
000000
000000
000000
000000
000000
000000
000000
000000
000000
000000
000000
000000
000000
007080
009900
010E00
ENDCHAR
STARTCHAR 0334
ENCODING 820
SWIDTH 1440 0
DWIDTH 24 0
BBX 24 24 0 -3
BITMAP
000000
000000
000000
000000
000000
000000
000000
000000
000000
000000
007080
009900
010E00
000000
000000
000000
000000
000000
000000
000000
000000
000000
000000
000000
ENDCHAR
STARTCHAR 0339
ENCODING 825
SWIDTH 1440 0
DWIDTH 24 0
BBX 24 24 0 -3
BITMAP
000000
000000
000000
000000
000000
000000
000000
000000
000000
000000
000000
000000
000000
000000
000000
000000
000000
000000
000000
000000
001800
000400
000400
001800
ENDCHAR
STARTCHAR 033A
ENCODING 826
SWIDTH 1440 0
DWIDTH 24 0
BBX 24 24 0 -3
BITMAP
000000
000000
000000
000000
000000
000000
000000
000000
000000
000000
000000
000000
000000
000000
000000
000000
000000
000000
000000
000000
008100
008100
008100
00FF00
ENDCHAR
STARTCHAR 033B
ENCODING 827
SWIDTH 1440 0
DWIDTH 24 0
BBX 24 24 0 -3
BITMAP
000000
000000
000000
000000
000000
000000
000000
000000
000000
000000
000000
000000
000000
000000
000000
000000
000000
000000
000000
000000
00FF00
008100
008100
00FF00
ENDCHAR
STARTCHAR 033C
ENCODING 828
SWIDTH 1440 0
DWIDTH 24 0
BBX 24 24 0 -3
BITMAP
000000
000000
000000
000000
000000
000000
000000
000000
000000
000000
000000
000000
000000
000000
000000
000000
000000
000000
000000
000000
00C300
01E780
033CC0
021840
ENDCHAR
STARTCHAR 033D
ENCODING 829
SWIDTH 1440 0
DWIDTH 24 0
BBX 24 24 0 -3
BITMAP
004600
002C00
001800
003400
006200
000000
000000
000000
000000
000000
000000
000000
000000
000000
000000
000000
000000
000000
000000
000000
000000
000000
000000
000000
ENDCHAR
STARTCHAR 0361
ENCODING 865
SWIDTH 1440 0
DWIDTH 24 0
BBX 24 24 0 -3
BITMAP
000000
01FF80
0FFFF0
3E007C
600006
800001
000000
000000
000000
000000
000000
000000
000000
000000
000000
000000
000000
000000
000000
000000
000000
000000
000000
000000
ENDCHAR
STARTCHAR 0391
ENCODING 913
SWIDTH 1440 0
DWIDTH 24 0
BBX 24 24 0 -3
BITMAP
000000
000000
001000
001000
003800
003800
002C00
004C00
004600
008600
008300
008300
010180
010180
03FFC0
0200C0
040060
040060
080030
080030
3E00FC
000000
000000
000000
ENDCHAR
STARTCHAR 0392
ENCODING 914
SWIDTH 1440 0
DWIDTH 24 0
BBX 24 24 0 -3
BITMAP
000000
000000
0FFE00
030180
0300C0
030060
030060
030060
030060
0300C0
030080
03FF00
0300C0
030060
030030
030030
030030
030030
030060
0300C0
0FFF00
000000
000000
000000
ENDCHAR
STARTCHAR 0393
ENCODING 915
SWIDTH 1440 0
DWIDTH 24 0
BBX 24 24 0 -3
BITMAP
000000
000000
0FFFF0
030030
030010
030010
030010
030000
030000
030000
030000
030000
030000
030000
030000
030000
030000
030000
030000
030000
0FC000
000000
000000
000000
ENDCHAR
STARTCHAR 0394
ENCODING 916
SWIDTH 1440 0
DWIDTH 24 0
BBX 24 24 0 -3
BITMAP
000000
000000
001000
001000
003800
003800
002C00
004C00
004600
008600
008300
008300
010180
010180
0200C0
0200C0
040060
040060
080030
0FFFF0
1FFFF8
000000
000000
000000
ENDCHAR
STARTCHAR 0395
ENCODING 917
SWIDTH 1440 0
DWIDTH 24 0
BBX 24 24 0 -3
BITMAP
000000
000000
1FFFC0
0600C0
060040
060040
060000
060000
060200
060200
060600
07FE00
060600
060200
060200
060000
060020
060020
060020
060060
1FFFE0
000000
000000
000000
ENDCHAR
STARTCHAR 0396
ENCODING 918
SWIDTH 1440 0
DWIDTH 24 0
BBX 24 24 0 -3
BITMAP
000000
000000
0FFFF0
0C00E0
0801C0
080180
080380
000700
000600
000C00
001C00
003800
003000
006000
00E000
01C000
018010
030010
070010
0E0030
1FFFF0
000000
000000
000000
ENDCHAR
STARTCHAR 0397
ENCODING 919
SWIDTH 1440 0
DWIDTH 24 0
BBX 24 24 0 -3
BITMAP
000000
000000
1F81F8
060060
060060
060060
060060
060060
060060
060060
060060
07FFE0
060060
060060
060060
060060
060060
060060
060060
060060
1F81F8
000000
000000
000000
ENDCHAR
STARTCHAR 0398
ENCODING 920
SWIDTH 1440 0
DWIDTH 24 0
BBX 24 24 0 -3
BITMAP
000000
000000
007E00
018180
0300C0
060060
0C0030
0C0030
180018
188118
18FF18
18FF18
188118
180018
180018
0C0030
0C0030
060060
0300C0
018180
007E00
000000
000000
000000
ENDCHAR
STARTCHAR 0399
ENCODING 921
SWIDTH 1440 0
DWIDTH 24 0
BBX 24 24 0 -3
BITMAP
000000
000000
007E00
001800
001800
001800
001800
001800
001800
001800
001800
001800
001800
001800
001800
001800
001800
001800
001800
001800
007E00
000000
000000
000000
ENDCHAR
STARTCHAR 039A
ENCODING 922
SWIDTH 1440 0
DWIDTH 24 0
BBX 24 24 0 -3
BITMAP
000000
000000
1F87E0
060180
060100
060200
060400
060800
061000
062000
066000
06F000
073800
061C00
060C00
060600
060700
060380
0601C0
0600E0
1F83F8
000000
000000
000000
ENDCHAR
STARTCHAR 039B
ENCODING 923
SWIDTH 1440 0
DWIDTH 24 0
BBX 24 24 0 -3
BITMAP
000000
000000
001000
001000
003800
003800
002C00
004C00
004600
008600
008300
008300
010180
010180
0200C0
0200C0
040060
040060
080030
080030
3E00FC
000000
000000
000000
ENDCHAR
STARTCHAR 039C
ENCODING 924
SWIDTH 1440 0
DWIDTH 24 0
BBX 24 24 0 -3
BITMAP
000000
000000
3F00FC
0B00B0
0B00B0
098130
098130
098130
098130
08C230
08C230
08C230
08C430
086430
086430
086830
082830
083830
083830
081030
3E10FC
000000
000000
000000
ENDCHAR
STARTCHAR 039D
ENCODING 925
SWIDTH 1440 0
DWIDTH 24 0
BBX 24 24 0 -3
BITMAP
000000
000000
1F00F8
070020
058020
05C020
04C020
046020
047020
043020
041820
041C20
040C20
040620
040720
0403A0
0401A0
0400E0
0400E0
040060
1F0020
000000
000000
000000
ENDCHAR
STARTCHAR 039E
ENCODING 926
SWIDTH 1440 0
DWIDTH 24 0
BBX 24 24 0 -3
BITMAP
000000
000000
07FFF0
07FFF0
0C0030
080020
080020
000000
000000
010040
01FFC0
03FF80
020080
000000
000000
000000
040010
040010
0C0030
0FFFE0
0FFFE0
000000
000000
000000
ENDCHAR
STARTCHAR 039F
ENCODING 927
SWIDTH 1440 0
DWIDTH 24 0
BBX 24 24 0 -3
BITMAP
000000
000000
007E00
018180
0300C0
060060
0C0030
0C0030
180018
180018
180018
180018
180018
180018
180018
0C0030
0C0030
060060
0300C0
018180
007E00
000000
000000
000000
ENDCHAR
STARTCHAR 03A0
ENCODING 928
SWIDTH 1440 0
DWIDTH 24 0
BBX 24 24 0 -3
BITMAP
000000
000000
1FFFF8
0300C0
0300C0
0300C0
0300C0
0300C0
0300C0
0300C0
0300C0
0300C0
0300C0
0300C0
0300C0
0300C0
0300C0
0300C0
0300C0
0300C0
1FC3F8
000000
000000
000000
ENDCHAR
STARTCHAR 03A1
ENCODING 929
SWIDTH 1440 0
DWIDTH 24 0
BBX 24 24 0 -3
BITMAP
000000
000000
0FFF00
0300C0
030060
030030
030030
030030
030030
030030
030060
0300C0
03FF00
030000
030000
030000
030000
030000
030000
030000
0FC000
000000
000000
000000
ENDCHAR
STARTCHAR 03A3
ENCODING 931
SWIDTH 1440 0
DWIDTH 24 0
BBX 24 24 0 -3
BITMAP
000000
000040
1FFFE0
0E0020
070010
038010
01C000
00E000
007000
003800
001C00
000C00
001800
003000
006000
00C000
018008
030008
060018
0FFFF0
1FFFF0
000010
000000
000000
ENDCHAR
STARTCHAR 03A4
ENCODING 932
SWIDTH 1440 0
DWIDTH 24 0
BBX 24 24 0 -3
BITMAP
000000
000000
1FFFF8
181818
101808
201804
201804
001800
001800
001800
001800
001800
001800
001800
001800
001800
001800
001800
001800
001800
007E00
000000
000000
000000
ENDCHAR
STARTCHAR 03A5
ENCODING 933
SWIDTH 1440 0
DWIDTH 24 0
BBX 24 24 0 -3
BITMAP
000000
000000
0781E0
0CC330
186618
103C08
203C04
001800
001800
001800
001800
001800
001800
001800
001800
001800
001800
001800
001800
001800
007E00
000000
000000
000000
ENDCHAR
STARTCHAR 03A6
ENCODING 934
SWIDTH 1440 0
DWIDTH 24 0
BBX 24 24 0 -3
BITMAP
000000
000000
00FF00
001800
001800
00FF00
0318C0
061860
0C1830
181818
181818
181818
181818
181818
0C1830
061860
0318C0
00FF00
001800
001800
00FF00
000000
000000
000000
ENDCHAR
STARTCHAR 03A7
ENCODING 935
SWIDTH 1440 0
DWIDTH 24 0
BBX 24 24 0 -3
BITMAP
000000
000000
1F80F8
070060
030040
018080
01C100
00C100
006200
007400
003800
001800
001C00
002E00
004700
004300
008180
0101C0
0200E0
060070
1F00FC
000000
000000
000000
ENDCHAR
STARTCHAR 03A8
ENCODING 936
SWIDTH 1440 0
DWIDTH 24 0
BBX 24 24 0 -3
BITMAP
000000
000000
007E00
001800
1C1838
3E187C
261864
061860
061860
061860
061860
0318C0
0318C0
011880
019980
00DB00
003C00
001800
001800
001800
007E00
000000
000000
000000
ENDCHAR
STARTCHAR 03A9
ENCODING 937
SWIDTH 1440 0
DWIDTH 24 0
BBX 24 24 0 -3
BITMAP
000000
000000
007E00
018180
0300C0
060060
0C0030
0C0030
180018
180018
180018
180018
0C0030
0C0030
060060
0300C0
018180
104208
104208
1FC3F8
1FC3F8
000000
000000
000000
ENDCHAR
STARTCHAR 03B1
ENCODING 945
SWIDTH 1440 0
DWIDTH 24 0
BBX 24 24 0 -3
BITMAP
000000
000000
000000
000000
000000
000000
000000
000000
003860
00C460
018260
0302C0
0702C0
060380
0E0300
0C0600
0C0600
0C0E00
0C1A40
0633C0
03C180
000000
000000
000000
ENDCHAR
STARTCHAR 03B2
ENCODING 946
SWIDTH 1440 0
DWIDTH 24 0
BBX 24 24 0 -3
BITMAP
000000
000000
000700
0018C0
003060
002060
006060
004060
00C060
0080C0
019980
019E00
010180
0300C0
0300C0
0200C0
0600C0
060180
068380
0C6700
0C3C00
0C0000
180000
180000
ENDCHAR
STARTCHAR 03B3
ENCODING 947
SWIDTH 1440 0
DWIDTH 24 0
BBX 24 24 0 -3
BITMAP
000000
000000
000000
000000
000000
000000
000000
000000
01E030
0330F0
041980
081A00
001C00
001800
001800
003000
003000
007000
006000
00E000
00E000
00C000
01C000
018000
ENDCHAR
STARTCHAR 03B4
ENCODING 948
SWIDTH 1440 0
DWIDTH 24 0
BBX 24 24 0 -3
BITMAP
000000
000000
003C00
004300
004180
0020E0
001070
000830
000400
003A00
00C300
018100
030180
030180
060180
060180
060300
060300
020600
030C00
00F000
000000
000000
000000
ENDCHAR
STARTCHAR 03B5
ENCODING 949
SWIDTH 1440 0
DWIDTH 24 0
BBX 24 24 0 -3
BITMAP
000000
000000
000000
000000
000000
000000
000000
000000
003E00
00E380
0180C0
018040
01C000
00FC00
039800
070000
060000
060040
070180
03FF00
01FC00
000000
000000
000000
ENDCHAR
STARTCHAR 03B6
ENCODING 950
SWIDTH 1440 0
DWIDTH 24 0
BBX 24 24 0 -3
BITMAP
000000
000000
003000
004000
0080E0
0083E0
007F80
000C00
001800
003000
006000
00C000
018000
030000
030000
060000
060000
07C000
03F800
003E00
000700
000300
01C600
01F800
ENDCHAR
STARTCHAR 03B7
ENCODING 951
SWIDTH 1440 0
DWIDTH 24 0
BBX 24 24 0 -3
BITMAP
000000
000000
000000
000000
000000
000000
000000
000000
01C3C0
066C20
087030
006030
00C030
00C060
018060
0180C0
0300C0
030180
060180
060300
000300
000600
000E00
000C00
ENDCHAR
STARTCHAR 03B8
ENCODING 952
SWIDTH 1440 0
DWIDTH 24 0
BBX 24 24 0 -3
BITMAP
000000
000000
000780
001860
003020
006030
00C030
018030
018030
030060
03FFE0
060060
0600C0
0600C0
0C0180
0C0180
0C0300
0C0200
040400
061800
01E000
000000
000000
000000
ENDCHAR
STARTCHAR 03B9
ENCODING 953
SWIDTH 1440 0
DWIDTH 24 0
BBX 24 24 0 -3
BITMAP
000000
000000
000000
000000
000000
000000
000000
000000
006000
006000
006000
00C000
00C000
018000
018000
018000
030040
030080
030700
01FC00
00F000
000000
000000
000000
ENDCHAR
STARTCHAR 03BA
ENCODING 954
SWIDTH 1440 0
DWIDTH 24 0
BBX 24 24 0 -3
BITMAP
000000
000000
000000
000000
000000
000000
000000
000000
00C0E0
00C1F0
00C330
018600
019800
03E000
033000
061800
061800
0C1840
0C1880
181F00
180E00
000000
000000
000000
ENDCHAR
STARTCHAR 03BB
ENCODING 955
SWIDTH 1440 0
DWIDTH 24 0
BBX 24 24 0 -3
BITMAP
000000
000000
007000
007800
001800
000C00
000C00
000400
000400
000400
000C00
001C00
003400
006400
00C600
018600
038300
030300
060380
0E01E0
0C00E0
000000
000000
000000
ENDCHAR
STARTCHAR 03BC
ENCODING 956
SWIDTH 1440 0
DWIDTH 24 0
BBX 24 24 0 -3
BITMAP
000000
000000
000000
000000
000000
000000
000000
000000
00C060
00C060
01C0E0
0180C0
0180C0
0381C0
030180
030180
030100
030300
070290
0584F0
0C7860
180000
380000
300000
ENDCHAR
STARTCHAR 03BD
ENCODING 957
SWIDTH 1440 0
DWIDTH 24 0
BBX 24 24 0 -3
BITMAP
000000
000000
000000
000000
000000
000000
000000
000000
000000
030020
038020
018040
018040
018080
010180
010300
020E00
023C00
07F000
07C000
060000
000000
000000
000000
ENDCHAR
STARTCHAR 03BE
ENCODING 958
SWIDTH 1440 0
DWIDTH 24 0
BBX 24 24 0 -3
BITMAP
000000
000000
001F80
006000
004000
003FE0
00FFC0
010000
020000
020000
018000
007FE0
00FFC0
030000
040000
080000
080000
0F8000
07F800
007E00
000300
000300
030600
03F800
ENDCHAR
STARTCHAR 03BF
ENCODING 959
SWIDTH 1440 0
DWIDTH 24 0
BBX 24 24 0 -3
BITMAP
000000
000000
000000
000000
000000
000000
000000
000000
003E00
00C180
018080
0300C0
0300C0
0600C0
0600C0
0600C0
060180
060180
020300
030600
00F800
000000
000000
000000
ENDCHAR
STARTCHAR 03C0
ENCODING 960
SWIDTH 1440 0
DWIDTH 24 0
BBX 24 24 0 -3
BITMAP
000000
000000
000000
000000
000000
000000
000000
000010
03FFF0
07FFE0
046300
086300
00C600
00C600
018C00
018C00
030800
031840
061880
0E1F00
0C0E00
000000
000000
000000
ENDCHAR
STARTCHAR 03C1
ENCODING 961
SWIDTH 1440 0
DWIDTH 24 0
BBX 24 24 0 -3
BITMAP
000000
000000
000000
000000
000000
000000
000000
000000
000F00
0030C0
006040
00C060
008060
018060
010060
0300C0
0280C0
028180
064300
063C00
060000
0C0000
0C0000
0C0000
ENDCHAR
STARTCHAR 03C2
ENCODING 962
SWIDTH 1440 0
DWIDTH 24 0
BBX 24 24 0 -3
BITMAP
000000
000000
000000
000000
000000
000000
000000
000000
003E00
00C180
0180C0
010060
030060
0300E0
0100C0
018000
00C000
006000
003000
001000
001800
023800
07F000
03E000
ENDCHAR
STARTCHAR 03C3
ENCODING 963
SWIDTH 1440 0
DWIDTH 24 0
BBX 24 24 0 -3
BITMAP
000000
000000
000000
000000
000000
000000
000020
000030
001FF0
007FE0
00C200
018100
030080
0300C0
0600C0
0600C0
060180
060180
020300
030600
00F800
000000
000000
000000
ENDCHAR
STARTCHAR 03C4
ENCODING 964
SWIDTH 1440 0
DWIDTH 24 0
BBX 24 24 0 -3
BITMAP
000000
000000
000000
000000
000000
000000
000000
000010
03FFF0
07FFE0
043000
083000
006000
006000
00C000
00C000
018080
018100
018600
00FC00
007000
000000
000000
000000
ENDCHAR
STARTCHAR 03C5
ENCODING 965
SWIDTH 1440 0
DWIDTH 24 0
BBX 24 24 0 -3
BITMAP
000000
000000
000000
000000
000000
000000
000000
000000
000000
0180C0
018060
018060
018060
0300C0
0300C0
030180
060180
060300
060600
021800
01E000
000000
000000
000000
ENDCHAR
STARTCHAR 03C6
ENCODING 966
SWIDTH 1440 0
DWIDTH 24 0
BBX 24 24 0 -3
BITMAP
000000
000000
000300
000300
000300
000600
000600
000400
000400
007F00
018CC0
030860
060830
0C1830
0C1030
0C1030
0C3060
0620C0
032180
00FE00
006000
006000
00C000
00C000
ENDCHAR
STARTCHAR 03C7
ENCODING 967
SWIDTH 1440 0
DWIDTH 24 0
BBX 24 24 0 -3
BITMAP
000000
000000
000000
000000
000000
000000
000000
000000
000000
01C060
03E0E0
0231C0
041380
001700
001C00
001800
003000
007000
01D000
039000
071040
0E1880
1C0F80
180700
ENDCHAR
STARTCHAR 03C8
ENCODING 968
SWIDTH 1440 0
DWIDTH 24 0
BBX 24 24 0 -3
BITMAP
000000
000000
000300
000300
000300
000200
000600
000600
070460
098470
018C30
018C30
030830
030830
031860
061060
0610C0
063180
022300
01FC00
006000
006000
00C000
00C000
ENDCHAR
STARTCHAR 03C9
ENCODING 969
SWIDTH 1440 0
DWIDTH 24 0
BBX 24 24 0 -3
BITMAP
000000
000000
000000
000000
000000
000000
000000
000000
006040
018020
030030
060010
0C0C18
0C0C18
181C18
181818
181818
183830
083430
0C6460
038380
000000
000000
000000
ENDCHAR
STARTCHAR 0401
ENCODING 1025
SWIDTH 1440 0
DWIDTH 24 0
BBX 24 24 0 -3
BITMAP
01C380
01C380
01C380
000000
000000
0FFFE0
030060
030020
030010
030080
030180
03FF80
030180
030080
030000
030000
030008
030008
030010
030030
0FFFF0
000000
000000
000000
ENDCHAR
STARTCHAR 0410
ENCODING 1040
SWIDTH 1440 0
DWIDTH 24 0
BBX 24 24 0 -3
BITMAP
000000
000000
001000
003000
007800
003800
003C00
002C00
004E00
004600
008700
008300
010380
010180
03FFC0
0200C0
0400E0
040060
080070
080030
3E00FC
000000
000000
000000
ENDCHAR
STARTCHAR 0411
ENCODING 1041
SWIDTH 1440 0
DWIDTH 24 0
BBX 24 24 0 -3
BITMAP
000000
000000
0FFFE0
030060
030020
030010
030010
030000
030000
030000
03FF00
0300C0
030060
030030
030030
030030
030030
030030
030060
0300C0
0FFF00
000000
000000
000000
ENDCHAR
STARTCHAR 0412
ENCODING 1042
SWIDTH 1440 0
DWIDTH 24 0
BBX 24 24 0 -3
BITMAP
000000
000000
0FFE00
030180
0300C0
030060
030060
030060
030060
0300C0
030080
03FF00
0300C0
030060
030030
030030
030030
030030
030060
0300C0
0FFF00
000000
000000
000000
ENDCHAR
STARTCHAR 0413
ENCODING 1043
SWIDTH 1440 0
DWIDTH 24 0
BBX 24 24 0 -3
BITMAP
000000
000000
0FFFE0
030060
030020
030010
030010
030000
030000
030000
030000
030000
030000
030000
030000
030000
030000
030000
030000
030000
0FC000
000000
000000
000000
ENDCHAR
STARTCHAR 0414
ENCODING 1044
SWIDTH 1440 0
DWIDTH 24 0
BBX 24 24 0 -3
BITMAP
000000
000000
01FFF8
002060
002060
002060
002060
002060
002060
002060
006060
004060
004060
004060
004060
00C060
008060
008060
010060
020060
1FFFF8
180018
100008
200004
ENDCHAR
STARTCHAR 0415
ENCODING 1045
SWIDTH 1440 0
DWIDTH 24 0
BBX 24 24 0 -3
BITMAP
000000
000000
0FFFE0
030060
030020
030010
030090
030080
030180
03FF80
030180
030080
030080
030000
030000
030000
030008
030008
030010
030030
0FFFF0
000000
000000
000000
ENDCHAR
STARTCHAR 0416
ENCODING 1046
SWIDTH 1440 0
DWIDTH 24 0
BBX 24 24 0 -3
BITMAP
000000
000000
307E0C
78181E
78181E
081810
0C1830
041820
041820
021840
011880
03FFC0
0318C0
061860
061860
0C1830
0C1830
181818
181818
30180C
FC7E3F
000000
000000
000000
ENDCHAR
STARTCHAR 0417
ENCODING 1047
SWIDTH 1440 0
DWIDTH 24 0
BBX 24 24 0 -3
BITMAP
000000
000000
003E00
01C180
0700C0
060060
040060
000060
000060
0000C0
000180
001E00
0001C0
000060
000030
000030
040030
060070
0700E0
01C1C0
003F00
000000
000000
000000
ENDCHAR
STARTCHAR 0418
ENCODING 1048
SWIDTH 1440 0
DWIDTH 24 0
BBX 24 24 0 -3
BITMAP
000000
000000
1F81F8
060060
060060
0600E0
060160
060260
060260
060460
060860
060860
061060
062060
064060
064060
068060
070060
060060
060060
1F81F8
000000
000000
000000
ENDCHAR
STARTCHAR 0419
ENCODING 1049
SWIDTH 1440 0
DWIDTH 24 0
BBX 24 24 0 -3
BITMAP
00C300
01C380
018180
00C300
003C00
1F81F8
060060
060060
0600E0
060160
060260
060460
060860
061060
062060
064060
068060
070060
060060
060060
1F81F8
000000
000000
000000
ENDCHAR
STARTCHAR 041A
ENCODING 1050
SWIDTH 1440 0
DWIDTH 24 0
BBX 24 24 0 -3
BITMAP
000000
000000
1F80E0
0601F0
060330
060200
060600
060400
060C00
061800
07F000
063800
061C00
060C00
060E00
060700
060380
060180
0601C0
0600E0
1F83F8
000000
000000
000000
ENDCHAR
STARTCHAR 041B
ENCODING 1051
SWIDTH 1440 0
DWIDTH 24 0
BBX 24 24 0 -3
BITMAP
000000
000000
01FFF8
002060
002060
002060
002060
002060
002060
002060
006060
004060
004060
004060
004060
004060
18C060
388060
308060
310060
1E01F8
000000
000000
000000
ENDCHAR
STARTCHAR 041C
ENCODING 1052
SWIDTH 1440 0
DWIDTH 24 0
BBX 24 24 0 -3
BITMAP
000000
000000
1F00F8
0700E0
0700E0
058160
058160
058160
04C260
08C230
08C230
086430
086430
086430
083830
103818
103818
101018
101018
100018
7C007E
000000
000000
000000
ENDCHAR
STARTCHAR 041D
ENCODING 1053
SWIDTH 1440 0
DWIDTH 24 0
BBX 24 24 0 -3
BITMAP
000000
000000
1F81F8
060060
060060
060060
060060
060060
060060
07FFE0
060060
060060
060060
060060
060060
060060
060060
060060
060060
060060
1F81F8
000000
000000
000000
ENDCHAR
STARTCHAR 041E
ENCODING 1054
SWIDTH 1440 0
DWIDTH 24 0
BBX 24 24 0 -3
BITMAP
000000
000000
007E00
018180
0300C0
060060
0C0030
0C0030
180018
180018
180018
180018
180018
180018
180018
0C0030
0C0030
060060
0300C0
018180
007E00
000000
000000
000000
ENDCHAR
STARTCHAR 041F
ENCODING 1055
SWIDTH 1440 0
DWIDTH 24 0
BBX 24 24 0 -3
BITMAP
000000
000000
1FFFF8
060060
060060
060060
060060
060060
060060
060060
060060
060060
060060
060060
060060
060060
060060
060060
060060
060060
1F81F8
000000
000000
000000
ENDCHAR
STARTCHAR 0420
ENCODING 1056
SWIDTH 1440 0
DWIDTH 24 0
BBX 24 24 0 -3
BITMAP
000000
000000
0FFF00
0301C0
030060
030030
030030
030030
030030
030030
030030
030060
0301C0
03FF00
030000
030000
030000
030000
030000
030000
0FC000
000000
000000
000000
ENDCHAR
STARTCHAR 0421
ENCODING 1057
SWIDTH 1440 0
DWIDTH 24 0
BBX 24 24 0 -3
BITMAP
000000
000000
003F00
00C1E0
030060
060020
0C0020
0C0000
180000
180000
180000
180000
180000
180000
180000
0C0000
0C0020
060020
030060
00C1E0
003F00
000000
000000
000000
ENDCHAR
STARTCHAR 0422
ENCODING 1058
SWIDTH 1440 0
DWIDTH 24 0
BBX 24 24 0 -3
BITMAP
000000
000000
0FFFF0
0C1830
181818
101808
201804
001800
001800
001800
001800
001800
001800
001800
001800
001800
001800
001800
001800
001800
007E00
000000
000000
000000
ENDCHAR
STARTCHAR 0423
ENCODING 1059
SWIDTH 1440 0
DWIDTH 24 0
BBX 24 24 0 -3
BITMAP
000000
000000
3F80FC
0E0030
060020
060020
030040
030040
018080
018080
00C100
00C100
006200
006200
003400
003C00
061800
0E1800
0C1000
042000
03C000
000000
000000
000000
ENDCHAR
STARTCHAR 0424
ENCODING 1060
SWIDTH 1440 0
DWIDTH 24 0
BBX 24 24 0 -3
BITMAP
000000
000000
00FF00
001800
001800
00FF00
0318C0
061860
0C1830
181818
181818
181818
181818
181818
0C1830
061860
0318C0
00FF00
001800
001800
00FF00
000000
000000
000000
ENDCHAR
STARTCHAR 0425
ENCODING 1061
SWIDTH 1440 0
DWIDTH 24 0
BBX 24 24 0 -3
BITMAP
000000
000000
1F80F8
070060
030040
018080
01C100
00C100
006200
007400
003800
001800
001C00
002E00
004700
004300
008180
0101C0
0200E0
060070
1F00FC
000000
000000
000000
ENDCHAR
STARTCHAR 0426
ENCODING 1062
SWIDTH 1440 0
DWIDTH 24 0
BBX 24 24 0 -3
BITMAP
000000
000000
1F83F0
0600C0
0600C0
0600C0
0600C0
0600C0
0600C0
0600C0
0600C0
0600C0
0600C0
0600C0
0600C0
0600C0
0600C0
0600C0
0600C0
0600C0
1FFFF8
000018
000008
000004
ENDCHAR
STARTCHAR 0427
ENCODING 1063
SWIDTH 1440 0
DWIDTH 24 0
BBX 24 24 0 -3
BITMAP
000000
000000
1F81F8
060060
060060
060060
060060
060060
060060
060060
060060
060060
070060
0381E0
00FE60
000060
000060
000060
000060
000060
0001F8
000000
000000
000000
ENDCHAR
STARTCHAR 0428
ENCODING 1064
SWIDTH 1440 0
DWIDTH 24 0
BBX 24 24 0 -3
BITMAP
000000
000000
7E7E7E
181818
181818
181818
181818
181818
181818
181818
181818
181818
181818
181818
181818
181818
181818
181818
181818
181818
7FFFFE
000000
000000
000000
ENDCHAR
STARTCHAR 0429
ENCODING 1065
SWIDTH 1440 0
DWIDTH 24 0
BBX 24 24 0 -3
BITMAP
000000
000000
7E7E7E
181818
181818
181818
181818
181818
181818
181818
181818
181818
181818
181818
181818
181818
181818
181818
181818
181818
7FFFFE
000006
000002
000001
ENDCHAR
STARTCHAR 042A
ENCODING 1066
SWIDTH 1440 0
DWIDTH 24 0
BBX 24 24 0 -3
BITMAP
000000
000000
3FF800
306000
206000
406000
406000
006000
006000
006000
007FC0
006030
006018
00600C
00600C
00600C
00600C
00600C
006018
006030
01FFC0
000000
000000
000000
ENDCHAR
STARTCHAR 042B
ENCODING 1067
SWIDTH 1440 0
DWIDTH 24 0
BBX 24 24 0 -3
BITMAP
000000
000000
7E007E
180018
180018
180018
180018
180018
180018
180018
1FF018
180C18
180618
180318
180318
180318
180318
180318
180618
180C18
7FF07E
000000
000000
000000
ENDCHAR
STARTCHAR 042C
ENCODING 1068
SWIDTH 1440 0
DWIDTH 24 0
BBX 24 24 0 -3
BITMAP
000000
000000
0FC000
030000
030000
030000
030000
030000
030000
030000
03FF00
0300C0
030060
030030
030030
030030
030030
030030
030060
0300C0
0FFF00
000000
000000
000000
ENDCHAR
STARTCHAR 042D
ENCODING 1069
SWIDTH 1440 0
DWIDTH 24 0
BBX 24 24 0 -3
BITMAP
000000
000000
01F800
0F0600
0C0180
0800C0
080060
000060
000030
000030
003870
00FFB0
010730
000030
000030
000060
080060
0800C0
0C0180
0F0600
01F800
000000
000000
000000
ENDCHAR
STARTCHAR 042E
ENCODING 1070
SWIDTH 1440 0
DWIDTH 24 0
BBX 24 24 0 -3
BITMAP
000000
000000
7E07C0
181830
183018
18600C
18600C
18C006
18C006
1FC006
18C006
18C006
18C006
18C006
18C006
18C006
18600C
18600C
183018
181830
7E07C0
000000
000000
000000
ENDCHAR
STARTCHAR 042F
ENCODING 1071
SWIDTH 1440 0
DWIDTH 24 0
BBX 24 24 0 -3
BITMAP
000000
000000
00FFF0
0300C0
0600C0
0C00C0
0C00C0
0C00C0
0C00C0
0C00C0
0600C0
0300C0
00FFC0
0060C0
0060C0
00C0C0
00C0C0
0180C0
0300C0
0600C0
1803F0
000000
000000
000000
ENDCHAR
STARTCHAR 0430
ENCODING 1072
SWIDTH 1440 0
DWIDTH 24 0
BBX 24 24 0 -3
BITMAP
000000
000000
000000
000000
000000
000000
000000
000000
007C00
03C300
030180
000180
000180
001F80
00E180
030180
060180
060180
060180
030780
00F9E0
000000
000000
000000
ENDCHAR
STARTCHAR 0431
ENCODING 1073
SWIDTH 1440 0
DWIDTH 24 0
BBX 24 24 0 -3
BITMAP
000000
000000
000040
003FC0
00FF80
018000
030000
020000
043C00
04C300
058180
0700C0
0700C0
060060
060060
060060
0300C0
0300C0
018180
00C300
003C00
000000
000000
000000
ENDCHAR
STARTCHAR 0432
ENCODING 1074
SWIDTH 1440 0
DWIDTH 24 0
BBX 24 24 0 -3
BITMAP
000000
000000
000000
000000
000000
000000
000000
000000
07FE00
018180
0180C0
0180C0
0180C0
018180
01FE00
018180
0180C0
0180C0
0180C0
018180
07FE00
000000
000000
000000
ENDCHAR
STARTCHAR 0433
ENCODING 1075
SWIDTH 1440 0
DWIDTH 24 0
BBX 24 24 0 -3
BITMAP
000000
000000
000000
000000
000000
000000
000000
000000
07FFC0
0180C0
018040
018020
018000
018000
018000
018000
018000
018000
018000
018000
07E000
000000
000000
000000
ENDCHAR
STARTCHAR 0434
ENCODING 1076
SWIDTH 1440 0
DWIDTH 24 0
BBX 24 24 0 -3
BITMAP
000000
000000
000000
000000
000000
000000
000000
000000
00FFE0
002180
002180
002180
002180
002180
002180
006180
004180
004180
008180
010180
07FFE0
060060
040020
080010
ENDCHAR
STARTCHAR 0435
ENCODING 1077
SWIDTH 1440 0
DWIDTH 24 0
BBX 24 24 0 -3
BITMAP
000000
000000
000000
000000
000000
000000
000000
000000
003C00
00C300
018180
030180
0300C0
07FFC0
060000
060000
030000
030000
018040
00C180
003E00
000000
000000
000000
ENDCHAR
STARTCHAR 0436
ENCODING 1078
SWIDTH 1440 0
DWIDTH 24 0
BBX 24 24 0 -3
BITMAP
000000
000000
000000
000000
000000
000000
000000
000000
187E18
1C1838
041820
061860
021840
011880
00FF00
019980
019980
0318C0
061860
061860
0C1830
3E7E7C
000000
000000
ENDCHAR
STARTCHAR 0437
ENCODING 1079
SWIDTH 1440 0
DWIDTH 24 0
BBX 24 24 0 -3
BITMAP
000000
000000
000000
000000
000000
000000
000000
000000
007E00
03C380
0300C0
0200C0
0000C0
000180
007E00
000180
0000C0
0200C0
0300C0
03C180
007E00
000000
000000
000000
ENDCHAR
STARTCHAR 0438
ENCODING 1080
SWIDTH 1440 0
DWIDTH 24 0
BBX 24 24 0 -3
BITMAP
000000
000000
000000
000000
000000
000000
000000
000000
0781E0
0300C0
0301C0
0302C0
0304C0
0308C0
0310C0
0320C0
0340C0
0380C0
0300C0
0300C0
0781E0
000000
000000
000000
ENDCHAR
STARTCHAR 0439
ENCODING 1081
SWIDTH 1440 0
DWIDTH 24 0
BBX 24 24 0 -3
BITMAP
000000
000000
000000
006600
00E700
00C300
004200
003C00
0781E0
0300C0
0301C0
0302C0
0304C0
0308C0
0310C0
0320C0
0340C0
0380C0
0300C0
0300C0
0781E0
000000
000000
000000
ENDCHAR
STARTCHAR 043A
ENCODING 1082
SWIDTH 1440 0
DWIDTH 24 0
BBX 24 24 0 -3
BITMAP
000000
000000
000000
000000
000000
000000
000000
000000
07E0C0
0181E0
018260
018400
019800
01F000
01B800
019C00
018E00
018700
018380
0181C0
07E3F0
000000
000000
000000
ENDCHAR
STARTCHAR 043B
ENCODING 1083
SWIDTH 1440 0
DWIDTH 24 0
BBX 24 24 0 -3
BITMAP
000000
000000
000000
000000
000000
000000
000000
000000
00FFE0
002180
002180
002180
002180
002180
006180
004180
0C4180
1CC180
188180
190180
0E07E0
000000
000000
000000
ENDCHAR
STARTCHAR 043C
ENCODING 1084
SWIDTH 1440 0
DWIDTH 24 0
BBX 24 24 0 -3
BITMAP
000000
000000
000000
000000
000000
000000
000000
000000
0F00F0
0700E0
058160
058160
04C260
04C260
04C260
046460
046460
043860
043860
041060
0F10F0
000000
000000
000000
ENDCHAR
STARTCHAR 043D
ENCODING 1085
SWIDTH 1440 0
DWIDTH 24 0
BBX 24 24 0 -3
BITMAP
000000
000000
000000
000000
000000
000000
000000
000000
0781E0
0300C0
0300C0
0300C0
0300C0
03FFC0
0300C0
0300C0
0300C0
0300C0
0300C0
0300C0
0781E0
000000
000000
000000
ENDCHAR
STARTCHAR 043E
ENCODING 1086
SWIDTH 1440 0
DWIDTH 24 0
BBX 24 24 0 -3
BITMAP
000000
000000
000000
000000
000000
000000
000000
000000
003C00
00C300
018180
0300C0
0300C0
060060
060060
060060
0300C0
0300C0
018180
00C300
003C00
000000
000000
000000
ENDCHAR
STARTCHAR 043F
ENCODING 1087
SWIDTH 1440 0
DWIDTH 24 0
BBX 24 24 0 -3
BITMAP
000000
000000
000000
000000
000000
000000
000000
000000
07FFE0
018180
018180
018180
018180
018180
018180
018180
018180
018180
018180
018180
07C3E0
000000
000000
000000
ENDCHAR
STARTCHAR 0440
ENCODING 1088
SWIDTH 1440 0
DWIDTH 24 0
BBX 24 24 0 -3
BITMAP
000000
000000
000000
000000
000000
000000
000000
000000
031E00
0F6180
0380C0
0300C0
030060
030060
030060
0300C0
0300C0
03C180
033E00
030000
030000
030000
030000
0FC000
ENDCHAR
STARTCHAR 0441
ENCODING 1089
SWIDTH 1440 0
DWIDTH 24 0
BBX 24 24 0 -3
BITMAP
000000
000000
000000
000000
000000
000000
000000
000000
003E00
00C180
0180C0
0300C0
030000
060000
060000
060000
030000
030000
018040
00C180
003E00
000000
000000
000000
ENDCHAR
STARTCHAR 0442
ENCODING 1090
SWIDTH 1440 0
DWIDTH 24 0
BBX 24 24 0 -3
BITMAP
000000
000000
000000
000000
000000
000000
000000
000000
03FFC0
0318C0
021840
041820
001800
001800
001800
001800
001800
001800
001800
001800
007E00
000000
000000
000000
ENDCHAR
STARTCHAR 0443
ENCODING 1091
SWIDTH 1440 0
DWIDTH 24 0
BBX 24 24 0 -3
BITMAP
000000
000000
000000
000000
000000
000000
000000
000000
07E1F0
018040
018040
00C080
00C080
00C100
006100
006200
003200
003400
003400
001800
001800
061000
062000
03C000
ENDCHAR
STARTCHAR 0444
ENCODING 1092
SWIDTH 1440 0
DWIDTH 24 0
BBX 24 24 0 -3
BITMAP
000000
000000
001800
007800
001800
001800
001800
001800
01DB80
023C40
061860
041820
0C1830
0C1830
0C1830
0C1830
0C1830
041820
061860
023C40
01DB80
001800
001800
007E00
ENDCHAR
STARTCHAR 0445
ENCODING 1093
SWIDTH 1440 0
DWIDTH 24 0
BBX 24 24 0 -3
BITMAP
000000
000000
000000
000000
000000
000000
000000
000000
0FE3F0
038080
01C100
00E200
007400
003800
001C00
002E00
004700
008380
0101C0
0200E0
0F83F8
000000
000000
000000
ENDCHAR
STARTCHAR 0446
ENCODING 1094
SWIDTH 1440 0
DWIDTH 24 0
BBX 24 24 0 -3
BITMAP
000000
000000
000000
000000
000000
000000
000000
000000
07C3E0
018180
018180
018180
018180
018180
018180
018180
018180
018180
018180
018180
07FFE0
000060
000020
000010
ENDCHAR
STARTCHAR 0447
ENCODING 1095
SWIDTH 1440 0
DWIDTH 24 0
BBX 24 24 0 -3
BITMAP
000000
000000
000000
000000
000000
000000
000000
000000
07C3E0
018180
018180
018180
018180
018180
00C380
003D80
000180
000180
000180
000180
0007E0
000000
000000
000000
ENDCHAR
STARTCHAR 0448
ENCODING 1096
SWIDTH 1440 0
DWIDTH 24 0
BBX 24 24 0 -3
BITMAP
000000
000000
000000
000000
000000
000000
000000
000000
0F3CF0
061860
061860
061860
061860
061860
061860
061860
061860
061860
061860
061860
0FFFF0
000000
000000
000000
ENDCHAR
STARTCHAR 0449
ENCODING 1097
SWIDTH 1440 0
DWIDTH 24 0
BBX 24 24 0 -3
BITMAP
000000
000000
000000
000000
000000
000000
000000
000000
0F3CF0
061860
061860
061860
061860
061860
061860
061860
061860
061860
061860
061860
0FFFF8
000018
000008
000004
ENDCHAR
STARTCHAR 044A
ENCODING 1098
SWIDTH 1440 0
DWIDTH 24 0
BBX 24 24 0 -3
BITMAP
000000
000000
000000
000000
000000
000000
000000
000000
0FFC00
0C3000
083000
103000
003000
003FC0
003030
003018
003018
003018
003018
003030
00FFC0
000000
000000
000000
ENDCHAR
STARTCHAR 044B
ENCODING 1099
SWIDTH 1440 0
DWIDTH 24 0
BBX 24 24 0 -3
BITMAP
000000
000000
000000
000000
000000
000000
000000
000000
1F81F8
060060
060060
060060
060060
07E060
061860
060C60
060C60
060C60
060C60
061860
1FE1F8
000000
000000
000000
ENDCHAR
STARTCHAR 044C
ENCODING 1100
SWIDTH 1440 0
DWIDTH 24 0
BBX 24 24 0 -3
BITMAP
000000
000000
000000
000000
000000
000000
000000
000000
03F000
00C000
00C000
00C000
00C000
00FF00
00C0C0
00C060
00C060
00C060
00C060
00C0C0
03FF00
000000
000000
000000
ENDCHAR
STARTCHAR 044D
ENCODING 1101
SWIDTH 1440 0
DWIDTH 24 0
BBX 24 24 0 -3
BITMAP
000000
000000
000000
000000
000000
000000
000000
000000
007E00
01C180
0180C0
010060
001860
003FB0
004630
000030
000060
000060
0100C0
00C180
003E00
000000
000000
000000
ENDCHAR
STARTCHAR 044E
ENCODING 1102
SWIDTH 1440 0
DWIDTH 24 0
BBX 24 24 0 -3
BITMAP
000000
000000
000000
000000
000000
000000
000000
000000
1F8380
060C60
061830
061830
063018
07F018
063018
063018
063018
061830
061830
060C60
1F8380
000000
000000
000000
ENDCHAR
STARTCHAR 044F
ENCODING 1103
SWIDTH 1440 0
DWIDTH 24 0
BBX 24 24 0 -3
BITMAP
000000
000000
000000
000000
000000
000000
000000
000000
007FE0
018180
030180
030180
030180
018180
007F80
006180
00E180
00C180
01C180
018180
0787E0
000000
000000
000000
ENDCHAR
STARTCHAR 0451
ENCODING 1105
SWIDTH 1440 0
DWIDTH 24 0
BBX 24 24 0 -3
BITMAP
000000
000000
000000
01C380
01C380
01C380
000000
000000
003C00
00C300
018180
030180
0300C0
07FFC0
060000
060000
030000
030000
018040
00C180
003E00
000000
000000
000000
ENDCHAR
STARTCHAR 1E3E
ENCODING 7742
SWIDTH 1440 0
DWIDTH 24 0
BBX 24 24 0 -3
BITMAP
001E00
003800
006000
008000
3F00FC
0B00B0
0B00B0
098130
098130
098130
08C230
08C230
08C230
086430
086430
086430
082830
083830
083830
081030
3E10FC
000000
000000
000000
ENDCHAR
STARTCHAR 1E3F
ENCODING 7743
SWIDTH 1440 0
DWIDTH 24 0
BBX 24 24 0 -3
BITMAP
000000
000000
000000
001E00
003800
006000
008000
000000
0CE1C0
3F1620
0C1830
0C1830
0C1830
0C1830
0C1830
0C1830
0C1830
0C1830
0C1830
0C1830
3E3C7C
000000
000000
000000
ENDCHAR
STARTCHAR 1F70
ENCODING 8048
SWIDTH 1440 0
DWIDTH 24 0
BBX 24 24 0 -3
BITMAP
000000
000000
000000
00F000
003800
000C00
000200
000000
007C80
018380
030180
030180
060180
060180
060180
060180
060180
030180
030190
018390
007CE0
000000
000000
000000
ENDCHAR
STARTCHAR 1F71
ENCODING 8049
SWIDTH 1440 0
DWIDTH 24 0
BBX 24 24 0 -3
BITMAP
000000
000000
000000
003C00
007000
00C000
010000
000000
007C80
018380
030180
030180
060180
060180
060180
060180
060180
030180
030190
018390
007CE0
000000
000000
000000
ENDCHAR
STARTCHAR 1F72
ENCODING 8050
SWIDTH 1440 0
DWIDTH 24 0
BBX 24 24 0 -3
BITMAP
000000
000000
000000
007800
001C00
000600
000100
000000
003E00
00E380
018180
018080
018000
00C000
003C00
00C000
018000
018080
018180
00C380
003E00
000000
000000
000000
ENDCHAR
STARTCHAR 1F73
ENCODING 8051
SWIDTH 1440 0
DWIDTH 24 0
BBX 24 24 0 -3
BITMAP
000000
000000
000000
001E00
003800
006000
008000
000000
003E00
00E380
018180
018080
018000
00C000
003C00
00C000
018000
018080
018180
00C380
003E00
000000
000000
000000
ENDCHAR
STARTCHAR 2000
ENCODING 8192
SWIDTH 1440 0
DWIDTH 24 0
BBX 24 24 0 -3
BITMAP
000000
000000
000000
000000
000000
000000
000000
000000
000000
000000
000000
000000
000000
000000
000000
000000
000000
000000
000000
000000
000000
000000
000000
000000
ENDCHAR
STARTCHAR 2001
ENCODING 8193
SWIDTH 1440 0
DWIDTH 24 0
BBX 24 24 0 -3
BITMAP
000000
000000
000000
000000
000000
000000
000000
000000
000000
000000
000000
000000
000000
000000
000000
000000
000000
000000
000000
000000
000000
000000
000000
000000
ENDCHAR
STARTCHAR 2002
ENCODING 8194
SWIDTH 1440 0
DWIDTH 24 0
BBX 24 24 0 -3
BITMAP
000000
000000
000000
000000
000000
000000
000000
000000
000000
000000
000000
000000
000000
000000
000000
000000
000000
000000
000000
000000
000000
000000
000000
000000
ENDCHAR
STARTCHAR 2003
ENCODING 8195
SWIDTH 1440 0
DWIDTH 24 0
BBX 24 24 0 -3
BITMAP
000000
000000
000000
000000
000000
000000
000000
000000
000000
000000
000000
000000
000000
000000
000000
000000
000000
000000
000000
000000
000000
000000
000000
000000
ENDCHAR
STARTCHAR 2004
ENCODING 8196
SWIDTH 1440 0
DWIDTH 24 0
BBX 24 24 0 -3
BITMAP
000000
000000
000000
000000
000000
000000
000000
000000
000000
000000
000000
000000
000000
000000
000000
000000
000000
000000
000000
000000
000000
000000
000000
000000
ENDCHAR
STARTCHAR 2005
ENCODING 8197
SWIDTH 1440 0
DWIDTH 24 0
BBX 24 24 0 -3
BITMAP
000000
000000
000000
000000
000000
000000
000000
000000
000000
000000
000000
000000
000000
000000
000000
000000
000000
000000
000000
000000
000000
000000
000000
000000
ENDCHAR
STARTCHAR 2006
ENCODING 8198
SWIDTH 1440 0
DWIDTH 24 0
BBX 24 24 0 -3
BITMAP
000000
000000
000000
000000
000000
000000
000000
000000
000000
000000
000000
000000
000000
000000
000000
000000
000000
000000
000000
000000
000000
000000
000000
000000
ENDCHAR
STARTCHAR 2007
ENCODING 8199
SWIDTH 1440 0
DWIDTH 24 0
BBX 24 24 0 -3
BITMAP
000000
000000
000000
000000
000000
000000
000000
000000
000000
000000
000000
000000
000000
000000
000000
000000
000000
000000
000000
000000
000000
000000
000000
000000
ENDCHAR
STARTCHAR 2008
ENCODING 8200
SWIDTH 1440 0
DWIDTH 24 0
BBX 24 24 0 -3
BITMAP
000000
000000
000000
000000
000000
000000
000000
000000
000000
000000
000000
000000
000000
000000
000000
000000
000000
000000
000000
000000
000000
000000
000000
000000
ENDCHAR
STARTCHAR 2009
ENCODING 8201
SWIDTH 1440 0
DWIDTH 24 0
BBX 24 24 0 -3
BITMAP
000000
000000
000000
000000
000000
000000
000000
000000
000000
000000
000000
000000
000000
000000
000000
000000
000000
000000
000000
000000
000000
000000
000000
000000
ENDCHAR
STARTCHAR 200A
ENCODING 8202
SWIDTH 1440 0
DWIDTH 24 0
BBX 24 24 0 -3
BITMAP
000000
000000
000000
000000
000000
000000
000000
000000
000000
000000
000000
000000
000000
000000
000000
000000
000000
000000
000000
000000
000000
000000
000000
000000
ENDCHAR
STARTCHAR 200B
ENCODING 8203
SWIDTH 720 0
DWIDTH 12 0
BBX 1 1 0 0
BITMAP
00
ENDCHAR
STARTCHAR 200C
ENCODING 8204
SWIDTH 720 0
DWIDTH 12 0
BBX 1 1 0 0
BITMAP
00
ENDCHAR
STARTCHAR 200D
ENCODING 8205
SWIDTH 720 0
DWIDTH 12 0
BBX 1 1 0 0
BITMAP
00
ENDCHAR
STARTCHAR 200E
ENCODING 8206
SWIDTH 720 0
DWIDTH 12 0
BBX 1 1 0 0
BITMAP
00
ENDCHAR
STARTCHAR 200F
ENCODING 8207
SWIDTH 720 0
DWIDTH 12 0
BBX 1 1 0 0
BITMAP
00
ENDCHAR
STARTCHAR 2010
ENCODING 8208
SWIDTH 1440 0
DWIDTH 24 0
BBX 24 24 0 -3
BITMAP
000000
000000
000000
000000
000000
000000
000000
000000
000000
000000
000000
000000
007E00
000000
000000
000000
000000
000000
000000
000000
000000
000000
000000
000000
ENDCHAR
STARTCHAR 2013
ENCODING 8211
SWIDTH 1440 0
DWIDTH 24 0
BBX 24 24 0 -3
BITMAP
000000
000000
000000
000000
000000
000000
000000
000000
000000
000000
000000
000000
03FFC0
000000
000000
000000
000000
000000
000000
000000
000000
000000
000000
000000
ENDCHAR
STARTCHAR 2014
ENCODING 8212
SWIDTH 1440 0
DWIDTH 24 0
BBX 24 24 0 -3
BITMAP
000000
000000
000000
000000
000000
000000
000000
000000
000000
000000
000000
000000
FFFFFF
000000
000000
000000
000000
000000
000000
000000
000000
000000
000000
000000
ENDCHAR
STARTCHAR 2015
ENCODING 8213
SWIDTH 1440 0
DWIDTH 24 0
BBX 24 24 0 -3
BITMAP
000000
000000
000000
000000
000000
000000
000000
000000
000000
000000
000000
000000
FFFFFF
000000
000000
000000
000000
000000
000000
000000
000000
000000
000000
000000
ENDCHAR
STARTCHAR 2016
ENCODING 8214
SWIDTH 1440 0
DWIDTH 24 0
BBX 24 24 0 -3
BITMAP
004200
004200
004200
004200
004200
004200
004200
004200
004200
004200
004200
004200
004200
004200
004200
004200
004200
004200
004200
004200
004200
004200
004200
004200
ENDCHAR
STARTCHAR 2018
ENCODING 8216
SWIDTH 1440 0
DWIDTH 24 0
BBX 24 24 0 -3
BITMAP
000010
000020
000060
000060
000070
000070
000000
000000
000000
000000
000000
000000
000000
000000
000000
000000
000000
000000
000000
000000
000000
000000
000000
000000
ENDCHAR
STARTCHAR 2019
ENCODING 8217
SWIDTH 1440 0
DWIDTH 24 0
BBX 24 24 0 -3
BITMAP
0E0000
0E0000
060000
060000
040000
080000
000000
000000
000000
000000
000000
000000
000000
000000
000000
000000
000000
000000
000000
000000
000000
000000
000000
000000
ENDCHAR
STARTCHAR 201C
ENCODING 8220
SWIDTH 1440 0
DWIDTH 24 0
BBX 24 24 0 -3
BITMAP
000084
000108
000318
000318
00039C
00039C
000000
000000
000000
000000
000000
000000
000000
000000
000000
000000
000000
000000
000000
000000
000000
000000
000000
000000
ENDCHAR
STARTCHAR 201D
ENCODING 8221
SWIDTH 1440 0
DWIDTH 24 0
BBX 24 24 0 -3
BITMAP
39C000
39C000
18C000
18C000
108000
210000
000000
000000
000000
000000
000000
000000
000000
000000
000000
000000
000000
000000
000000
000000
000000
000000
000000
000000
ENDCHAR
STARTCHAR 2020
ENCODING 8224
SWIDTH 1440 0
DWIDTH 24 0
BBX 24 24 0 -3
BITMAP
001000
003800
003800
003800
001000
019300
03FF80
019300
001000
001000
007C00
003800
003800
003800
003800
003800
003800
003800
003800
001000
001000
001000
001000
001000
ENDCHAR
STARTCHAR 2021
ENCODING 8225
SWIDTH 1440 0
DWIDTH 24 0
BBX 24 24 0 -3
BITMAP
001000
003800
003800
001000
019300
03FF80
019300
001000
007C00
003800
003800
001000
001000
003800
003800
007C00
001000
019300
03FF80
019300
001000
003800
003800
001000
ENDCHAR
STARTCHAR 2022
ENCODING 8226
SWIDTH 1440 0
DWIDTH 24 0
BBX 24 24 0 -3
BITMAP
000000
000000
000000
000000
000000
000000
000000
000000
003C00
007E00
00FF00
00FF00
00FF00
00FF00
007E00
003C00
000000
000000
000000
000000
000000
000000
000000
000000
ENDCHAR
STARTCHAR 2025
ENCODING 8229
SWIDTH 1440 0
DWIDTH 24 0
BBX 24 24 0 -3
BITMAP
000000
000000
000000
000000
000000
000000
000000
000000
000000
000000
000000
0E00E0
0E00E0
0E00E0
000000
000000
000000
000000
000000
000000
000000
000000
000000
000000
ENDCHAR
STARTCHAR 2026
ENCODING 8230
SWIDTH 1440 0
DWIDTH 24 0
BBX 24 24 0 -3
BITMAP
000000
000000
000000
000000
000000
000000
000000
000000
000000
000000
000000
383838
383838
383838
000000
000000
000000
000000
000000
000000
000000
000000
000000
000000
ENDCHAR
STARTCHAR 2030
ENCODING 8240
SWIDTH 1440 0
DWIDTH 24 0
BBX 24 24 0 -3
BITMAP
000000
1C0200
220200
220400
630800
630800
631000
632000
222000
224000
1C8000
008000
010000
023838
024444
044444
08C6C6
08C6C6
10C6C6
10C6C6
204444
404444
403838
000000
ENDCHAR
STARTCHAR 2032
ENCODING 8242
SWIDTH 1440 0
DWIDTH 24 0
BBX 24 24 0 -3
BITMAP
000000
000000
038000
030000
060000
040000
080000
000000
000000
000000
000000
000000
000000
000000
000000
000000
000000
000000
000000
000000
000000
000000
000000
000000
ENDCHAR
STARTCHAR 2033
ENCODING 8243
SWIDTH 1440 0
DWIDTH 24 0
BBX 24 24 0 -3
BITMAP
000000
000000
1CE000
18C000
318000
210000
420000
000000
000000
000000
000000
000000
000000
000000
000000
000000
000000
000000
000000
000000
000000
000000
000000
000000
ENDCHAR
STARTCHAR 203B
ENCODING 8251
SWIDTH 1440 0
DWIDTH 24 0
BBX 24 24 0 -3
BITMAP
000000
000000
000000
101808
083C10
043C20
021840
010080
008100
004200
0C2430
1E1878
1E1878
0C2430
004200
008100
010080
021840
043C20
083C10
101808
000000
000000
000000
ENDCHAR
STARTCHAR 203C
ENCODING 8252
SWIDTH 1440 0
DWIDTH 24 0
BBX 24 24 0 -3
BITMAP
000000
000000
01C380
01C380
01C380
01C380
01C380
01C380
01C380
01C380
01C380
008100
008100
008100
008100
008100
000000
000000
01C380
01C380
01C380
000000
000000
000000
ENDCHAR
STARTCHAR 203E
ENCODING 8254
SWIDTH 1440 0
DWIDTH 24 0
BBX 24 24 0 -3
BITMAP
FFFFFF
000000
000000
000000
000000
000000
000000
000000
000000
000000
000000
000000
000000
000000
000000
000000
000000
000000
000000
000000
000000
000000
000000
000000
ENDCHAR
STARTCHAR 203F
ENCODING 8255
SWIDTH 1440 0
DWIDTH 24 0
BBX 24 24 0 -3
BITMAP
000000
000000
000000
000000
000000
000000
000000
000000
000000
000000
000000
000000
000000
000000
000000
000000
000000
000000
400002
30000C
1F00F8
07FFE0
00FF00
000000
ENDCHAR
STARTCHAR 2042
ENCODING 8258
SWIDTH 1440 0
DWIDTH 24 0
BBX 24 24 0 -3
BITMAP
001000
003800
003800
039380
01D700
003800
003800
01D700
039380
003800
003800
001000
040040
0E00E0
0E00E0
E4EE4E
75C75C
0E00E0
0E00E0
75C75C
E4EE4E
0E00E0
0E00E0
040040
ENDCHAR
STARTCHAR 2047
ENCODING 8263
SWIDTH 1440 0
DWIDTH 24 0
BBX 24 24 0 -3
BITMAP
000000
000000
0F00F0
30C30C
606606
603603
703703
303303
006006
006006
00C00C
018018
030030
020020
040040
040040
000000
000000
0E00E0
0E00E0
0E00E0
000000
000000
000000
ENDCHAR
STARTCHAR 2048
ENCODING 8264
SWIDTH 1440 0
DWIDTH 24 0
BBX 24 24 0 -3
BITMAP
000000
000000
07C070
183070
301870
300C70
380C70
180C70
001870
001870
003070
006020
00C020
008020
010020
010020
000000
000000
038070
038070
038070
000000
000000
000000
ENDCHAR
STARTCHAR 2049
ENCODING 8265
SWIDTH 1440 0
DWIDTH 24 0
BBX 24 24 0 -3
BITMAP
000000
000000
0E07C0
0E1830
0E3018
0E300C
0E380C
0E180C
0E0018
0E0018
0E0030
040060
0400C0
040080
040100
040100
000000
000000
0E0380
0E0380
0E0380
000000
000000
000000
ENDCHAR
STARTCHAR 2051
ENCODING 8273
SWIDTH 1440 0
DWIDTH 24 0
BBX 24 24 0 -3
BITMAP
001000
003800
003800
039380
01D700
003800
003800
01D700
039380
003800
003800
000000
001000
003800
003800
039380
01D700
003800
003800
01D700
039380
003800
003800
001000
ENDCHAR
STARTCHAR 20AC
ENCODING 8364
SWIDTH 1440 0
DWIDTH 24 0
BBX 24 24 0 -3
BITMAP
000000
000000
001F00
007FC0
00E0E0
018030
030010
030000
060000
1FFFC0
3FFF80
060000
060000
1FFF80
3FFF00
060000
030000
030010
018030
00E0E0
007FC0
001F00
000000
000000
ENDCHAR
STARTCHAR 2103
ENCODING 8451
SWIDTH 1440 0
DWIDTH 24 0
BBX 24 24 0 -3
BITMAP
000000
000000
300380
480C64
84301C
84600C
48C004
318004
018000
030000
030000
030000
030000
030000
030000
018000
018000
00C002
00C004
006008
001830
0007C0
000000
000000
ENDCHAR
STARTCHAR 210F
ENCODING 8463
SWIDTH 1440 0
DWIDTH 24 0
BBX 24 24 0 -3
BITMAP
000000
000000
006000
01E000
006600
007800
00C000
03C000
0CCE00
019F00
01B380
01C180
018180
030180
030300
030300
030300
060600
060620
060760
0603C0
000000
000000
000000
ENDCHAR
STARTCHAR 2113
ENCODING 8467
SWIDTH 1440 0
DWIDTH 24 0
BBX 24 24 0 -3
BITMAP
000000
000000
000E00
001B00
003100
003100
006100
006100
006100
00C100
00C300
00C200
00C600
00C400
00CC00
00D800
00F000
006040
01E080
063300
001E00
000000
000000
000000
ENDCHAR
STARTCHAR 2116
ENCODING 8470
SWIDTH 1440 0
DWIDTH 24 0
BBX 24 24 0 -3
BITMAP
000000
000000
703800
301000
381000
381000
2C1000
2C1000
2611E0
261330
231330
231618
219618
219618
20D618
20D618
207618
207618
203330
203336
7811E6
000000
000000
000000
ENDCHAR
STARTCHAR 2121
ENCODING 8481
SWIDTH 1440 0
DWIDTH 24 0
BBX 24 24 0 -3
BITMAP
000000
000000
FFC000
8C4000
8C4000
0C0000
0C0000
0C0000
0CFEF0
0C6260
0C6160
0C6060
0C6060
0C6460
0C7C60
0C6460
0C6060
0C6060
0C6161
0C6262
1EFEFE
000000
000000
000000
ENDCHAR
STARTCHAR 2127
ENCODING 8487
SWIDTH 1440 0
DWIDTH 24 0
BBX 24 24 0 -3
BITMAP
000000
000000
1FC3F8
1FC3F8
104208
104208
018180
0300C0
060060
0C0030
0C0030
180018
180018
180018
180018
0C0030
0C0030
060060
0300C0
018180
007E00
000000
000000
000000
ENDCHAR
STARTCHAR 212B
ENCODING 8491
SWIDTH 1440 0
DWIDTH 24 0
BBX 24 24 0 -3
BITMAP
001800
002400
004200
004200
002400
001800
000000
001800
001800
003C00
002C00
004600
004600
008300
008300
010180
01FF80
0200C0
0200C0
040060
0C0070
3F01FC
000000
000000
ENDCHAR
STARTCHAR 2135
ENCODING 8501
SWIDTH 1440 0
DWIDTH 24 0
BBX 24 24 0 -3
BITMAP
000000
000000
000000
040300
040380
0601C0
0700E0
0380E0
01C1F0
00E330
007620
00FC00
019C00
030E00
020700
060380
0601C0
0600E0
070060
070070
070030
0E0020
000000
000000
ENDCHAR
STARTCHAR 2153
ENCODING 8531
SWIDTH 1440 0
DWIDTH 24 0
BBX 24 24 0 -3
BITMAP
000000
000800
001800
007800
001800
001800
001800
001800
001800
001800
007E00
000000
0FFFF0
000000
003C00
006600
004200
000600
003C00
000600
00C300
00C300
006600
003C00
ENDCHAR
STARTCHAR 2154
ENCODING 8532
SWIDTH 1440 0
DWIDTH 24 0
BBX 24 24 0 -3
BITMAP
000000
003C00
006600
00C200
004200
000600
000C00
001800
003100
006200
00FE00
000000
0FFFF0
000000
003C00
006600
004200
000600
003C00
000600
00C300
00C300
006600
003C00
ENDCHAR
STARTCHAR 2155
ENCODING 8533
SWIDTH 1440 0
DWIDTH 24 0
BBX 24 24 0 -3
BITMAP
000000
000800
001800
007800
001800
001800
001800
001800
001800
001800
007E00
000000
0FFFF0
000000
007F00
004000
004000
007C00
004600
000300
000300
00C300
00C600
007C00
ENDCHAR
STARTCHAR 2160
ENCODING 8544
SWIDTH 1440 0
DWIDTH 24 0
BBX 24 24 0 -3
BITMAP
000000
000000
00FF00
001800
001800
001800
001800
001800
001800
001800
001800
001800
001800
001800
001800
001800
001800
001800
001800
001800
00FF00
000000
000000
000000
ENDCHAR
STARTCHAR 2161
ENCODING 8545
SWIDTH 1440 0
DWIDTH 24 0
BBX 24 24 0 -3
BITMAP
000000
000000
07FFE0
00C300
00C300
00C300
00C300
00C300
00C300
00C300
00C300
00C300
00C300
00C300
00C300
00C300
00C300
00C300
00C300
00C300
07FFE0
000000
000000
000000
ENDCHAR
STARTCHAR 2162
ENCODING 8546
SWIDTH 1440 0
DWIDTH 24 0
BBX 24 24 0 -3
BITMAP
000000
000000
3FFFFC
061860
061860
061860
061860
061860
061860
061860
061860
061860
061860
061860
061860
061860
061860
061860
061860
061860
3FFFFC
000000
000000
000000
ENDCHAR
STARTCHAR 2163
ENCODING 8547
SWIDTH 1440 0
DWIDTH 24 0
BBX 24 24 0 -3
BITMAP
000000
000000
3FF83E
0C6008
0C6008
0C6008
0C3010
0C3010
0C3010
0C1820
0C1820
0C1820
0C0C20
0C0C40
0C0C40
0C0640
0C0680
0C0680
0C0380
0C0300
3F0100
000000
000000
000000
ENDCHAR
STARTCHAR 2164
ENCODING 8548
SWIDTH 1440 0
DWIDTH 24 0
BBX 24 24 0 -3
BITMAP
000000
000000
3F80FC
0E0030
060020
060020
030040
030040
030040
018080
018080
00C100
00C100
00C100
006200
006200
003400
003400
001C00
001800
000800
000000
000000
000000
ENDCHAR
STARTCHAR 2165
ENCODING 8549
SWIDTH 1440 0
DWIDTH 24 0
BBX 24 24 0 -3
BITMAP
000000
000000
3F07FC
0C0130
0C0130
0C0130
060230
060230
060230
030430
030430
030430
018430
018830
018830
00C830
00D030
00D030
007030
006030
0020FC
000000
000000
000000
ENDCHAR
STARTCHAR 2166
ENCODING 8550
SWIDTH 1440 0
DWIDTH 24 0
BBX 24 24 0 -3
BITMAP
000000
000000
FC7FFE
301318
301318
301318
181318
182318
182318
182318
0C2318
0C4318
0C4318
0C4318
064318
068318
068318
068318
038318
030318
010FFE
000000
000000
000000
ENDCHAR
STARTCHAR 2167
ENCODING 8551
SWIDTH 1440 0
DWIDTH 24 0
BBX 24 24 0 -3
BITMAP
000000
000000
FDFFFF
304CCC
304CCC
304CCC
304CCC
184CCC
188CCC
188CCC
188CCC
188CCC
0C8CCC
0D0CCC
0D0CCC
0D0CCC
0D0CCC
070CCC
070CCC
060CCC
023FFF
000000
000000
000000
ENDCHAR
STARTCHAR 2168
ENCODING 8552
SWIDTH 1440 0
DWIDTH 24 0
BBX 24 24 0 -3
BITMAP
000000
000000
3FF0FC
0CE030
0C6060
0C3040
0C3080
0C1880
0C1900
0C0D00
0C0E00
0C0600
0C0700
0C0B00
0C0980
0C1180
0C10C0
0C20C0
0C6060
0CC070
3FE1FC
000000
000000
000000
ENDCHAR
STARTCHAR 2169
ENCODING 8553
SWIDTH 1440 0
DWIDTH 24 0
BBX 24 24 0 -3
BITMAP
000000
000000
1F80F8
070060
030040
018080
01C100
00C100
006200
007400
003800
001800
001C00
002E00
004700
004300
008180
0101C0
0200E0
060070
1F00FC
000000
000000
000000
ENDCHAR
STARTCHAR 216A
ENCODING 8554
SWIDTH 1440 0
DWIDTH 24 0
BBX 24 24 0 -3
BITMAP
000000
000000
3F0FFC
0E0330
060630
030430
030830
018830
019030
00D030
00E030
006030
007030
00B030
009830
011830
010C30
020C30
060630
0C0730
3E1FFC
000000
000000
000000
ENDCHAR
STARTCHAR 216B
ENCODING 8555
SWIDTH 1440 0
DWIDTH 24 0
BBX 24 24 0 -3
BITMAP
000000
000000
FC3FFF
380CCC
1818CC
0C10CC
0C20CC
0620CC
0640CC
0340CC
0380CC
0180CC
01C0CC
02C0CC
0260CC
0460CC
0430CC
0830CC
1818CC
301CCC
F87FFF
000000
000000
000000
ENDCHAR
STARTCHAR 2170
ENCODING 8560
SWIDTH 1440 0
DWIDTH 24 0
BBX 24 24 0 -3
BITMAP
000000
000000
003800
003800
003800
000000
000000
000000
00F800
001800
001800
001800
001800
001800
001800
001800
001800
001800
001800
001800
00FF00
000000
000000
000000
ENDCHAR
STARTCHAR 2171
ENCODING 8561
SWIDTH 1440 0
DWIDTH 24 0
BBX 24 24 0 -3
BITMAP
000000
000000
038380
038380
038380
000000
000000
000000
078780
018180
018180
018180
018180
018180
018180
018180
018180
018180
018180
018180
07E7E0
000000
000000
000000
ENDCHAR
STARTCHAR 2172
ENCODING 8562
SWIDTH 1440 0
DWIDTH 24 0
BBX 24 24 0 -3
BITMAP
000000
000000
0E38E0
0E38E0
0E38E0
000000
000000
000000
1E79E0
061860
061860
061860
061860
061860
061860
061860
061860
061860
061860
061860
1FFFF8
000000
000000
000000
ENDCHAR
STARTCHAR 2173
ENCODING 8563
SWIDTH 1440 0
DWIDTH 24 0
BBX 24 24 0 -3
BITMAP
000000
000000
0E0000
0E0000
0E0000
000000
000000
000000
1EFC7C
063010
063010
061820
061820
060C20
060C40
060C40
060680
060680
060380
060300
1F8100
000000
000000
000000
ENDCHAR
STARTCHAR 2174
ENCODING 8564
SWIDTH 1440 0
DWIDTH 24 0
BBX 24 24 0 -3
BITMAP
000000
000000
000000
000000
000000
000000
000000
000000
0FC1F0
030040
018040
018080
00C080
00C100
006100
006200
003200
003400
001C00
001800
000800
000000
000000
000000
ENDCHAR
STARTCHAR 2175
ENCODING 8565
SWIDTH 1440 0
DWIDTH 24 0
BBX 24 24 0 -3
BITMAP
000000
000000
0000E0
0000E0
0000E0
000000
000000
000000
3F1FE0
0C0460
0C0460
060860
060860
030860
031060
031060
01A060
01A060
00E060
00C060
0041F8
000000
000000
000000
ENDCHAR
STARTCHAR 2176
ENCODING 8566
SWIDTH 1440 0
DWIDTH 24 0
BBX 24 24 0 -3
BITMAP
000000
000000
00039C
00039C
00039C
000000
000000
000000
FC7FBC
30118C
30118C
18218C
18218C
0C218C
0C418C
0C418C
06818C
06818C
03818C
03018C
0107FF
000000
000000
000000
ENDCHAR
STARTCHAR 2177
ENCODING 8567
SWIDTH 1440 0
DWIDTH 24 0
BBX 24 24 0 -3
BITMAP
000000
000000
001DDC
001DDC
001DDC
000000
000000
000000
FDFDDC
304CCC
304CCC
304CCC
188CCC
188CCC
188CCC
0D0CCC
0D0CCC
0D0CCC
070CCC
060CCC
023FFF
000000
000000
000000
ENDCHAR
STARTCHAR 2178
ENCODING 8568
SWIDTH 1440 0
DWIDTH 24 0
BBX 24 24 0 -3
BITMAP
000000
000000
070000
070000
070000
000000
000000
000000
0F7DF0
031840
031880
030C80
030D00
030600
030600
030700
030B00
030980
031180
0320C0
0FFBF0
000000
000000
000000
ENDCHAR
STARTCHAR 2179
ENCODING 8569
SWIDTH 1440 0
DWIDTH 24 0
BBX 24 24 0 -3
BITMAP
000000
000000
000000
000000
000000
000000
000000
000000
0FE3F0
038080
01C100
00E200
007400
003800
001C00
002E00
004700
008380
0101C0
0200E0
0F83F8
000000
000000
000000
ENDCHAR
STARTCHAR 217A
ENCODING 8570
SWIDTH 1440 0
DWIDTH 24 0
BBX 24 24 0 -3
BITMAP
000000
000000
0001C0
0001C0
0001C0
000000
000000
000000
0FBFC0
0308C0
0310C0
0190C0
01A0C0
00C0C0
00C0C0
00E0C0
0160C0
0130C0
0230C0
0418C0
1F7FF0
000000
000000
000000
ENDCHAR
STARTCHAR 217B
ENCODING 8571
SWIDTH 1440 0
DWIDTH 24 0
BBX 24 24 0 -3
BITMAP
000000
000000
000738
000738
000738
000000
000000
000000
3EFF78
0C2318
0C4318
064318
068318
030318
030318
038318
058318
04C318
08C318
106318
7DFFFE
000000
000000
000000
ENDCHAR
STARTCHAR 2190
ENCODING 8592
SWIDTH 1440 0
DWIDTH 24 0
BBX 24 24 0 -3
BITMAP
000000
000000
000000
000000
000000
000000
000000
020000
040000
180000
300000
FFFFFF
300000
180000
040000
020000
000000
000000
000000
000000
000000
000000
000000
000000
ENDCHAR
STARTCHAR 2191
ENCODING 8593
SWIDTH 1440 0
DWIDTH 24 0
BBX 24 24 0 -3
BITMAP
001000
001000
003800
007C00
005400
009200
011100
001000
001000
001000
001000
001000
001000
001000
001000
001000
001000
001000
001000
001000
001000
001000
001000
001000
ENDCHAR
STARTCHAR 2192
ENCODING 8594
SWIDTH 1440 0
DWIDTH 24 0
BBX 24 24 0 -3
BITMAP
000000
000000
000000
000000
000000
000000
000000
000040
000020
000018
00000C
FFFFFF
00000C
000018
000020
000040
000000
000000
000000
000000
000000
000000
000000
000000
ENDCHAR
STARTCHAR 2193
ENCODING 8595
SWIDTH 1440 0
DWIDTH 24 0
BBX 24 24 0 -3
BITMAP
001000
001000
001000
001000
001000
001000
001000
001000
001000
001000
001000
001000
001000
001000
001000
001000
001000
011100
009200
005400
007C00
003800
001000
001000
ENDCHAR
STARTCHAR 2194
ENCODING 8596
SWIDTH 1440 0
DWIDTH 24 0
BBX 24 24 0 -3
BITMAP
000000
000000
000000
000000
000000
000000
000000
020040
040020
180018
30000C
FFFFFF
30000C
180018
040020
020040
000000
000000
000000
000000
000000
000000
000000
000000
ENDCHAR
STARTCHAR 2196
ENCODING 8598
SWIDTH 1440 0
DWIDTH 24 0
BBX 24 24 0 -3
BITMAP
000000
000000
000000
180000
1F0000
0CE000
0A0000
090000
048000
044000
042000
001000
000800
000400
000200
000100
000080
000040
000020
000010
000008
000000
000000
000000
ENDCHAR
STARTCHAR 2197
ENCODING 8599
SWIDTH 1440 0
DWIDTH 24 0
BBX 24 24 0 -3
BITMAP
000000
000000
000000
000018
0000F8
000730
000050
000090
000120
000220
000420
000800
001000
002000
004000
008000
010000
020000
040000
080000
100000
000000
000000
000000
ENDCHAR
STARTCHAR 2198
ENCODING 8600
SWIDTH 1440 0
DWIDTH 24 0
BBX 24 24 0 -3
BITMAP
000000
000000
000000
100000
080000
040000
020000
010000
008000
004000
002000
001000
000800
000420
000220
000120
000090
000050
000730
0000F8
000018
000000
000000
000000
ENDCHAR
STARTCHAR 2199
ENCODING 8601
SWIDTH 1440 0
DWIDTH 24 0
BBX 24 24 0 -3
BITMAP
000000
000000
000000
000008
000010
000020
000040
000080
000100
000200
000400
000800
001000
042000
044000
048000
090000
0A0000
0CE000
1F0000
180000
000000
000000
000000
ENDCHAR
STARTCHAR 21C4
ENCODING 8644
SWIDTH 1440 0
DWIDTH 24 0
BBX 24 24 0 -3
BITMAP
000000
000000
000000
000000
000040
000020
000018
00000C
FFFFFF
00000C
000018
020020
040040
180000
300000
FFFFFF
300000
180000
040000
020000
000000
000000
000000
000000
ENDCHAR
STARTCHAR 21D2
ENCODING 8658
SWIDTH 1440 0
DWIDTH 24 0
BBX 24 24 0 -3
BITMAP
000000
000000
000000
000000
000080
000040
000020
000010
FFFFF8
000004
000002
000001
000002
000004
FFFFF8
000010
000020
000040
000080
000000
000000
000000
000000
000000
ENDCHAR
STARTCHAR 21D4
ENCODING 8660
SWIDTH 1440 0
DWIDTH 24 0
BBX 24 24 0 -3
BITMAP
000000
000000
000000
000000
010080
020040
040020
080010
1FFFF8
200004
400002
800001
400002
200004
1FFFF8
080010
040020
020040
010080
000000
000000
000000
000000
000000
ENDCHAR
STARTCHAR 21E6
ENCODING 8678
SWIDTH 1440 0
DWIDTH 24 0
BBX 24 24 0 -3
BITMAP
000000
000000
000000
004000
00C000
014000
024000
044000
087FFE
100002
200002
400002
200002
100002
087FFE
044000
024000
014000
00C000
004000
000000
000000
000000
000000
ENDCHAR
STARTCHAR 21E7
ENCODING 8679
SWIDTH 1440 0
DWIDTH 24 0
BBX 24 24 0 -3
BITMAP
000000
001000
002800
004400
008200
010100
020080
040040
080020
1F83F0
008200
008200
008200
008200
008200
008200
008200
008200
008200
008200
008200
008200
00FE00
000000
ENDCHAR
STARTCHAR 21E8
ENCODING 8680
SWIDTH 1440 0
DWIDTH 24 0
BBX 24 24 0 -3
BITMAP
000000
000000
000000
000200
000300
000280
000240
000220
7FFE10
400008
400004
400002
400004
400008
7FFE10
000220
000240
000280
000300
000200
000000
000000
000000
000000
ENDCHAR
STARTCHAR 21E9
ENCODING 8681
SWIDTH 1440 0
DWIDTH 24 0
BBX 24 24 0 -3
BITMAP
000000
00FE00
008200
008200
008200
008200
008200
008200
008200
008200
008200
008200
008200
008200
1F83F0
080020
040040
020080
010100
008200
004400
002800
001000
000000
ENDCHAR
STARTCHAR 2200
ENCODING 8704
SWIDTH 1440 0
DWIDTH 24 0
BBX 24 24 0 -3
BITMAP
000000
000000
200008
200008
100010
100010
080020
080020
040040
07FFC0
020080
020080
010100
010100
008200
008200
004400
004400
002800
002800
001000
001000
000000
000000
ENDCHAR
STARTCHAR 2202
ENCODING 8706
SWIDTH 1440 0
DWIDTH 24 0
BBX 24 24 0 -3
BITMAP
000000
000000
000700
001FC0
0030C0
004060
000020
000020
000020
003C60
00C240
018140
0301C0
030180
060180
060180
060300
060300
020600
030C00
00F000
000000
000000
000000
ENDCHAR
STARTCHAR 2203
ENCODING 8707
SWIDTH 1440 0
DWIDTH 24 0
BBX 24 24 0 -3
BITMAP
000000
000000
000000
07FFE0
000020
000020
000020
000020
000020
000020
000020
07FFE0
000020
000020
000020
000020
000020
000020
000020
07FFE0
000000
000000
000000
000000
ENDCHAR
STARTCHAR 2205
ENCODING 8709
SWIDTH 1440 0
DWIDTH 24 0
BBX 24 24 0 -3
BITMAP
000000
000000
000004
000008
007E10
0181A0
020040
0400A0
040120
080210
080410
080810
081010
082010
084010
048020
050020
020040
058180
087E00
100000
200000
000000
000000
ENDCHAR
STARTCHAR 2207
ENCODING 8711
SWIDTH 1440 0
DWIDTH 24 0
BBX 24 24 0 -3
BITMAP
000000
000000
1FFFF8
0FFFF0
0C0010
060020
060020
030040
030040
018080
018080
00C100
00C100
006100
006200
003200
003400
001C00
001C00
000800
000800
000000
000000
000000
ENDCHAR
STARTCHAR 2208
ENCODING 8712
SWIDTH 1440 0
DWIDTH 24 0
BBX 24 24 0 -3
BITMAP
000000
000000
000000
000000
000000
007FE0
01C000
030000
020000
060000
040000
07FFE0
040000
060000
020000
030000
01C000
007FE0
000000
000000
000000
000000
000000
000000
ENDCHAR
STARTCHAR 2209
ENCODING 8713
SWIDTH 1440 0
DWIDTH 24 0
BBX 24 24 0 -3
BITMAP
000000
000000
000800
000800
000800
007FE0
01C800
030800
020800
060800
040800
07FFE0
040800
060800
020800
030800
01C800
007FE0
000800
000800
000800
000000
000000
000000
ENDCHAR
STARTCHAR 220B
ENCODING 8715
SWIDTH 1440 0
DWIDTH 24 0
BBX 24 24 0 -3
BITMAP
000000
000000
000000
000000
000000
07FE00
000380
0000C0
000040
000060
000020
07FFE0
000020
000060
000040
0000C0
000380
07FE00
000000
000000
000000
000000
000000
000000
ENDCHAR
STARTCHAR 2211
ENCODING 8721
SWIDTH 1440 0
DWIDTH 24 0
BBX 24 24 0 -3
BITMAP
FFFFFF
EFFDE3
CFF9DD
EFFDDD
EFFDFD
EE1DF3
EFFDFD
EFFDDD
EFFDDD
C7F8E3
FFFFFF
FFFFFF
FFFFFF
FFF8FB
FFF773
FFF773
FFF76B
FE18EB
FFF75B
FFF741
FFF77B
FFF8FB
FFFFFF
FFFFFF
ENDCHAR
STARTCHAR 2212
ENCODING 8722
SWIDTH 1440 0
DWIDTH 24 0
BBX 24 24 0 -3
BITMAP
000000
000000
000000
000000
000000
000000
000000
000000
000000
000000
000000
1FFFF8
000000
000000
000000
000000
000000
000000
000000
000000
000000
000000
000000
000000
ENDCHAR
STARTCHAR 2213
ENCODING 8723
SWIDTH 1440 0
DWIDTH 24 0
BBX 24 24 0 -3
BITMAP
000000
000000
000000
1FFFF8
000000
000000
001000
001000
001000
001000
001000
001000
001000
1FFFF8
001000
001000
001000
001000
001000
001000
001000
000000
000000
000000
ENDCHAR
STARTCHAR 221A
ENCODING 8730
SWIDTH 1440 0
DWIDTH 24 0
BBX 24 24 0 -3
BITMAP
FFFFFF
EFFDE3
CFF9DD
EFFDDD
EFFDFD
EE1DF3
EFFDFD
EFFDDD
EFFDDD
C7F8E3
FFFFFF
FFFFFF
FFFFFF
FFF8C1
FFF75F
FFF75F
FFF743
FE18DD
FFF77D
FFF75D
FFF75D
FFF8E3
FFFFFF
FFFFFF
ENDCHAR
STARTCHAR 221D
ENCODING 8733
SWIDTH 1440 0
DWIDTH 24 0
BBX 24 24 0 -3
BITMAP
000000
000000
000000
000000
000000
000000
0700F0
1DC39C
306604
202400
603C00
401800
401800
603C00
202400
306604
1DC39C
0700F0
000000
000000
000000
000000
000000
000000
ENDCHAR
STARTCHAR 221E
ENCODING 8734
SWIDTH 1440 0
DWIDTH 24 0
BBX 24 24 0 -3
BITMAP
000000
000000
000000
000000
000000
000000
0700E0
1DC3B8
30660C
202404
603C06
401802
401802
603C06
202404
30660C
1DC3B8
0700E0
000000
000000
000000
000000
000000
000000
ENDCHAR
STARTCHAR 221F
ENCODING 8735
SWIDTH 1440 0
DWIDTH 24 0
BBX 24 24 0 -3
BITMAP
000000
000000
000000
100000
100000
100000
100000
100000
100000
100000
100000
100000
100000
100000
100000
100000
100000
100000
100000
100000
1FFFF8
000000
000000
000000
ENDCHAR
STARTCHAR 2220
ENCODING 8736
SWIDTH 1440 0
DWIDTH 24 0
BBX 24 24 0 -3
BITMAP
FFFFFF
EFFDE3
CFF9DD
EFFDDD
EFFDFD
EE1DF3
EFFDFD
EFFDDD
EFFDDD
C7F8E3
FFFFFF
FFFFFF
FFFFFF
FFF8C1
FFF75D
FFF77B
FFF77B
FE18F7
FFF777
FFF777
FFF777
FFF8F7
FFFFFF
FFFFFF
ENDCHAR
STARTCHAR 2225
ENCODING 8741
SWIDTH 1440 0
DWIDTH 24 0
BBX 24 24 0 -3
BITMAP
000000
000000
000000
000810
000810
001020
001020
002040
002040
004080
004080
008100
008100
010200
010200
020400
020400
040800
040800
081000
081000
000000
000000
000000
ENDCHAR
STARTCHAR 2226
ENCODING 8742
SWIDTH 1440 0
DWIDTH 24 0
BBX 24 24 0 -3
BITMAP
000000
000000
000000
000810
000810
001020
021020
012040
00A040
004080
006080
009100
008900
010600
010200
020500
020480
040840
040800
081000
081000
000000
000000
000000
ENDCHAR
STARTCHAR 2227
ENCODING 8743
SWIDTH 1440 0
DWIDTH 24 0
BBX 24 24 0 -3
BITMAP
000000
000000
000000
001000
001000
002800
002800
004400
004400
008200
008200
010100
010100
020080
020080
040040
040040
080020
080020
100010
100010
000000
000000
000000
ENDCHAR
STARTCHAR 2228
ENCODING 8744
SWIDTH 1440 0
DWIDTH 24 0
BBX 24 24 0 -3
BITMAP
000000
000000
000000
100010
100010
080020
080020
040040
040040
020080
020080
010100
010100
008200
008200
004400
004400
002800
002800
001000
001000
000000
000000
000000
ENDCHAR
STARTCHAR 2229
ENCODING 8745
SWIDTH 1440 0
DWIDTH 24 0
BBX 24 24 0 -3
BITMAP
FFFFFF
EFFDE3
CFF9DD
EFFDDD
EFFDFD
EE1DF3
EFFDFD
EFFDDD
EFFDDD
C7F8E3
FFFFFF
FFFFFF
FFFFFF
FFF8F7
FFF767
FFF777
FFF777
FE1877
FFFF77
FFF777
FFF777
FFF8E3
FFFFFF
FFFFFF
ENDCHAR
STARTCHAR 222A
ENCODING 8746
SWIDTH 1440 0
DWIDTH 24 0
BBX 24 24 0 -3
BITMAP
FFFFFF
EFFDE3
CFF9DD
EFFDDD
EFFDFD
EE1DF3
EFFDFD
EFFDDD
EFFDDD
C7F8E3
FFFFFF
FFFFFF
FFFFFF
FFF8E3
FFF75D
FFF75D
FFF77D
FE187B
FFFF77
FFF76F
FFF75F
FFF8C1
FFFFFF
FFFFFF
ENDCHAR
STARTCHAR 222B
ENCODING 8747
SWIDTH 1440 0
DWIDTH 24 0
BBX 24 24 0 -3
BITMAP
FFFFFF
EFFDE3
CFF9DD
EFFDDD
EFFDFD
EE1DF3
EFFDFD
EFFDDD
EFFDDD
C7F8E3
FFFFFF
FFFFFF
FFFFFF
FFF8E3
FFF75D
FFF75D
FFF77D
FE18FB
FFF777
FFF76F
FFF75F
FFF8C1
FFFFFF
FFFFFF
ENDCHAR
STARTCHAR 222C
ENCODING 8748
SWIDTH 1440 0
DWIDTH 24 0
BBX 24 24 0 -3
BITMAP
00C0C0
01E1E0
026260
020200
020200
020200
030300
030300
030300
038380
018180
018180
018180
018180
01C1C0
00C0C0
00C0C0
00C0C0
004040
004040
004040
064640
078780
030300
ENDCHAR
STARTCHAR 222E
ENCODING 8750
SWIDTH 1440 0
DWIDTH 24 0
BBX 24 24 0 -3
BITMAP
000C00
001E00
002600
002000
002000
002000
003000
003000
003C00
007A00
009900
009900
009900
009900
005E00
003C00
000C00
000C00
000400
000400
000400
006400
007800
003000
ENDCHAR
STARTCHAR 2234
ENCODING 8756
SWIDTH 1440 0
DWIDTH 24 0
BBX 24 24 0 -3
BITMAP
000000
000000
000000
000000
003800
003800
003800
000000
000000
000000
000000
000000
000000
000000
000000
000000
000000
1C0070
1C0070
1C0070
000000
000000
000000
000000
ENDCHAR
STARTCHAR 2235
ENCODING 8757
SWIDTH 1440 0
DWIDTH 24 0
BBX 24 24 0 -3
BITMAP
FFFFFF
EFFDE3
CFF9DD
EFFDDD
EFFDFD
EE1DF3
EFFDFD
EFFDDD
EFFDDD
C7F8E3
FFFFFF
FFFFFF
FFFFFF
FFF8E3
FFF75D
FFF75D
FFF75D
FE185D
FFFF5D
FFF75D
FFF75D
FFF8E3
FFFFFF
FFFFFF
ENDCHAR
STARTCHAR 223D
ENCODING 8765
SWIDTH 1440 0
DWIDTH 24 0
BBX 24 24 0 -3
BITMAP
000000
000000
000000
000000
000000
000000
0780E0
1CC3B8
30060C
200C04
600806
401802
401002
603006
202004
30600C
1DC338
0701E0
000000
000000
000000
000000
000000
000000
ENDCHAR
STARTCHAR 2243
ENCODING 8771
SWIDTH 1440 0
DWIDTH 24 0
BBX 24 24 0 -3
BITMAP
000000
000000
000000
000000
000000
000000
000000
07C000
0C7000
101808
000E30
0003E0
000000
000000
1FFFF8
000000
000000
000000
000000
000000
000000
000000
000000
000000
ENDCHAR
STARTCHAR 2245
ENCODING 8773
SWIDTH 1440 0
DWIDTH 24 0
BBX 24 24 0 -3
BITMAP
000000
000000
000000
000000
07C000
0C7000
101808
000E30
0003E0
000000
000000
1FFFF8
000000
000000
000000
000000
1FFFF8
000000
000000
000000
000000
000000
000000
000000
ENDCHAR
STARTCHAR 2248
ENCODING 8776
SWIDTH 1440 0
DWIDTH 24 0
BBX 24 24 0 -3
BITMAP
000000
000000
000000
000000
000000
000000
000000
07C000
0C7000
101808
000E30
0003E0
07C000
0C7000
101808
000E30
0003E0
000000
000000
000000
000000
000000
000000
000000
ENDCHAR
STARTCHAR 2252
ENCODING 8786
SWIDTH 1440 0
DWIDTH 24 0
BBX 24 24 0 -3
BITMAP
FFFFFF
EFFDE3
CFF9DD
EFFDDD
EFFDFD
EE1DF3
EFFDFD
EFFDDD
EFFDDD
C7F8E3
FFFFFF
FFFFFF
FFFFFF
FFF8E3
FFF75D
FFF75D
FFF75D
FE18DD
FFF75D
FFF75D
FFF75D
FFF8E3
FFFFFF
FFFFFF
ENDCHAR
STARTCHAR 2260
ENCODING 8800
SWIDTH 1440 0
DWIDTH 24 0
BBX 24 24 0 -3
BITMAP
000000
000000
000000
000000
000200
000200
000200
000400
000400
1FFFF8
000800
000800
001000
001000
1FFFF8
002000
002000
004000
004000
004000
000000
000000
000000
000000
ENDCHAR
STARTCHAR 2261
ENCODING 8801
SWIDTH 1440 0
DWIDTH 24 0
BBX 24 24 0 -3
BITMAP
FFFFFF
EFFDE3
CFF9DD
EFFDDD
EFFDFD
EE1DF3
EFFDFD
EFFDDD
EFFDDD
C7F8E3
FFFFFF
FFFFFF
FFFFFF
FFF8F7
FFF767
FFF777
FFF777
FE18F7
FFF777
FFF777
FFF777
FFF8E3
FFFFFF
FFFFFF
ENDCHAR
STARTCHAR 2262
ENCODING 8802
SWIDTH 1440 0
DWIDTH 24 0
BBX 24 24 0 -3
BITMAP
000000
000000
000100
000100
000200
000200
1FFFF8
000400
000400
000800
000800
1FFFF8
001000
001000
002000
002000
1FFFF8
004000
004000
008000
008000
000000
000000
000000
ENDCHAR
STARTCHAR 2266
ENCODING 8806
SWIDTH 1440 0
DWIDTH 24 0
BBX 24 24 0 -3
BITMAP
000000
000000
000018
0000E0
000700
003800
01C000
060000
180000
060000
01C000
003800
000700
0000E0
000018
000000
1FFFF8
000000
000000
000000
1FFFF8
000000
000000
000000
ENDCHAR
STARTCHAR 2267
ENCODING 8807
SWIDTH 1440 0
DWIDTH 24 0
BBX 24 24 0 -3
BITMAP
000000
000000
180000
070000
00E000
001C00
000380
000060
000018
000060
000380
001C00
00E000
070000
180000
000000
1FFFF8
000000
000000
000000
1FFFF8
000000
000000
000000
ENDCHAR
STARTCHAR 226A
ENCODING 8810
SWIDTH 1440 0
DWIDTH 24 0
BBX 24 24 0 -3
BITMAP
000000
000000
000104
000618
000820
0030C0
004100
018600
020800
0C3000
104000
208000
104000
0C3000
020800
010400
00C300
002080
001040
000C30
000208
000104
000000
000000
ENDCHAR
STARTCHAR 226B
ENCODING 8811
SWIDTH 1440 0
DWIDTH 24 0
BBX 24 24 0 -3
BITMAP
000000
000000
208000
186000
041000
030C00
008200
006180
001040
000C30
000208
000104
000208
000C30
001040
002080
00C300
010400
020800
0C3000
104000
208000
000000
000000
ENDCHAR
STARTCHAR 2276
ENCODING 8822
SWIDTH 1440 0
DWIDTH 24 0
BBX 24 24 0 -3
BITMAP
000000
000000
000038
0001C0
000E00
007000
038000
1C0000
038000
007000
000E00
1C01C0
038038
007000
000E00
0001C0
000038
0001C0
000E00
007000
038000
1C0000
000000
000000
ENDCHAR
STARTCHAR 2277
ENCODING 8823
SWIDTH 1440 0
DWIDTH 24 0
BBX 24 24 0 -3
BITMAP
000000
000000
1C0000
038000
007000
000E00
0001C0
000038
0001C0
000E00
007000
038038
1C01C0
000E00
007000
038000
1C0000
038000
007000
000E00
0001C0
000038
000000
000000
ENDCHAR
STARTCHAR 2282
ENCODING 8834
SWIDTH 1440 0
DWIDTH 24 0
BBX 24 24 0 -3
BITMAP
000000
000000
000000
000000
000000
00FFF8
038000
060000
0C0000
080000
180000
100000
100000
180000
080000
0C0000
060000
038000
00FFF8
000000
000000
000000
000000
000000
ENDCHAR
STARTCHAR 2283
ENCODING 8835
SWIDTH 1440 0
DWIDTH 24 0
BBX 24 24 0 -3
BITMAP
000000
000000
000000
000000
000000
1FFF00
0001C0
000060
000030
000010
000018
000008
000008
000018
000010
000030
000060
0001C0
1FFF00
000000
000000
000000
000000
000000
ENDCHAR
STARTCHAR 2284
ENCODING 8836
SWIDTH 1440 0
DWIDTH 24 0
BBX 24 24 0 -3
BITMAP
000000
000000
000010
000010
000020
00FFF8
038040
060080
0C0080
080100
180100
100200
100200
180400
080400
0C0800
060800
039000
00FFF8
002000
004000
004000
000000
000000
ENDCHAR
STARTCHAR 2285
ENCODING 8837
SWIDTH 1440 0
DWIDTH 24 0
BBX 24 24 0 -3
BITMAP
000000
000000
000200
000200
000400
1FFF00
0009C0
001060
001030
002010
002018
004008
004008
008018
008010
010030
010060
0201C0
1FFF00
040000
080000
080000
000000
000000
ENDCHAR
STARTCHAR 2286
ENCODING 8838
SWIDTH 1440 0
DWIDTH 24 0
BBX 24 24 0 -3
BITMAP
000000
000000
000000
000000
01FFF8
070000
0C0000
080000
180000
100000
100000
180000
080000
0C0000
070000
01FFF8
000000
000000
000000
1FFFF8
000000
000000
000000
000000
ENDCHAR
STARTCHAR 2287
ENCODING 8839
SWIDTH 1440 0
DWIDTH 24 0
BBX 24 24 0 -3
BITMAP
000000
000000
000000
000000
1FFF80
0000E0
000030
000010
000018
000008
000008
000018
000010
000030
0000E0
1FFF80
000000
000000
000000
1FFFF8
000000
000000
000000
000000
ENDCHAR
STARTCHAR 228A
ENCODING 8842
SWIDTH 1440 0
DWIDTH 24 0
BBX 24 24 0 -3
BITMAP
000000
000000
000000
000000
01FFF8
070000
0C0000
080000
180000
100000
100000
180000
080000
0C0000
070000
01FFF8
000100
000200
000400
1FFFF8
000800
001000
002000
000000
ENDCHAR
STARTCHAR 228B
ENCODING 8843
SWIDTH 1440 0
DWIDTH 24 0
BBX 24 24 0 -3
BITMAP
000000
000000
000000
000000
1FFF80
0000E0
000030
000010
000018
000008
000008
000018
000010
000030
0000E0
1FFF80
000400
000800
001000
1FFFF8
002000
004000
008000
000000
ENDCHAR
STARTCHAR 2295
ENCODING 8853
SWIDTH 1440 0
DWIDTH 24 0
BBX 24 24 0 -3
BITMAP
000000
007E00
018180
060060
081010
101008
101008
201004
201004
401002
401002
4FFFF2
401002
401002
401002
201004
201004
101008
101008
081010
060060
018180
007E00
000000
ENDCHAR
STARTCHAR 2296
ENCODING 8854
SWIDTH 1440 0
DWIDTH 24 0
BBX 24 24 0 -3
BITMAP
000000
007E00
018180
060060
080010
100008
100008
200004
200004
400002
400002
4FFFF2
400002
400002
400002
200004
200004
100008
100008
080010
060060
018180
007E00
000000
ENDCHAR
STARTCHAR 2297
ENCODING 8855
SWIDTH 1440 0
DWIDTH 24 0
BBX 24 24 0 -3
BITMAP
000000
007E00
018180
060060
080010
100008
120048
210084
208104
404202
402402
401802
401802
402402
404202
208104
210084
120048
100008
080010
060060
018180
007E00
000000
ENDCHAR
STARTCHAR 22A5
ENCODING 8869
SWIDTH 1440 0
DWIDTH 24 0
BBX 24 24 0 -3
BITMAP
FFFFFF
EFFDE3
CFF9DD
EFFDDD
EFFDFD
EE1DF3
EFFDFD
EFFDDD
EFFDDD
C7F8E3
FFFFFF
FFFFFF
FFFFFF
FFF8E3
FFF75D
FFF75F
FFF753
FE18CD
FFF75D
FFF75D
FFF75D
FFF8E3
FFFFFF
FFFFFF
ENDCHAR
STARTCHAR 22BF
ENCODING 8895
SWIDTH 1440 0
DWIDTH 24 0
BBX 24 24 0 -3
BITMAP
000000
000000
000000
000008
000018
000028
000048
000088
000108
000208
000408
000808
001008
002008
004008
008008
010008
020008
040008
080008
1FFFF8
000000
000000
000000
ENDCHAR
STARTCHAR 22DA
ENCODING 8922
SWIDTH 1440 0
DWIDTH 24 0
BBX 24 24 0 -3
BITMAP
000000
0000E0
000700
003800
01C000
0E0000
01C000
003800
000700
0000E0
000000
0FFFE0
000000
0E0000
01C000
003800
000700
0000E0
000700
003800
01C000
0E0000
000000
000000
ENDCHAR
STARTCHAR 22DB
ENCODING 8923
SWIDTH 1440 0
DWIDTH 24 0
BBX 24 24 0 -3
BITMAP
000000
0E0000
01C000
003800
000700
0000E0
000700
003800
01C000
0E0000
000000
0FFFE0
000000
0000E0
000700
003800
01C000
0E0000
01C000
003800
000700
0000E0
000000
000000
ENDCHAR
STARTCHAR 2305
ENCODING 8965
SWIDTH 1440 0
DWIDTH 24 0
BBX 24 24 0 -3
BITMAP
000000
000000
000000
000000
000000
000000
000000
000000
1FFFF0
001000
003800
002800
004400
008200
008200
010100
020080
020080
040040
000000
000000
000000
000000
000000
ENDCHAR
STARTCHAR 2306
ENCODING 8966
SWIDTH 1440 0
DWIDTH 24 0
BBX 24 24 0 -3
BITMAP
000000
000000
000000
000000
000000
1FFFF0
000000
000000
1FFFF0
001000
003800
002800
004400
008200
008200
010100
020080
020080
040040
000000
000000
000000
000000
000000
ENDCHAR
STARTCHAR 2312
ENCODING 8978
SWIDTH 1440 0
DWIDTH 24 0
BBX 24 24 0 -3
BITMAP
03FFC0
3FFFFC
E00007
000000
000000
000000
000000
000000
000000
000000
000000
000000
000000
000000
000000
000000
000000
000000
000000
000000
000000
000000
000000
000000
ENDCHAR
STARTCHAR 2318
ENCODING 8984
SWIDTH 1440 0
DWIDTH 24 0
BBX 24 24 0 -3
BITMAP
000000
1E0078
3300CC
618186
408102
408102
608106
30810C
1FFFF8
008100
008100
008100
008100
008100
008100
1FFFF8
30810C
608106
408102
408102
618186
3300CC
1E0078
000000
ENDCHAR
STARTCHAR 23BE
ENCODING 9150
SWIDTH 1440 0
DWIDTH 24 0
BBX 24 24 0 -3
BITMAP
001FFF
001000
001000
001000
001000
001000
001000
001000
001000
001000
001000
001000
001000
001000
001000
001000
001000
001000
001000
001000
001000
001000
001000
001000
ENDCHAR
STARTCHAR 23BF
ENCODING 9151
SWIDTH 1440 0
DWIDTH 24 0
BBX 24 24 0 -3
BITMAP
001000
001000
001000
001000
001000
001000
001000
001000
001000
001000
001000
001000
001000
001000
001000
001000
001000
001000
001000
001000
001000
001000
001000
001FFF
ENDCHAR
STARTCHAR 23C0
ENCODING 9152
SWIDTH 1440 0
DWIDTH 24 0
BBX 24 24 0 -3
BITMAP
001000
001000
001000
007C00
019300
0610C0
041040
081020
081020
101010
101010
101010
101010
101010
081020
081020
041040
0610C0
019300
007C00
001000
001000
001000
001000
ENDCHAR
STARTCHAR 23C1
ENCODING 9153
SWIDTH 1440 0
DWIDTH 24 0
BBX 24 24 0 -3
BITMAP
FFFFFF
001000
001000
007C00
019300
0610C0
041040
081020
081020
101010
101010
101010
101010
101010
081020
081020
041040
0610C0
019300
007C00
001000
001000
001000
001000
ENDCHAR
STARTCHAR 23C2
ENCODING 9154
SWIDTH 1440 0
DWIDTH 24 0
BBX 24 24 0 -3
BITMAP
001000
001000
001000
007C00
019300
0610C0
041040
081020
081020
101010
101010
101010
101010
101010
081020
081020
041040
0610C0
019300
007C00
001000
001000
001000
FFFFFF
ENDCHAR
STARTCHAR 23C3
ENCODING 9155
SWIDTH 1440 0
DWIDTH 24 0
BBX 24 24 0 -3
BITMAP
001000
001000
001000
001000
001000
003800
003800
005400
005400
009200
009200
011100
011100
021080
021080
041040
041040
081020
081020
1FFFF0
001000
001000
001000
001000
ENDCHAR
STARTCHAR 23C4
ENCODING 9156
SWIDTH 1440 0
DWIDTH 24 0
BBX 24 24 0 -3
BITMAP
FFFFFF
001000
001000
001000
001000
003800
003800
005400
005400
009200
009200
011100
011100
021080
021080
041040
041040
081020
081020
1FFFF0
001000
001000
001000
001000
ENDCHAR
STARTCHAR 23C5
ENCODING 9157
SWIDTH 1440 0
DWIDTH 24 0
BBX 24 24 0 -3
BITMAP
001000
001000
001000
001000
001000
003800
003800
005400
005400
009200
009200
011100
011100
021080
021080
041040
041040
081020
081020
1FFFF0
001000
001000
001000
FFFFFF
ENDCHAR
STARTCHAR 23C6
ENCODING 9158
SWIDTH 1440 0
DWIDTH 24 0
BBX 24 24 0 -3
BITMAP
001000
001000
001000
001000
001000
001000
001000
001000
001000
001000
07D000
0C7010
101C60
0017C0
001000
001000
001000
001000
001000
001000
001000
001000
001000
001000
ENDCHAR
STARTCHAR 23C7
ENCODING 9159
SWIDTH 1440 0
DWIDTH 24 0
BBX 24 24 0 -3
BITMAP
FFFFFF
001000
001000
001000
001000
001000
001000
001000
001000
001000
07D000
0C7010
101C60
0017C0
001000
001000
001000
001000
001000
001000
001000
001000
001000
001000
ENDCHAR
STARTCHAR 23C8
ENCODING 9160
SWIDTH 1440 0
DWIDTH 24 0
BBX 24 24 0 -3
BITMAP
001000
001000
001000
001000
001000
001000
001000
001000
001000
001000
07D000
0C7010
101C60
0017C0
001000
001000
001000
001000
001000
001000
001000
001000
001000
FFFFFF
ENDCHAR
STARTCHAR 23C9
ENCODING 9161
SWIDTH 1440 0
DWIDTH 24 0
BBX 24 24 0 -3
BITMAP
FFFFFF
001000
001000
001000
001000
001000
001000
001000
001000
001000
001000
001000
001000
001000
001000
001000
001000
001000
001000
001000
001000
001000
001000
001000
ENDCHAR
STARTCHAR 23CA
ENCODING 9162
SWIDTH 1440 0
DWIDTH 24 0
BBX 24 24 0 -3
BITMAP
001000
001000
001000
001000
001000
001000
001000
001000
001000
001000
001000
001000
001000
001000
001000
001000
001000
001000
001000
001000
001000
001000
001000
FFFFFF
ENDCHAR
STARTCHAR 23CB
ENCODING 9163
SWIDTH 1440 0
DWIDTH 24 0
BBX 24 24 0 -3
BITMAP
FFF000
001000
001000
001000
001000
001000
001000
001000
001000
001000
001000
001000
001000
001000
001000
001000
001000
001000
001000
001000
001000
001000
001000
001000
ENDCHAR
STARTCHAR 23CC
ENCODING 9164
SWIDTH 1440 0
DWIDTH 24 0
BBX 24 24 0 -3
BITMAP
001000
001000
001000
001000
001000
001000
001000
001000
001000
001000
001000
001000
001000
001000
001000
001000
001000
001000
001000
001000
001000
001000
001000
FFF000
ENDCHAR
STARTCHAR 23CE
ENCODING 9166
SWIDTH 1440 0
DWIDTH 24 0
BBX 24 24 0 -3
BITMAP
000000
000000
0000FE
000082
000082
004082
00C082
014082
024082
044182
087F02
100002
200002
400004
200004
100018
087FE0
044000
024000
014000
00C000
004000
000000
000000
ENDCHAR
STARTCHAR 2423
ENCODING 9251
SWIDTH 1440 0
DWIDTH 24 0
BBX 24 24 0 -3
BITMAP
000000
000000
000000
000000
000000
000000
000000
000000
000000
000000
000000
000000
000000
000000
000000
000000
000000
000000
200004
200004
200004
3FFFFC
000000
000000
ENDCHAR
STARTCHAR 2460
ENCODING 9312
SWIDTH 1440 0
DWIDTH 24 0
BBX 24 24 0 -3
BITMAP
007E00
018180
060060
080010
100808
201804
20F804
401802
401802
801801
801801
801801
801801
801801
801801
401802
401802
201804
201804
10FF08
080010
060060
018180
007E00
ENDCHAR
STARTCHAR 2461
ENCODING 9313
SWIDTH 1440 0
DWIDTH 24 0
BBX 24 24 0 -3
BITMAP
007E00
018180
060060
080010
103C08
20E704
20C304
418182
418182
800301
800301
800601
800C01
801801
803001
406002
40C082
208084
21FF84
11FF88
080010
060060
018180
007E00
ENDCHAR
STARTCHAR 2462
ENCODING 9314
SWIDTH 1440 0
DWIDTH 24 0
BBX 24 24 0 -3
BITMAP
007E00
018180
060060
080010
103C08
20E704
20C304
418182
418182
800181
800301
803E01
800701
800301
818181
418182
418182
20C304
20E704
103C08
080010
060060
018180
007E00
ENDCHAR
STARTCHAR 2463
ENCODING 9315
SWIDTH 1440 0
DWIDTH 24 0
BBX 24 24 0 -3
BITMAP
007E00
018180
060060
080010
101E08
201604
202604
402602
404602
804601
808601
808601
810601
810601
820601
43FFC2
400602
200604
200604
101F88
080010
060060
018180
007E00
ENDCHAR
STARTCHAR 2464
ENCODING 9316
SWIDTH 1440 0
DWIDTH 24 0
BBX 24 24 0 -3
BITMAP
007E00
018180
060060
080010
10FF08
20FF04
208004
408002
408002
808001
80BE01
80C301
808301
800181
800181
400182
418182
218304
20C304
107E08
080010
060060
018180
007E00
ENDCHAR
STARTCHAR 2465
ENCODING 9317
SWIDTH 1440 0
DWIDTH 24 0
BBX 24 24 0 -3
BITMAP
007E00
018180
060060
080010
107E08
20C304
20C304
418002
418002
818001
81BE01
81C301
818301
818181
818181
418182
418182
20C304
20C304
107E08
080010
060060
018180
007E00
ENDCHAR
STARTCHAR 2466
ENCODING 9318
SWIDTH 1440 0
DWIDTH 24 0
BBX 24 24 0 -3
BITMAP
007E00
018180
060060
080010
11FF88
21FF84
210084
410102
400302
800201
800601
800401
800C01
800801
800801
401802
401802
201804
201804
101808
080010
060060
018180
007E00
ENDCHAR
STARTCHAR 2467
ENCODING 9319
SWIDTH 1440 0
DWIDTH 24 0
BBX 24 24 0 -3
BITMAP
007E00
018180
060060
080010
103C08
20E704
20C304
418182
418182
80C101
80F201
807E01
804E01
808301
818381
418182
418182
20C304
20E704
103C08
080010
060060
018180
007E00
ENDCHAR
STARTCHAR 2468
ENCODING 9320
SWIDTH 1440 0
DWIDTH 24 0
BBX 24 24 0 -3
BITMAP
007E00
018180
060060
080010
107E08
20C304
20C304
418182
418182
818181
818181
80C181
80C381
807D81
800181
400182
400182
20C304
20C304
107E08
080010
060060
018180
007E00
ENDCHAR
STARTCHAR 2469
ENCODING 9321
SWIDTH 1440 0
DWIDTH 24 0
BBX 24 24 0 -3
BITMAP
007E00
018180
060060
080010
100008
208384
2186C4
478442
418C62
818C61
818C61
818C61
818C61
818C61
818C61
418C62
418442
2186C4
27E384
100008
080010
060060
018180
007E00
ENDCHAR
STARTCHAR 246A
ENCODING 9322
SWIDTH 1440 0
DWIDTH 24 0
BBX 24 24 0 -3
BITMAP
007E00
018180
060060
080010
100008
208084
218184
478782
418182
818181
818181
818181
818181
818181
818181
418182
418182
218184
27E7E4
100008
080010
060060
018180
007E00
ENDCHAR
STARTCHAR 246B
ENCODING 9323
SWIDTH 1440 0
DWIDTH 24 0
BBX 24 24 0 -3
BITMAP
007E00
018180
060060
080010
100008
208384
2186C4
478C62
418C62
818061
818061
8180C1
818081
818181
818301
418622
418422
218FE4
27EFE4
100008
080010
060060
018180
007E00
ENDCHAR
STARTCHAR 246C
ENCODING 9324
SWIDTH 1440 0
DWIDTH 24 0
BBX 24 24 0 -3
BITMAP
007E00
018180
060060
080010
100008
208384
2186C4
478C62
418C62
818061
818041
818381
8180C1
818061
818C61
418C62
418C62
2186C4
27E384
100008
080010
060060
018180
007E00
ENDCHAR
STARTCHAR 246D
ENCODING 9325
SWIDTH 1440 0
DWIDTH 24 0
BBX 24 24 0 -3
BITMAP
007E00
018180
060060
080010
100008
2081C4
2181C4
4782C2
4182C2
8184C1
8184C1
8184C1
8188C1
8188C1
818FE1
4180C2
4180C2
2180C4
27E1E4
100008
080010
060060
018180
007E00
ENDCHAR
STARTCHAR 246E
ENCODING 9326
SWIDTH 1440 0
DWIDTH 24 0
BBX 24 24 0 -3
BITMAP
007E00
018180
060060
080010
100008
2087C4
2187C4
478402
418402
818401
818781
8184C1
818061
818061
818C61
418C62
418C62
2186C4
27E384
100008
080010
060060
018180
007E00
ENDCHAR
STARTCHAR 246F
ENCODING 9327
SWIDTH 1440 0
DWIDTH 24 0
BBX 24 24 0 -3
BITMAP
007E00
018180
060060
080010
100008
208384
2186C4
478C62
418C62
818C01
818F81
818EC1
818C61
818C61
818C61
418C62
418C62
2186C4
27E384
100008
080010
060060
018180
007E00
ENDCHAR
STARTCHAR 2470
ENCODING 9328
SWIDTH 1440 0
DWIDTH 24 0
BBX 24 24 0 -3
BITMAP
007E00
018180
060060
080010
100008
208FE4
218FE4
478822
418842
818041
8180C1
818081
818181
818181
818101
418302
418302
218304
27E304
100008
080010
060060
018180
007E00
ENDCHAR
STARTCHAR 2471
ENCODING 9329
SWIDTH 1440 0
DWIDTH 24 0
BBX 24 24 0 -3
BITMAP
007E00
018180
060060
080010
100008
208384
2186C4
478C62
418C62
818C61
818641
818381
8184C1
818C61
818C61
418C62
418C62
2186C4
27E384
100008
080010
060060
018180
007E00
ENDCHAR
STARTCHAR 2472
ENCODING 9330
SWIDTH 1440 0
DWIDTH 24 0
BBX 24 24 0 -3
BITMAP
007E00
018180
060060
080010
100008
208384
2186C4
478C62
418C62
818C61
818C61
818C61
8186E1
8183E1
818061
418C62
418C62
2186C4
27E384
100008
080010
060060
018180
007E00
ENDCHAR
STARTCHAR 2473
ENCODING 9331
SWIDTH 1440 0
DWIDTH 24 0
BBX 24 24 0 -3
BITMAP
007E00
018180
060060
080010
100008
21C1C4
236364
463222
463632
803631
803631
806631
804631
80C631
818631
431632
421222
27F364
27F1C4
100008
080010
060060
018180
007E00
ENDCHAR
STARTCHAR 24D0
ENCODING 9424
SWIDTH 1440 0
DWIDTH 24 0
BBX 24 24 0 -3
BITMAP
007E00
018180
060060
080010
100008
200004
200004
400002
403C02
80C601
800301
800301
807F01
80C301
818301
418302
40C742
207984
200004
100008
080010
060060
018180
007E00
ENDCHAR
STARTCHAR 24D1
ENCODING 9425
SWIDTH 1440 0
DWIDTH 24 0
BBX 24 24 0 -3
BITMAP
007E00
018180
060060
080010
10C008
23C004
20C004
40C002
40DF02
80E181
80C181
80C0C1
80C0C1
80C0C1
80C0C1
40C182
40E182
20DF04
200004
100008
080010
060060
018180
007E00
ENDCHAR
STARTCHAR 24D2
ENCODING 9426
SWIDTH 1440 0
DWIDTH 24 0
BBX 24 24 0 -3
BITMAP
007E00
018180
060060
080010
100008
200004
200004
400002
407E02
80C301
80C181
818181
818001
818001
818001
40C082
40C102
207E04
200004
100008
080010
060060
018180
007E00
ENDCHAR
STARTCHAR 24D3
ENCODING 9427
SWIDTH 1440 0
DWIDTH 24 0
BBX 24 24 0 -3
BITMAP
007E00
018180
060060
080010
100F08
200304
200304
400302
40FB02
818701
818301
830301
830301
830301
830301
418302
418702
20FBC4
200004
100008
080010
060060
018180
007E00
ENDCHAR
STARTCHAR 24D4
ENCODING 9428
SWIDTH 1440 0
DWIDTH 24 0
BBX 24 24 0 -3
BITMAP
007E00
018180
060060
080010
100008
200004
200004
400002
407E02
80C301
80C181
818181
81FF81
818001
818001
40C082
40C102
207E04
200004
100008
080010
060060
018180
007E00
ENDCHAR
STARTCHAR 24D5
ENCODING 9429
SWIDTH 1440 0
DWIDTH 24 0
BBX 24 24 0 -3
BITMAP
007E00
018180
060060
080010
100F08
201984
203184
403002
403002
81FE01
803001
803001
803001
803001
803001
403002
403002
20FC04
200004
100008
080010
060060
018180
007E00
ENDCHAR
STARTCHAR 24D6
ENCODING 9430
SWIDTH 1440 0
DWIDTH 24 0
BBX 24 24 0 -3
BITMAP
007E00
018180
060060
080010
100008
200004
200004
400082
403DC2
806641
80C301
80C301
80C601
807C01
802001
405F02
408382
218184
21C184
10FF08
080010
060060
018180
007E00
ENDCHAR
STARTCHAR 24D7
ENCODING 9431
SWIDTH 1440 0
DWIDTH 24 0
BBX 24 24 0 -3
BITMAP
007E00
018180
060060
080010
10C008
23C004
20C004
40C002
40DC02
80E301
80C181
80C181
80C181
80C181
80C181
40C182
40C182
21E3C4
200004
100008
080010
060060
018180
007E00
ENDCHAR
STARTCHAR 24D8
ENCODING 9432
SWIDTH 1440 0
DWIDTH 24 0
BBX 24 24 0 -3
BITMAP
007E00
018180
060060
080010
101808
201804
200004
400002
407802
801801
801801
801801
801801
801801
801801
401802
401802
207E04
200004
100008
080010
060060
018180
007E00
ENDCHAR
STARTCHAR 24D9
ENCODING 9433
SWIDTH 1440 0
DWIDTH 24 0
BBX 24 24 0 -3
BITMAP
007E00
018180
060060
080010
100C08
200C04
200004
400002
403C02
800C01
800C01
800C01
800C01
800C01
800C01
400C02
400C02
218C04
219804
10F008
080010
060060
018180
007E00
ENDCHAR
STARTCHAR 24DA
ENCODING 9434
SWIDTH 1440 0
DWIDTH 24 0
BBX 24 24 0 -3
BITMAP
007E00
018180
060060
080010
10C008
23C004
20C004
40C002
40C782
80C201
80C401
80C801
80D801
80EC01
80C601
40C302
40C182
21E3C4
200004
100008
080010
060060
018180
007E00
ENDCHAR
STARTCHAR 24DB
ENCODING 9435
SWIDTH 1440 0
DWIDTH 24 0
BBX 24 24 0 -3
BITMAP
007E00
018180
060060
080010
103808
201804
201804
401802
401802
801801
801801
801801
801801
801801
801801
401802
401802
207E04
200004
100008
080010
060060
018180
007E00
ENDCHAR
STARTCHAR 24DC
ENCODING 9436
SWIDTH 1440 0
DWIDTH 24 0
BBX 24 24 0 -3
BITMAP
007E00
018180
060060
080010
100008
200004
200004
400002
436302
879481
8318C1
8318C1
8318C1
8318C1
8318C1
4318C2
4318C2
27BDE4
200004
100008
080010
060060
018180
007E00
ENDCHAR
STARTCHAR 24DD
ENCODING 9437
SWIDTH 1440 0
DWIDTH 24 0
BBX 24 24 0 -3
BITMAP
007E00
018180
060060
080010
100008
200004
200004
400002
41BE02
83C301
818181
818181
818181
818181
818181
418182
418182
23C3C4
200004
100008
080010
060060
018180
007E00
ENDCHAR
STARTCHAR 24DE
ENCODING 9438
SWIDTH 1440 0
DWIDTH 24 0
BBX 24 24 0 -3
BITMAP
007E00
018180
060060
080010
100008
200004
200004
400002
407E02
80C301
80C301
818181
818181
818181
818181
40C302
40C302
207E04
200004
100008
080010
060060
018180
007E00
ENDCHAR
STARTCHAR 24DF
ENCODING 9439
SWIDTH 1440 0
DWIDTH 24 0
BBX 24 24 0 -3
BITMAP
007E00
018180
060060
080010
100008
200004
200004
400002
40DF02
83E181
80C181
80C0C1
80C0C1
80C0C1
80C181
40E182
40DF02
20C004
20C004
11E008
080010
060060
018180
007E00
ENDCHAR
STARTCHAR 24E0
ENCODING 9440
SWIDTH 1440 0
DWIDTH 24 0
BBX 24 24 0 -3
BITMAP
007E00
018180
060060
080010
100008
200004
200004
400002
40F902
818701
818301
830301
830301
830301
818301
418702
40FB02
200304
200304
100788
080010
060060
018180
007E00
ENDCHAR
STARTCHAR 24E1
ENCODING 9441
SWIDTH 1440 0
DWIDTH 24 0
BBX 24 24 0 -3
BITMAP
007E00
018180
060060
080010
100008
200004
200004
400002
406702
80E981
807181
806001
806001
806001
806001
406002
406002
20F004
200004
100008
080010
060060
018180
007E00
ENDCHAR
STARTCHAR 24E2
ENCODING 9442
SWIDTH 1440 0
DWIDTH 24 0
BBX 24 24 0 -3
BITMAP
007E00
018180
060060
080010
100008
200004
200004
400002
407D02
80E301
80C101
80E001
807801
801E01
800701
408302
40C702
20BE04
200004
100008
080010
060060
018180
007E00
ENDCHAR
STARTCHAR 24E3
ENCODING 9443
SWIDTH 1440 0
DWIDTH 24 0
BBX 24 24 0 -3
BITMAP
007E00
018180
060060
080010
103008
203004
203004
403002
41FE02
803001
803001
803001
803001
803001
803001
403082
401902
200E04
200004
100008
080010
060060
018180
007E00
ENDCHAR
STARTCHAR 24E4
ENCODING 9444
SWIDTH 1440 0
DWIDTH 24 0
BBX 24 24 0 -3
BITMAP
007E00
018180
060060
080010
100008
200004
200004
400002
40C302
81C701
80C301
80C301
80C301
80C301
80C301
40C302
406702
203B84
200004
100008
080010
060060
018180
007E00
ENDCHAR
STARTCHAR 24E5
ENCODING 9445
SWIDTH 1440 0
DWIDTH 24 0
BBX 24 24 0 -3
BITMAP
007E00
018180
060060
080010
100008
200004
200004
400002
43F3E2
80C081
80C101
806101
806201
803201
803401
401C02
401802
200804
200004
100008
080010
060060
018180
007E00
ENDCHAR
STARTCHAR 24E6
ENCODING 9446
SWIDTH 1440 0
DWIDTH 24 0
BBX 24 24 0 -3
BITMAP
007E00
018180
060060
080010
100008
200004
200004
400002
4F3CF2
861861
861841
833CC1
832C81
836D81
81C701
41C702
408202
208204
200004
100008
080010
060060
018180
007E00
ENDCHAR
STARTCHAR 24E7
ENCODING 9447
SWIDTH 1440 0
DWIDTH 24 0
BBX 24 24 0 -3
BITMAP
007E00
018180
060060
080010
100008
200004
200004
400002
43E3C2
80C101
806201
803401
801801
801C01
802601
404302
408182
23C3E4
200004
100008
080010
060060
018180
007E00
ENDCHAR
STARTCHAR 24E8
ENCODING 9448
SWIDTH 1440 0
DWIDTH 24 0
BBX 24 24 0 -3
BITMAP
007E00
018180
060060
080010
100008
200004
200004
400002
41E7C2
80C101
806101
806201
803201
803401
801C01
400802
400802
231004
232004
11C008
080010
060060
018180
007E00
ENDCHAR
STARTCHAR 24E9
ENCODING 9449
SWIDTH 1440 0
DWIDTH 24 0
BBX 24 24 0 -3
BITMAP
007E00
018180
060060
080010
100008
200004
200004
400002
41FF82
810301
820601
800C01
801801
803001
806001
40C042
418082
23FF84
200004
100008
080010
060060
018180
007E00
ENDCHAR
STARTCHAR 24EB
ENCODING 9451
SWIDTH 1440 0
DWIDTH 24 0
BBX 24 24 0 -3
BITMAP
007E00
01FF80
07FFE0
0FFFF0
1FFFF8
3F7F7C
3E7E7C
78787E
7E7E7E
FE7E7F
FE7E7F
FE7E7F
FE7E7F
FE7E7F
FE7E7F
7E7E7E
7E7E7E
3E7E7C
38181C
1FFFF8
0FFFF0
07FFE0
01FF80
007E00
ENDCHAR
STARTCHAR 24EC
ENCODING 9452
SWIDTH 1440 0
DWIDTH 24 0
BBX 24 24 0 -3
BITMAP
007E00
01FF80
07FFE0
0FFFF0
1FFFF8
3F7C7C
3E793C
78739E
7E739E
FE7F9F
FE7F9F
FE7F3F
FE7F7F
FE7E7F
FE7CFF
7E79DE
7E7BDE
3E701C
38101C
1FFFF8
0FFFF0
07FFE0
01FF80
007E00
ENDCHAR
STARTCHAR 24ED
ENCODING 9453
SWIDTH 1440 0
DWIDTH 24 0
BBX 24 24 0 -3
BITMAP
007E00
01FF80
07FFE0
0FFFF0
1FFFF8
3F7C7C
3E793C
78739E
7E739E
FE7F9F
FE7FBF
FE7C7F
FE7F3F
FE7F9F
FE739F
7E739E
7E739E
3E793C
381C7C
1FFFF8
0FFFF0
07FFE0
01FF80
007E00
ENDCHAR
STARTCHAR 24EE
ENCODING 9454
SWIDTH 1440 0
DWIDTH 24 0
BBX 24 24 0 -3
BITMAP
007E00
01FF80
07FFE0
0FFFF0
1FFFF8
3F7E3C
3E7E3C
787D3E
7E7D3E
FE7B3F
FE7B3F
FE7B3F
FE773F
FE773F
FE701F
7E7F3E
7E7F3E
3E7F3C
381E1C
1FFFF8
0FFFF0
07FFE0
01FF80
007E00
ENDCHAR
STARTCHAR 24EF
ENCODING 9455
SWIDTH 1440 0
DWIDTH 24 0
BBX 24 24 0 -3
BITMAP
007E00
01FF80
07FFE0
0FFFF0
1FFFF8
3F783C
3E783C
787BFE
7E7BFE
FE7BFF
FE787F
FE7B3F
FE7F9F
FE7F9F
FE739F
7E739E
7E739E
3E793C
381C7C
1FFFF8
0FFFF0
07FFE0
01FF80
007E00
ENDCHAR
STARTCHAR 24F0
ENCODING 9456
SWIDTH 1440 0
DWIDTH 24 0
BBX 24 24 0 -3
BITMAP
007E00
01FF80
07FFE0
0FFFF0
1FFFF8
3F7C7C
3E793C
78739E
7E739E
FE73FF
FE707F
FE713F
FE739F
FE739F
FE739F
7E739E
7E739E
3E793C
381C7C
1FFFF8
0FFFF0
07FFE0
01FF80
007E00
ENDCHAR
STARTCHAR 24F1
ENCODING 9457
SWIDTH 1440 0
DWIDTH 24 0
BBX 24 24 0 -3
BITMAP
007E00
01FF80
07FFE0
0FFFF0
1FFFF8
3F701C
3E701C
7877DE
7E77BE
FE7FBF
FE7F3F
FE7F7F
FE7E7F
FE7E7F
FE7EFF
7E7CFE
7E7CFE
3E7CFC
381CFC
1FFFF8
0FFFF0
07FFE0
01FF80
007E00
ENDCHAR
STARTCHAR 24F2
ENCODING 9458
SWIDTH 1440 0
DWIDTH 24 0
BBX 24 24 0 -3
BITMAP
007E00
01FF80
07FFE0
0FFFF0
1FFFF8
3F7C7C
3E793C
78739E
7E739E
FE739F
FE79BF
FE7C7F
FE7B3F
FE739F
FE739F
7E739E
7E739E
3E793C
381C7C
1FFFF8
0FFFF0
07FFE0
01FF80
007E00
ENDCHAR
STARTCHAR 24F3
ENCODING 9459
SWIDTH 1440 0
DWIDTH 24 0
BBX 24 24 0 -3
BITMAP
007E00
01FF80
07FFE0
0FFFF0
1FFFF8
3F7C7C
3E793C
78739E
7E739E
FE739F
FE739F
FE739F
FE791F
FE7C1F
FE7F9F
7E739E
7E739E
3E793C
381C7C
1FFFF8
0FFFF0
07FFE0
01FF80
007E00
ENDCHAR
STARTCHAR 24F4
ENCODING 9460
SWIDTH 1440 0
DWIDTH 24 0
BBX 24 24 0 -3
BITMAP
007E00
01FF80
07FFE0
0FFFF0
1FFFF8
3E3E3C
3C9C9C
79CDDE
79C9CE
FFC9CF
FFC9CF
FF99CF
FFB9CF
FF39CF
FE79CF
7CE9CE
7DEDDE
380C9C
380E3C
1FFFF8
0FFFF0
07FFE0
01FF80
007E00
ENDCHAR
STARTCHAR 24F5
ENCODING 9461
SWIDTH 1440 0
DWIDTH 24 0
BBX 24 24 0 -3
BITMAP
007E00
018180
063C60
08C310
1300C8
240824
281814
487812
50180A
901809
A01805
A01805
A01805
A01805
901809
50180A
481812
281814
247E24
1300C8
08C310
063C60
018180
007E00
ENDCHAR
STARTCHAR 24F6
ENCODING 9462
SWIDTH 1440 0
DWIDTH 24 0
BBX 24 24 0 -3
BITMAP
007E00
018180
063C60
08C310
1300C8
247E24
28C314
498192
51818A
900189
A00305
A00605
A00805
A01005
902089
50408A
48FF92
29FF94
240024
1300C8
08C310
063C60
018180
007E00
ENDCHAR
STARTCHAR 24F7
ENCODING 9463
SWIDTH 1440 0
DWIDTH 24 0
BBX 24 24 0 -3
BITMAP
007E00
018180
063C60
08C310
1300C8
247E24
28C314
498192
51818A
900189
A00305
A03E05
A00305
A00185
900189
51818A
498192
28C314
247E24
1300C8
08C310
063C60
018180
007E00
ENDCHAR
STARTCHAR 24F8
ENCODING 9464
SWIDTH 1440 0
DWIDTH 24 0
BBX 24 24 0 -3
BITMAP
007E00
018180
063C60
08C310
1300C8
240C24
281C14
482C12
502C0A
904C09
A04C05
A08C05
A08C05
A10C05
910C09
53FF8A
480C12
280C14
243F24
1300C8
08C310
063C60
018180
007E00
ENDCHAR
STARTCHAR 24F9
ENCODING 9465
SWIDTH 1440 0
DWIDTH 24 0
BBX 24 24 0 -3
BITMAP
007E00
018180
063C60
08C310
1300C8
24FF24
28FF14
488012
50800A
908009
A0BE05
A0C305
A08185
A00185
900189
51818A
498192
28C314
247E24
1300C8
08C310
063C60
018180
007E00
ENDCHAR
STARTCHAR 24FA
ENCODING 9466
SWIDTH 1440 0
DWIDTH 24 0
BBX 24 24 0 -3
BITMAP
007E00
018180
063C60
08C310
1300C8
247E24
28C314
498192
51818A
918009
A1BE05
A1C305
A18185
A18185
918189
51818A
498192
28C314
247E24
1300C8
08C310
063C60
018180
007E00
ENDCHAR
STARTCHAR 24FB
ENCODING 9467
SWIDTH 1440 0
DWIDTH 24 0
BBX 24 24 0 -3
BITMAP
007E00
018180
063C60
08C310
1300C8
24FF24
28FF14
488112
50820A
900209
A00405
A00405
A00C05
A00805
901809
50180A
481812
281814
241824
1300C8
08C310
063C60
018180
007E00
ENDCHAR
STARTCHAR 24FC
ENCODING 9468
SWIDTH 1440 0
DWIDTH 24 0
BBX 24 24 0 -3
BITMAP
007E00
018180
063C60
08C310
1300C8
247E24
28C314
498192
51818A
91C189
A0F305
A07E05
A0CF05
A18385
918189
51818A
498192
28C314
247E24
1300C8
08C310
063C60
018180
007E00
ENDCHAR
STARTCHAR 24FD
ENCODING 9469
SWIDTH 1440 0
DWIDTH 24 0
BBX 24 24 0 -3
BITMAP
007E00
018180
063C60
08C310
1300C8
247E24
28C314
498192
51818A
918189
A18185
A0C385
A07D85
A00185
900189
51818A
498192
28C314
247E24
1300C8
08C310
063C60
018180
007E00
ENDCHAR
STARTCHAR 24FE
ENCODING 9470
SWIDTH 1440 0
DWIDTH 24 0
BBX 24 24 0 -3
BITMAP
007E00
018180
063C60
08C310
1300C8
244324
28C494
4BC492
50CCCA
90CCC9
A0CCC5
A0CCC5
A0CCC5
A0CCC5
90CCC9
50C48A
48C492
2BF314
240024
1300C8
08C310
063C60
018180
007E00
ENDCHAR
STARTCHAR 2500
ENCODING 9472
SWIDTH 1440 0
DWIDTH 24 0
BBX 24 24 0 -3
BITMAP
000000
000000
000000
000000
000000
000000
000000
000000
000000
000000
000000
FFFFFF
000000
000000
000000
000000
000000
000000
000000
000000
000000
000000
000000
000000
ENDCHAR
STARTCHAR 2501
ENCODING 9473
SWIDTH 1440 0
DWIDTH 24 0
BBX 24 24 0 -3
BITMAP
000000
000000
000000
000000
000000
000000
000000
000000
000000
000000
FFFFFF
FFFFFF
FFFFFF
000000
000000
000000
000000
000000
000000
000000
000000
000000
000000
000000
ENDCHAR
STARTCHAR 2502
ENCODING 9474
SWIDTH 1440 0
DWIDTH 24 0
BBX 24 24 0 -3
BITMAP
001000
001000
001000
001000
001000
001000
001000
001000
001000
001000
001000
001000
001000
001000
001000
001000
001000
001000
001000
001000
001000
001000
001000
001000
ENDCHAR
STARTCHAR 2503
ENCODING 9475
SWIDTH 1440 0
DWIDTH 24 0
BBX 24 24 0 -3
BITMAP
003800
003800
003800
003800
003800
003800
003800
003800
003800
003800
003800
003800
003800
003800
003800
003800
003800
003800
003800
003800
003800
003800
003800
003800
ENDCHAR
STARTCHAR 250C
ENCODING 9484
SWIDTH 1440 0
DWIDTH 24 0
BBX 24 24 0 -3
BITMAP
000000
000000
000000
000000
000000
000000
000000
000000
000000
000000
000000
001FFF
001000
001000
001000
001000
001000
001000
001000
001000
001000
001000
001000
001000
ENDCHAR
STARTCHAR 250F
ENCODING 9487
SWIDTH 1440 0
DWIDTH 24 0
BBX 24 24 0 -3
BITMAP
000000
000000
000000
000000
000000
000000
000000
000000
000000
000000
003FFF
003FFF
003FFF
003800
003800
003800
003800
003800
003800
003800
003800
003800
003800
003800
ENDCHAR
STARTCHAR 2510
ENCODING 9488
SWIDTH 1440 0
DWIDTH 24 0
BBX 24 24 0 -3
BITMAP
000000
000000
000000
000000
000000
000000
000000
000000
000000
000000
000000
FFF000
001000
001000
001000
001000
001000
001000
001000
001000
001000
001000
001000
001000
ENDCHAR
STARTCHAR 2513
ENCODING 9491
SWIDTH 1440 0
DWIDTH 24 0
BBX 24 24 0 -3
BITMAP
000000
000000
000000
000000
000000
000000
000000
000000
000000
000000
FFF800
FFF800
FFF800
003800
003800
003800
003800
003800
003800
003800
003800
003800
003800
003800
ENDCHAR
STARTCHAR 2514
ENCODING 9492
SWIDTH 1440 0
DWIDTH 24 0
BBX 24 24 0 -3
BITMAP
001000
001000
001000
001000
001000
001000
001000
001000
001000
001000
001000
001FFF
000000
000000
000000
000000
000000
000000
000000
000000
000000
000000
000000
000000
ENDCHAR
STARTCHAR 2517
ENCODING 9495
SWIDTH 1440 0
DWIDTH 24 0
BBX 24 24 0 -3
BITMAP
003800
003800
003800
003800
003800
003800
003800
003800
003800
003800
003FFF
003FFF
003FFF
000000
000000
000000
000000
000000
000000
000000
000000
000000
000000
000000
ENDCHAR
STARTCHAR 2518
ENCODING 9496
SWIDTH 1440 0
DWIDTH 24 0
BBX 24 24 0 -3
BITMAP
001000
001000
001000
001000
001000
001000
001000
001000
001000
001000
001000
FFF000
000000
000000
000000
000000
000000
000000
000000
000000
000000
000000
000000
000000
ENDCHAR
STARTCHAR 251B
ENCODING 9499
SWIDTH 1440 0
DWIDTH 24 0
BBX 24 24 0 -3
BITMAP
003800
003800
003800
003800
003800
003800
003800
003800
003800
003800
FFF800
FFF800
FFF800
000000
000000
000000
000000
000000
000000
000000
000000
000000
000000
000000
ENDCHAR
STARTCHAR 251C
ENCODING 9500
SWIDTH 1440 0
DWIDTH 24 0
BBX 24 24 0 -3
BITMAP
001000
001000
001000
001000
001000
001000
001000
001000
001000
001000
001000
001FFF
001000
001000
001000
001000
001000
001000
001000
001000
001000
001000
001000
001000
ENDCHAR
STARTCHAR 251D
ENCODING 9501
SWIDTH 1440 0
DWIDTH 24 0
BBX 24 24 0 -3
BITMAP
001000
001000
001000
001000
001000
001000
001000
001000
001000
001000
001FFF
001FFF
001FFF
001000
001000
001000
001000
001000
001000
001000
001000
001000
001000
001000
ENDCHAR
STARTCHAR 2520
ENCODING 9504
SWIDTH 1440 0
DWIDTH 24 0
BBX 24 24 0 -3
BITMAP
003800
003800
003800
003800
003800
003800
003800
003800
003800
003800
003800
003FFF
003800
003800
003800
003800
003800
003800
003800
003800
003800
003800
003800
003800
ENDCHAR
STARTCHAR 2523
ENCODING 9507
SWIDTH 1440 0
DWIDTH 24 0
BBX 24 24 0 -3
BITMAP
003800
003800
003800
003800
003800
003800
003800
003800
003800
003800
003FFF
003FFF
003FFF
003800
003800
003800
003800
003800
003800
003800
003800
003800
003800
003800
ENDCHAR
STARTCHAR 2524
ENCODING 9508
SWIDTH 1440 0
DWIDTH 24 0
BBX 24 24 0 -3
BITMAP
001000
001000
001000
001000
001000
001000
001000
001000
001000
001000
001000
FFF000
001000
001000
001000
001000
001000
001000
001000
001000
001000
001000
001000
001000
ENDCHAR
STARTCHAR 2525
ENCODING 9509
SWIDTH 1440 0
DWIDTH 24 0
BBX 24 24 0 -3
BITMAP
001000
001000
001000
001000
001000
001000
001000
001000
001000
001000
FFF000
FFF000
FFF000
001000
001000
001000
001000
001000
001000
001000
001000
001000
001000
001000
ENDCHAR
STARTCHAR 2528
ENCODING 9512
SWIDTH 1440 0
DWIDTH 24 0
BBX 24 24 0 -3
BITMAP
003800
003800
003800
003800
003800
003800
003800
003800
003800
003800
003800
FFF800
003800
003800
003800
003800
003800
003800
003800
003800
003800
003800
003800
003800
ENDCHAR
STARTCHAR 252B
ENCODING 9515
SWIDTH 1440 0
DWIDTH 24 0
BBX 24 24 0 -3
BITMAP
003800
003800
003800
003800
003800
003800
003800
003800
003800
003800
FFF800
FFF800
FFF800
003800
003800
003800
003800
003800
003800
003800
003800
003800
003800
003800
ENDCHAR
STARTCHAR 252C
ENCODING 9516
SWIDTH 1440 0
DWIDTH 24 0
BBX 24 24 0 -3
BITMAP
000000
000000
000000
000000
000000
000000
000000
000000
000000
000000
000000
FFFFFF
001000
001000
001000
001000
001000
001000
001000
001000
001000
001000
001000
001000
ENDCHAR
STARTCHAR 252F
ENCODING 9519
SWIDTH 1440 0
DWIDTH 24 0
BBX 24 24 0 -3
BITMAP
000000
000000
000000
000000
000000
000000
000000
000000
000000
000000
FFFFFF
FFFFFF
FFFFFF
001000
001000
001000
001000
001000
001000
001000
001000
001000
001000
001000
ENDCHAR
STARTCHAR 2530
ENCODING 9520
SWIDTH 1440 0
DWIDTH 24 0
BBX 24 24 0 -3
BITMAP
000000
000000
000000
000000
000000
000000
000000
000000
000000
000000
000000
FFFFFF
003800
003800
003800
003800
003800
003800
003800
003800
003800
003800
003800
003800
ENDCHAR
STARTCHAR 2533
ENCODING 9523
SWIDTH 1440 0
DWIDTH 24 0
BBX 24 24 0 -3
BITMAP
000000
000000
000000
000000
000000
000000
000000
000000
000000
000000
FFFFFF
FFFFFF
FFFFFF
003800
003800
003800
003800
003800
003800
003800
003800
003800
003800
003800
ENDCHAR
STARTCHAR 2534
ENCODING 9524
SWIDTH 1440 0
DWIDTH 24 0
BBX 24 24 0 -3
BITMAP
001000
001000
001000
001000
001000
001000
001000
001000
001000
001000
001000
FFFFFF
000000
000000
000000
000000
000000
000000
000000
000000
000000
000000
000000
000000
ENDCHAR
STARTCHAR 2537
ENCODING 9527
SWIDTH 1440 0
DWIDTH 24 0
BBX 24 24 0 -3
BITMAP
001000
001000
001000
001000
001000
001000
001000
001000
001000
001000
FFFFFF
FFFFFF
FFFFFF
000000
000000
000000
000000
000000
000000
000000
000000
000000
000000
000000
ENDCHAR
STARTCHAR 2538
ENCODING 9528
SWIDTH 1440 0
DWIDTH 24 0
BBX 24 24 0 -3
BITMAP
003800
003800
003800
003800
003800
003800
003800
003800
003800
003800
003800
FFFFFF
000000
000000
000000
000000
000000
000000
000000
000000
000000
000000
000000
000000
ENDCHAR
STARTCHAR 253B
ENCODING 9531
SWIDTH 1440 0
DWIDTH 24 0
BBX 24 24 0 -3
BITMAP
003800
003800
003800
003800
003800
003800
003800
003800
003800
003800
FFFFFF
FFFFFF
FFFFFF
000000
000000
000000
000000
000000
000000
000000
000000
000000
000000
000000
ENDCHAR
STARTCHAR 253C
ENCODING 9532
SWIDTH 1440 0
DWIDTH 24 0
BBX 24 24 0 -3
BITMAP
001000
001000
001000
001000
001000
001000
001000
001000
001000
001000
001000
FFFFFF
001000
001000
001000
001000
001000
001000
001000
001000
001000
001000
001000
001000
ENDCHAR
STARTCHAR 253F
ENCODING 9535
SWIDTH 1440 0
DWIDTH 24 0
BBX 24 24 0 -3
BITMAP
001000
001000
001000
001000
001000
001000
001000
001000
001000
001000
FFFFFF
FFFFFF
FFFFFF
001000
001000
001000
001000
001000
001000
001000
001000
001000
001000
001000
ENDCHAR
STARTCHAR 2542
ENCODING 9538
SWIDTH 1440 0
DWIDTH 24 0
BBX 24 24 0 -3
BITMAP
003800
003800
003800
003800
003800
003800
003800
003800
003800
003800
003800
FFFFFF
003800
003800
003800
003800
003800
003800
003800
003800
003800
003800
003800
003800
ENDCHAR
STARTCHAR 254B
ENCODING 9547
SWIDTH 1440 0
DWIDTH 24 0
BBX 24 24 0 -3
BITMAP
003800
003800
003800
003800
003800
003800
003800
003800
003800
003800
FFFFFF
FFFFFF
FFFFFF
003800
003800
003800
003800
003800
003800
003800
003800
003800
003800
003800
ENDCHAR
STARTCHAR 25A0
ENCODING 9632
SWIDTH 1440 0
DWIDTH 24 0
BBX 24 24 0 -3
BITMAP
000000
7FFFFE
7FFFFE
7FFFFE
7FFFFE
7FFFFE
7FFFFE
7FFFFE
7FFFFE
7FFFFE
7FFFFE
7FFFFE
7FFFFE
7FFFFE
7FFFFE
7FFFFE
7FFFFE
7FFFFE
7FFFFE
7FFFFE
7FFFFE
7FFFFE
7FFFFE
000000
ENDCHAR
STARTCHAR 25A1
ENCODING 9633
SWIDTH 1440 0
DWIDTH 24 0
BBX 24 24 0 -3
BITMAP
000000
7FFFFE
400002
400002
400002
400002
400002
400002
400002
400002
400002
400002
400002
400002
400002
400002
400002
400002
400002
400002
400002
400002
7FFFFE
000000
ENDCHAR
STARTCHAR 25B1
ENCODING 9649
SWIDTH 1440 0
DWIDTH 24 0
BBX 24 24 0 -3
BITMAP
000000
000000
000000
000000
000000
000000
000000
03FFFE
040004
040004
080008
080008
100010
100010
200020
200020
7FFFC0
000000
000000
000000
000000
000000
000000
000000
ENDCHAR
STARTCHAR 25B2
ENCODING 9650
SWIDTH 1440 0
DWIDTH 24 0
BBX 24 24 0 -3
BITMAP
000000
000000
000000
001000
003800
003800
007C00
007C00
00FE00
00FF00
01FF00
01FF80
03FF80
03FFC0
07FFE0
0FFFE0
0FFFF0
1FFFF8
1FFFF8
3FFFFC
7FFFFE
000000
000000
000000
ENDCHAR
STARTCHAR 25B3
ENCODING 9651
SWIDTH 1440 0
DWIDTH 24 0
BBX 24 24 0 -3
BITMAP
000000
000000
000000
001000
002800
002800
004400
004400
008200
008100
010100
010080
020080
020040
040020
080020
080010
100008
100008
200004
7FFFFE
000000
000000
000000
ENDCHAR
STARTCHAR 25B6
ENCODING 9654
SWIDTH 1440 0
DWIDTH 24 0
BBX 24 24 0 -3
BITMAP
000000
100000
180000
1E0000
1F8000
1FC000
1FF000
1FFC00
1FFF00
1FFFC0
1FFFF0
1FFFF8
1FFFF0
1FFFC0
1FFF00
1FFE00
1FF800
1FE000
1FC000
1F0000
1E0000
180000
100000
000000
ENDCHAR
STARTCHAR 25B7
ENCODING 9655
SWIDTH 1440 0
DWIDTH 24 0
BBX 24 24 0 -3
BITMAP
000000
100000
180000
160000
118000
104000
103000
100C00
100300
1000C0
100030
100008
100030
1000C0
100100
100600
101800
102000
10C000
110000
160000
180000
100000
000000
ENDCHAR
STARTCHAR 25BC
ENCODING 9660
SWIDTH 1440 0
DWIDTH 24 0
BBX 24 24 0 -3
BITMAP
000000
000000
000000
7FFFFE
3FFFFC
1FFFF8
1FFFF8
0FFFF0
0FFFE0
07FFE0
03FFC0
03FF80
01FF80
01FF00
00FF00
00FE00
007C00
007C00
003800
003800
001000
000000
000000
000000
ENDCHAR
STARTCHAR 25BD
ENCODING 9661
SWIDTH 1440 0
DWIDTH 24 0
BBX 24 24 0 -3
BITMAP
000000
000000
000000
7FFFFE
200004
100008
100008
080010
080020
040020
020040
020080
010080
010100
008100
008200
004400
004400
002800
002800
001000
000000
000000
000000
ENDCHAR
STARTCHAR 25C0
ENCODING 9664
SWIDTH 1440 0
DWIDTH 24 0
BBX 24 24 0 -3
BITMAP
000000
000008
000018
000078
0001F8
0003F8
000FF8
003FF8
00FFF8
03FFF8
0FFFF8
1FFFF8
0FFFF8
03FFF8
00FFF8
007FF8
001FF8
0007F8
0003F8
0000F8
000078
000018
000008
000000
ENDCHAR
STARTCHAR 25C1
ENCODING 9665
SWIDTH 1440 0
DWIDTH 24 0
BBX 24 24 0 -3
BITMAP
000000
000008
000018
000068
000188
000208
000C08
003008
00C008
030008
0C0008
100008
0C0008
030008
008008
006008
001808
000408
000308
000088
000068
000018
000008
000000
ENDCHAR
STARTCHAR 25C6
ENCODING 9670
SWIDTH 1440 0
DWIDTH 24 0
BBX 24 24 0 -3
BITMAP
001800
003C00
007E00
00FF00
01FF80
03FFC0
07FFE0
0FFFF0
1FFFF8
3FFFFC
7FFFFE
FFFFFF
FFFFFF
7FFFFE
3FFFFC
1FFFF8
0FFFF0
07FFE0
03FFC0
01FF80
00FF00
007E00
003C00
001800
ENDCHAR
STARTCHAR 25C7
ENCODING 9671
SWIDTH 1440 0
DWIDTH 24 0
BBX 24 24 0 -3
BITMAP
001800
002400
004200
008100
010080
020040
040020
080010
100008
200004
400002
800001
800001
400002
200004
100008
080010
040020
020040
010080
008100
004200
002400
001800
ENDCHAR
STARTCHAR 25C9
ENCODING 9673
SWIDTH 1440 0
DWIDTH 24 0
BBX 24 24 0 -3
BITMAP
000000
007E00
018180
060060
087E10
11FF88
13FFC8
27FFE4
27FFE4
4FFFF2
4FFFF2
4FFFF2
4FFFF2
4FFFF2
4FFFF2
27FFE4
27FFE4
13FFC8
11FF88
087E10
060060
018180
007E00
000000
ENDCHAR
STARTCHAR 25CB
ENCODING 9675
SWIDTH 1440 0
DWIDTH 24 0
BBX 24 24 0 -3
BITMAP
000000
007E00
018180
060060
080010
100008
100008
200004
200004
400002
400002
400002
400002
400002
400002
200004
200004
100008
100008
080010
060060
018180
007E00
000000
ENDCHAR
STARTCHAR 25CE
ENCODING 9678
SWIDTH 1440 0
DWIDTH 24 0
BBX 24 24 0 -3
BITMAP
000000
007E00
018180
060060
080010
103C08
10C308
210084
220044
420042
440022
440022
440022
440022
420042
220044
210084
10C308
103C08
080010
060060
018180
007E00
000000
ENDCHAR
STARTCHAR 25CF
ENCODING 9679
SWIDTH 1440 0
DWIDTH 24 0
BBX 24 24 0 -3
BITMAP
000000
007E00
01FF80
07FFE0
0FFFF0
1FFFF8
1FFFF8
3FFFFC
3FFFFC
7FFFFE
7FFFFE
7FFFFE
7FFFFE
7FFFFE
7FFFFE
3FFFFC
3FFFFC
1FFFF8
1FFFF8
0FFFF0
07FFE0
01FF80
007E00
000000
ENDCHAR
STARTCHAR 25D0
ENCODING 9680
SWIDTH 1440 0
DWIDTH 24 0
BBX 24 24 0 -3
BITMAP
000000
007E00
01F180
07F060
0FF010
1FF008
1FF008
3FF004
3FF004
7FF002
7FF002
7FF002
7FF002
7FF002
7FF002
3FF004
3FF004
1FF008
1FF008
0FF010
07F060
01F180
007E00
000000
ENDCHAR
STARTCHAR 25D1
ENCODING 9681
SWIDTH 1440 0
DWIDTH 24 0
BBX 24 24 0 -3
BITMAP
000000
007E00
018F80
060FE0
080FF0
100FF8
100FF8
200FFC
200FFC
400FFE
400FFE
400FFE
400FFE
400FFE
400FFE
200FFC
200FFC
100FF8
100FF8
080FF0
060FE0
018F80
007E00
000000
ENDCHAR
STARTCHAR 25D2
ENCODING 9682
SWIDTH 1440 0
DWIDTH 24 0
BBX 24 24 0 -3
BITMAP
000000
007E00
018180
060060
080010
100008
100008
200004
200004
400002
400002
400002
7FFFFE
7FFFFE
7FFFFE
3FFFFC
3FFFFC
1FFFF8
1FFFF8
0FFFF0
07FFE0
01FF80
007E00
000000
ENDCHAR
STARTCHAR 25D3
ENCODING 9683
SWIDTH 1440 0
DWIDTH 24 0
BBX 24 24 0 -3
BITMAP
000000
007E00
01FF80
07FFE0
0FFFF0
1FFFF8
1FFFF8
3FFFFC
3FFFFC
7FFFFE
7FFFFE
7FFFFE
400002
400002
400002
200004
200004
100008
100008
080010
060060
018180
007E00
000000
ENDCHAR
STARTCHAR 25E6
ENCODING 9702
SWIDTH 1440 0
DWIDTH 24 0
BBX 24 24 0 -3
BITMAP
000000
000000
000000
000000
000000
000000
000000
000000
003C00
004200
008100
008100
008100
008100
004200
003C00
000000
000000
000000
000000
000000
000000
000000
000000
ENDCHAR
STARTCHAR 25EF
ENCODING 9711
SWIDTH 1440 0
DWIDTH 24 0
BBX 24 24 0 -3
BITMAP
007E00
018180
060060
080010
100008
200004
200004
400002
400002
800001
800001
800001
800001
800001
800001
400002
400002
200004
200004
100008
080010
060060
018180
007E00
ENDCHAR
STARTCHAR 2600
ENCODING 9728
SWIDTH 1440 0
DWIDTH 24 0
BBX 24 24 0 -3
BITMAP
001800
001800
101808
38181C
1C0038
0C0030
003C00
00FF00
01FF80
01FF80
03FFC0
F3FFCF
F3FFCF
03FFC0
01FF80
01FF80
00FF00
003C00
0C0030
1C0038
38181C
101808
001800
001800
ENDCHAR
STARTCHAR 2601
ENCODING 9729
SWIDTH 1440 0
DWIDTH 24 0
BBX 24 24 0 -3
BITMAP
000000
000000
000000
000000
007000
01FC00
03FE00
03FE00
07FF1C
07FF7E
07FFFE
1FFFFE
3FFFFE
7FFFFC
7FFFF8
7FFFFC
7FF7FE
3FE3FE
1F83FE
0001FC
0000F8
000000
000000
000000
ENDCHAR
STARTCHAR 2602
ENCODING 9730
SWIDTH 1440 0
DWIDTH 24 0
BBX 24 24 0 -3
BITMAP
000000
001000
001000
00FE00
03FF80
0FFFE0
1FFFF0
3FFFF8
3FFFF8
7FFFFC
6739CC
421084
421084
001000
001000
001000
001000
001000
001000
021000
021000
033000
01E000
000000
ENDCHAR
STARTCHAR 2603
ENCODING 9731
SWIDTH 1440 0
DWIDTH 24 0
BBX 24 24 0 -3
BITMAP
020304
0547CA
122FE4
287FF0
118FF0
0207E0
4401FA
A46625
446622
040020
246624
723C4E
1E0078
080010
500008
A01804
601804
200004
200004
101808
101808
0C0030
03FFC0
000000
ENDCHAR
STARTCHAR 2605
ENCODING 9733
SWIDTH 1440 0
DWIDTH 24 0
BBX 24 24 0 -3
BITMAP
000000
000000
001000
001000
003800
003800
007C00
007C00
00FE00
3FFFF8
1FFFF0
0FFFE0
07FFC0
03FF80
01FF00
01FF00
03FF80
03EF80
07C7C0
0701C0
0E00E0
080020
000000
000000
ENDCHAR
STARTCHAR 2606
ENCODING 9734
SWIDTH 1440 0
DWIDTH 24 0
BBX 24 24 0 -3
BITMAP
000000
000000
001000
002800
002800
004400
004400
004200
008200
3F81F8
100010
080020
040040
020080
010100
020080
021080
042840
044440
098320
0A00A0
0C0060
000000
000000
ENDCHAR
STARTCHAR 260E
ENCODING 9742
SWIDTH 1440 0
DWIDTH 24 0
BBX 24 24 0 -3
BITMAP
000000
000000
000000
03FFC0
0FFFF0
1FFFF8
1EFF78
3CC33C
3CC33C
01FF80
03FFC0
07C3E0
0F81F0
0F00F0
1F00F8
1F00F8
1F00F8
1F81F8
1FC3F8
1FFFF8
1FFFF8
000000
000000
000000
ENDCHAR
STARTCHAR 2616
ENCODING 9750
SWIDTH 1440 0
DWIDTH 24 0
BBX 24 24 0 -3
BITMAP
000000
000000
001800
006600
018180
060060
040020
040020
040020
040020
080010
080010
080010
080010
080010
080010
100008
100008
100008
100008
100008
1FFFF8
000000
000000
ENDCHAR
STARTCHAR 2617
ENCODING 9751
SWIDTH 1440 0
DWIDTH 24 0
BBX 24 24 0 -3
BITMAP
000000
000000
001800
007E00
01FF80
07FFE0
07FFE0
07FFE0
07FFE0
07FFE0
0FFFF0
0FFFF0
0FFFF0
0FFFF0
0FFFF0
0FFFF0
1FFFF8
1FFFF8
1FFFF8
1FFFF8
1FFFF8
1FFFF8
000000
000000
ENDCHAR
STARTCHAR 261E
ENCODING 9758
SWIDTH 1440 0
DWIDTH 24 0
BBX 24 24 0 -3
BITMAP
000000
000000
000000
000000
000000
000000
41FFFE
763001
480C01
4007FE
403240
41D940
4E4DC0
40A740
409880
4C4780
73C100
403E00
000000
000000
000000
000000
000000
000000
ENDCHAR
STARTCHAR 2640
ENCODING 9792
SWIDTH 1440 0
DWIDTH 24 0
BBX 24 24 0 -3
BITMAP
000000
003800
00C600
010100
010100
020080
020080
020080
010100
010100
00C600
003800
001000
001000
0FFFE0
001000
001000
001000
001000
001000
001000
001000
001000
001000
ENDCHAR
STARTCHAR 2642
ENCODING 9794
SWIDTH 1440 0
DWIDTH 24 0
BBX 24 24 0 -3
BITMAP
000000
000000
000FFC
00000C
000014
000024
000044
000084
000104
000204
000404
000804
039000
0C6000
101000
101000
200800
200800
200800
101000
101000
0C6000
038000
000000
ENDCHAR
STARTCHAR 2660
ENCODING 9824
SWIDTH 1440 0
DWIDTH 24 0
BBX 24 24 0 -3
BITMAP
000000
000000
001000
001000
003800
003800
007C00
00FE00
01FF00
03FF80
07FFC0
0FFFE0
0FFFE0
1FFFF0
1FFFF0
1FFFF0
0FFFE0
07BBC0
003800
007C00
007C00
00FE00
000000
000000
ENDCHAR
STARTCHAR 2661
ENCODING 9825
SWIDTH 1440 0
DWIDTH 24 0
BBX 24 24 0 -3
BITMAP
000000
000000
0783C0
0CC660
186C30
103810
101010
100010
100010
100010
080020
080020
080020
040040
040040
020080
010100
010100
008200
004400
002800
001000
000000
000000
ENDCHAR
STARTCHAR 2662
ENCODING 9826
SWIDTH 1440 0
DWIDTH 24 0
BBX 24 24 0 -3
BITMAP
000000
001000
002800
002800
004400
008200
008200
010100
020080
020080
040040
080020
080020
040040
020080
020080
010100
008200
008200
004400
002800
002800
001000
000000
ENDCHAR
STARTCHAR 2663
ENCODING 9827
SWIDTH 1440 0
DWIDTH 24 0
BBX 24 24 0 -3
BITMAP
000000
000000
003800
00FE00
00FE00
01FF00
01FF00
01FF00
00FE00
007C00
0739C0
1FFFF0
1FFFF0
3FFFF8
3FFFF8
3FFFF8
1FFFF0
1FBBF0
0739C0
007C00
007C00
00FE00
000000
000000
ENDCHAR
STARTCHAR 2664
ENCODING 9828
SWIDTH 1440 0
DWIDTH 24 0
BBX 24 24 0 -3
BITMAP
000000
000000
001000
001000
002800
002800
004400
008200
010100
020080
040040
080020
080020
100010
100010
102810
08EE20
0729C0
004400
004400
008200
00FE00
000000
000000
ENDCHAR
STARTCHAR 2665
ENCODING 9829
SWIDTH 1440 0
DWIDTH 24 0
BBX 24 24 0 -3
BITMAP
000000
000000
0783C0
0FC7E0
1FEFF0
1FEFF0
1FFFF0
1FFFF0
1FFFF0
1FFFF0
0FFFE0
0FFFE0
0FFFE0
07FFC0
07FFC0
03FF80
01FF00
01FF00
00FE00
007C00
003800
001000
000000
000000
ENDCHAR
ENDFONT
